<svg width="156" height="48" viewBox="0 0 156 48" fill="none" xmlns="http://www.w3.org/2000/svg">
<rect width="156" height="48" rx="2" fill="#FA8232"/>
<path d="M28.935 29.14C28.4357 29.14 27.9457 29.077 27.465 28.951C26.9843 28.825 26.5457 28.636 26.149 28.384C25.7523 28.132 25.4233 27.817 25.162 27.439C24.9053 27.061 24.7513 26.6177 24.7 26.109H26.793C26.863 26.417 26.996 26.676 27.192 26.886C27.388 27.096 27.6353 27.257 27.934 27.369C28.2327 27.481 28.564 27.537 28.928 27.537C29.3013 27.537 29.642 27.4903 29.95 27.397C30.258 27.3037 30.5053 27.1637 30.692 26.977C30.8787 26.7857 30.972 26.5477 30.972 26.263C30.972 26.0063 30.895 25.7963 30.741 25.633C30.5917 25.4697 30.3887 25.3367 30.132 25.234C29.8753 25.1313 29.5837 25.0473 29.257 24.982L27.507 24.625C26.7417 24.4803 26.135 24.177 25.687 23.715C25.239 23.2483 25.008 22.6277 24.994 21.853C24.9893 21.2183 25.1573 20.67 25.498 20.208C25.8433 19.7413 26.31 19.382 26.898 19.13C27.4907 18.878 28.1533 18.752 28.886 18.752C29.7587 18.752 30.4913 18.8897 31.084 19.165C31.6813 19.4357 32.134 19.8043 32.442 20.271C32.7547 20.733 32.9157 21.2487 32.925 21.818H30.874C30.8367 21.4633 30.7293 21.181 30.552 20.971C30.3747 20.761 30.146 20.6093 29.866 20.516C29.5907 20.4227 29.2757 20.376 28.921 20.376C28.6503 20.376 28.403 20.4063 28.179 20.467C27.9597 20.5277 27.773 20.614 27.619 20.726C27.465 20.8333 27.346 20.9617 27.262 21.111C27.178 21.2603 27.136 21.4283 27.136 21.615C27.136 21.909 27.234 22.147 27.43 22.329C27.626 22.511 27.9923 22.6603 28.529 22.777L30.265 23.134C30.8857 23.2553 31.378 23.435 31.742 23.673C32.1107 23.911 32.386 24.1793 32.568 24.478C32.7547 24.7767 32.876 25.0823 32.932 25.395C32.9927 25.703 33.023 25.9877 33.023 26.249C33.023 26.795 32.8503 27.2873 32.505 27.726C32.1643 28.16 31.6883 28.5053 31.077 28.762C30.4657 29.014 29.7517 29.14 28.935 29.14ZM41.4634 24.653H37.0324V29H34.9954V18.878H37.0324V22.938H41.4634V18.878H43.5074V29H41.4634V24.653ZM50.1438 29.14C49.1871 29.14 48.3588 28.9323 47.6588 28.517C46.9635 28.097 46.4245 27.502 46.0418 26.732C45.6638 25.9573 45.4748 25.0333 45.4748 23.96C45.4748 22.882 45.6661 21.9533 46.0488 21.174C46.4361 20.3947 46.9798 19.795 47.6798 19.375C48.3798 18.9503 49.2011 18.738 50.1438 18.738C51.0818 18.738 51.8985 18.948 52.5938 19.368C53.2891 19.788 53.8258 20.3877 54.2038 21.167C54.5865 21.9463 54.7778 22.8773 54.7778 23.96C54.7778 25.0287 54.5888 25.9503 54.2108 26.725C53.8375 27.4997 53.3031 28.097 52.6078 28.517C51.9125 28.9323 51.0911 29.14 50.1438 29.14ZM50.1438 27.46C50.6385 27.46 51.0655 27.3433 51.4248 27.11C51.7888 26.872 52.0688 26.4987 52.2648 25.99C52.4608 25.4767 52.5588 24.8093 52.5588 23.988C52.5588 23.1433 52.4585 22.4597 52.2578 21.937C52.0618 21.4143 51.7818 21.0317 51.4178 20.789C51.0585 20.5417 50.6338 20.418 50.1438 20.418C49.6538 20.418 49.2268 20.5417 48.8628 20.789C48.4988 21.0317 48.2165 21.4167 48.0158 21.944C47.8151 22.4667 47.7148 23.148 47.7148 23.988C47.7148 24.814 47.8151 25.4813 48.0158 25.99C48.2165 26.4987 48.4988 26.872 48.8628 27.11C49.2268 27.3433 49.6538 27.46 50.1438 27.46ZM56.7552 29V18.878H60.4792C61.2165 18.878 61.8769 19.0063 62.4602 19.263C63.0435 19.515 63.5032 19.8883 63.8392 20.383C64.1799 20.8777 64.3502 21.482 64.3502 22.196C64.3502 22.868 64.2009 23.442 63.9022 23.918C63.6035 24.394 63.1835 24.758 62.6422 25.01C62.1055 25.262 61.4732 25.388 60.7452 25.388H58.8132V29H56.7552ZM58.7922 23.806H60.6892C61.2025 23.806 61.6225 23.6427 61.9492 23.316C62.2759 22.9847 62.4392 22.5763 62.4392 22.091C62.4392 21.587 62.2665 21.188 61.9212 20.894C61.5759 20.5953 61.1559 20.446 60.6612 20.446H58.7922V23.806ZM75.8338 18.878H77.8778V29H76.0368L71.2278 22.035V29H69.1908V18.878H71.2138L75.8338 25.577V18.878ZM84.517 29.14C83.5603 29.14 82.732 28.9323 82.032 28.517C81.3366 28.097 80.7976 27.502 80.415 26.732C80.037 25.9573 79.848 25.0333 79.848 23.96C79.848 22.882 80.0393 21.9533 80.422 21.174C80.8093 20.3947 81.353 19.795 82.053 19.375C82.753 18.9503 83.5743 18.738 84.517 18.738C85.455 18.738 86.2716 18.948 86.967 19.368C87.6623 19.788 88.199 20.3877 88.577 21.167C88.9596 21.9463 89.151 22.8773 89.151 23.96C89.151 25.0287 88.962 25.9503 88.584 26.725C88.2106 27.4997 87.6763 28.097 86.981 28.517C86.2856 28.9323 85.4643 29.14 84.517 29.14ZM84.517 27.46C85.0116 27.46 85.4386 27.3433 85.798 27.11C86.162 26.872 86.442 26.4987 86.638 25.99C86.834 25.4767 86.932 24.8093 86.932 23.988C86.932 23.1433 86.8316 22.4597 86.631 21.937C86.435 21.4143 86.155 21.0317 85.791 20.789C85.4316 20.5417 85.007 20.418 84.517 20.418C84.027 20.418 83.6 20.5417 83.236 20.789C82.872 21.0317 82.5896 21.4167 82.389 21.944C82.1883 22.4667 82.088 23.148 82.088 23.988C82.088 24.814 82.1883 25.4813 82.389 25.99C82.5896 26.4987 82.872 26.872 83.236 27.11C83.6 27.3433 84.027 27.46 84.517 27.46ZM103 18.878L100.011 29H98.3803L96.4763 22.385L94.5583 29H92.9553L89.9733 18.878H91.9753L93.8583 25.563L95.7413 18.878H97.2183L99.1223 25.563L101.005 18.878H103Z" fill="white"/>
<path d="M115.125 24H128.875" stroke="white" stroke-width="1.8" stroke-linecap="round" stroke-linejoin="round"/>
<path d="M123.25 18.375L128.875 24L123.25 29.625" stroke="white" stroke-width="1.8" stroke-linecap="round" stroke-linejoin="round"/>
</svg>
