<svg width="248" height="48" viewBox="0 0 248 48" fill="none" xmlns="http://www.w3.org/2000/svg">
<rect width="248" height="48" rx="2" fill="#FA8232"/>
<path d="M68.25 30.375C68.5261 30.375 68.75 30.5989 68.75 30.875C68.75 31.1511 68.5261 31.375 68.25 31.375C67.9739 31.375 67.75 31.1511 67.75 30.875C67.75 30.5989 67.9739 30.375 68.25 30.375Z" fill="white" stroke="white" stroke-width="1.5"/>
<path d="M76.375 32.125C77.0654 32.125 77.625 31.5654 77.625 30.875C77.625 30.1846 77.0654 29.625 76.375 29.625C75.6846 29.625 75.125 30.1846 75.125 30.875C75.125 31.5654 75.6846 32.125 76.375 32.125Z" fill="white"/>
<path d="M65.3047 19.625H79.3203L77.2578 26.8437C77.1842 27.1057 77.0266 27.3363 76.8093 27.5C76.5919 27.6638 76.3268 27.7516 76.0547 27.75H68.5703C68.2982 27.7516 68.0331 27.6638 67.8157 27.5C67.5984 27.3363 67.4408 27.1057 67.3672 26.8437L64.5391 16.9531C64.5017 16.8225 64.4227 16.7075 64.3142 16.6258C64.2056 16.544 64.0734 16.4999 63.9375 16.5H62.625" stroke="white" stroke-width="1.5" stroke-linecap="round" stroke-linejoin="round"/>
<path d="M90.385 29L94.011 18.878H96.167L99.786 29H97.749L96.923 26.655H93.283L92.436 29H90.385ZM93.738 24.87H96.433L95.096 20.852L93.738 24.87ZM101.474 18.878C101.525 18.878 101.668 18.878 101.901 18.878C102.139 18.878 102.417 18.878 102.734 18.878C103.056 18.878 103.376 18.8803 103.693 18.885C104.015 18.885 104.283 18.8873 104.498 18.892C105.725 18.92 106.726 19.1393 107.501 19.55C108.276 19.9607 108.843 20.5347 109.202 21.272C109.566 22.0093 109.748 22.882 109.748 23.89C109.748 24.94 109.557 25.8477 109.174 26.613C108.791 27.3737 108.206 27.9617 107.417 28.377C106.633 28.7923 105.637 29 104.428 29H101.474V18.878ZM103.532 20.53V27.348H104.47C105.049 27.348 105.574 27.236 106.045 27.012C106.521 26.788 106.901 26.4217 107.186 25.913C107.471 25.4043 107.613 24.7253 107.613 23.876C107.613 23.0873 107.487 22.448 107.235 21.958C106.983 21.4633 106.624 21.1017 106.157 20.873C105.69 20.6443 105.137 20.53 104.498 20.53H103.532ZM111.718 18.878C111.769 18.878 111.912 18.878 112.145 18.878C112.383 18.878 112.661 18.878 112.978 18.878C113.3 18.878 113.62 18.8803 113.937 18.885C114.259 18.885 114.527 18.8873 114.742 18.892C115.969 18.92 116.97 19.1393 117.745 19.55C118.52 19.9607 119.087 20.5347 119.446 21.272C119.81 22.0093 119.992 22.882 119.992 23.89C119.992 24.94 119.801 25.8477 119.418 26.613C119.035 27.3737 118.45 27.9617 117.661 28.377C116.877 28.7923 115.881 29 114.672 29H111.718V18.878ZM113.776 20.53V27.348H114.714C115.293 27.348 115.818 27.236 116.289 27.012C116.765 26.788 117.145 26.4217 117.43 25.913C117.715 25.4043 117.857 24.7253 117.857 23.876C117.857 23.0873 117.731 22.448 117.479 21.958C117.227 21.4633 116.868 21.1017 116.401 20.873C115.934 20.6443 115.381 20.53 114.742 20.53H113.776ZM124.229 20.698V18.878H132.328V20.698H129.339V29H127.288V20.698H124.229ZM138.058 29.14C137.101 29.14 136.273 28.9323 135.573 28.517C134.878 28.097 134.339 27.502 133.956 26.732C133.578 25.9573 133.389 25.0333 133.389 23.96C133.389 22.882 133.58 21.9533 133.963 21.174C134.35 20.3947 134.894 19.795 135.594 19.375C136.294 18.9503 137.115 18.738 138.058 18.738C138.996 18.738 139.813 18.948 140.508 19.368C141.203 19.788 141.74 20.3877 142.118 21.167C142.501 21.9463 142.692 22.8773 142.692 23.96C142.692 25.0287 142.503 25.9503 142.125 26.725C141.752 27.4997 141.217 28.097 140.522 28.517C139.827 28.9323 139.005 29.14 138.058 29.14ZM138.058 27.46C138.553 27.46 138.98 27.3433 139.339 27.11C139.703 26.872 139.983 26.4987 140.179 25.99C140.375 25.4767 140.473 24.8093 140.473 23.988C140.473 23.1433 140.373 22.4597 140.172 21.937C139.976 21.4143 139.696 21.0317 139.332 20.789C138.973 20.5417 138.548 20.418 138.058 20.418C137.568 20.418 137.141 20.5417 136.777 20.789C136.413 21.0317 136.131 21.4167 135.93 21.944C135.729 22.4667 135.629 23.148 135.629 23.988C135.629 24.814 135.729 25.4813 135.93 25.99C136.131 26.4987 136.413 26.872 136.777 27.11C137.141 27.3433 137.568 27.46 138.058 27.46ZM151.927 18.738C152.688 18.738 153.364 18.892 153.957 19.2C154.554 19.5033 155.035 19.9187 155.399 20.446C155.768 20.9733 155.985 21.5683 156.05 22.231H153.908C153.843 21.881 153.724 21.5707 153.551 21.3C153.378 21.0247 153.152 20.81 152.872 20.656C152.592 20.4973 152.256 20.418 151.864 20.418C151.393 20.418 150.987 20.5323 150.646 20.761C150.305 20.9897 150.044 21.3583 149.862 21.867C149.68 22.3757 149.589 23.0477 149.589 23.883C149.589 25.143 149.79 26.0553 150.191 26.62C150.597 27.18 151.155 27.46 151.864 27.46C152.256 27.46 152.592 27.3713 152.872 27.194C153.152 27.012 153.378 26.774 153.551 26.48C153.724 26.1813 153.843 25.8547 153.908 25.5H156.05C155.989 25.9807 155.873 26.4403 155.7 26.879C155.527 27.313 155.282 27.7003 154.965 28.041C154.648 28.3817 154.239 28.65 153.74 28.846C153.241 29.042 152.636 29.14 151.927 29.14C150.984 29.14 150.17 28.9207 149.484 28.482C148.798 28.0433 148.268 27.4273 147.895 26.634C147.526 25.8407 147.342 24.9143 147.342 23.855C147.342 22.791 147.526 21.8787 147.895 21.118C148.264 20.3527 148.791 19.7647 149.477 19.354C150.163 18.9433 150.98 18.738 151.927 18.738ZM156.958 29L160.584 18.878H162.74L166.359 29H164.322L163.496 26.655H159.856L159.009 29H156.958ZM160.311 24.87H163.006L161.669 20.852L160.311 24.87ZM175.9 29H173.779L172.134 25.101H170.083V29H168.046V18.878H172.316C173.124 18.878 173.784 19.0063 174.297 19.263C174.811 19.5197 175.189 19.8767 175.431 20.334C175.674 20.7867 175.795 21.3093 175.795 21.902C175.795 22.434 175.711 22.8843 175.543 23.253C175.38 23.617 175.163 23.9203 174.892 24.163C174.626 24.4057 174.335 24.604 174.017 24.758L175.9 29ZM171.952 23.526C172.498 23.526 172.93 23.379 173.247 23.085C173.569 22.791 173.73 22.413 173.73 21.951C173.73 21.4843 173.576 21.1157 173.268 20.845C172.96 20.5743 172.571 20.439 172.099 20.439H170.083V23.526H171.952ZM176.958 20.698V18.878H185.057V20.698H182.068V29H180.017V20.698H176.958Z" fill="white"/>
</svg>
