<svg width="173" height="48" viewBox="0 0 173 48" fill="none" xmlns="http://www.w3.org/2000/svg">
<rect width="173" height="48" rx="2" fill="#FA8232"/>
<path d="M30.25 30.375C30.5261 30.375 30.75 30.5989 30.75 30.875C30.75 31.1511 30.5261 31.375 30.25 31.375C29.9739 31.375 29.75 31.1511 29.75 30.875C29.75 30.5989 29.9739 30.375 30.25 30.375Z" fill="white" stroke="white" stroke-width="1.5"/>
<path d="M38.375 32.125C39.0654 32.125 39.625 31.5654 39.625 30.875C39.625 30.1846 39.0654 29.625 38.375 29.625C37.6846 29.625 37.125 30.1846 37.125 30.875C37.125 31.5654 37.6846 32.125 38.375 32.125Z" fill="white"/>
<path d="M27.3047 19.625H41.3203L39.2578 26.8437C39.1842 27.1057 39.0266 27.3363 38.8093 27.5C38.5919 27.6638 38.3268 27.7516 38.0547 27.75H30.5703C30.2982 27.7516 30.0331 27.6638 29.8157 27.5C29.5984 27.3363 29.4408 27.1057 29.3672 26.8437L26.5391 16.9531C26.5017 16.8225 26.4227 16.7075 26.3142 16.6258C26.2056 16.544 26.0734 16.4999 25.9375 16.5H24.625" stroke="white" stroke-width="1.5" stroke-linecap="round" stroke-linejoin="round"/>
<path d="M52.385 29L56.011 18.878H58.167L61.786 29H59.749L58.923 26.655H55.283L54.436 29H52.385ZM55.738 24.87H58.433L57.096 20.852L55.738 24.87ZM63.4739 18.878C63.5252 18.878 63.6675 18.878 63.9009 18.878C64.1389 18.878 64.4165 18.878 64.7339 18.878C65.0559 18.878 65.3755 18.8803 65.6929 18.885C66.0149 18.885 66.2832 18.8873 66.4979 18.892C67.7252 18.92 68.7262 19.1393 69.5009 19.55C70.2755 19.9607 70.8425 20.5347 71.2019 21.272C71.5659 22.0093 71.7479 22.882 71.7479 23.89C71.7479 24.94 71.5565 25.8477 71.1739 26.613C70.7912 27.3737 70.2055 27.9617 69.4169 28.377C68.6329 28.7923 67.6365 29 66.4279 29H63.4739V18.878ZM65.5319 20.53V27.348H66.4699C67.0485 27.348 67.5735 27.236 68.0449 27.012C68.5209 26.788 68.9012 26.4217 69.1859 25.913C69.4705 25.4043 69.6129 24.7253 69.6129 23.876C69.6129 23.0873 69.4869 22.448 69.2349 21.958C68.9829 21.4633 68.6235 21.1017 68.1569 20.873C67.6902 20.6443 67.1372 20.53 66.4979 20.53H65.5319ZM73.718 18.878C73.7694 18.878 73.9117 18.878 74.145 18.878C74.383 18.878 74.6607 18.878 74.978 18.878C75.3 18.878 75.6197 18.8803 75.937 18.885C76.259 18.885 76.5274 18.8873 76.742 18.892C77.9694 18.92 78.9704 19.1393 79.745 19.55C80.5197 19.9607 81.0867 20.5347 81.446 21.272C81.81 22.0093 81.992 22.882 81.992 23.89C81.992 24.94 81.8007 25.8477 81.418 26.613C81.0354 27.3737 80.4497 27.9617 79.661 28.377C78.877 28.7923 77.8807 29 76.672 29H73.718V18.878ZM75.776 20.53V27.348H76.714C77.2927 27.348 77.8177 27.236 78.289 27.012C78.765 26.788 79.1454 26.4217 79.43 25.913C79.7147 25.4043 79.857 24.7253 79.857 23.876C79.857 23.0873 79.731 22.448 79.479 21.958C79.227 21.4633 78.8677 21.1017 78.401 20.873C77.9344 20.6443 77.3814 20.53 76.742 20.53H75.776ZM86.229 20.698V18.878H94.328V20.698H91.339V29H89.288V20.698H86.229ZM100.058 29.14C99.1013 29.14 98.273 28.9323 97.573 28.517C96.8776 28.097 96.3386 27.502 95.956 26.732C95.578 25.9573 95.389 25.0333 95.389 23.96C95.389 22.882 95.5803 21.9533 95.963 21.174C96.3503 20.3947 96.894 19.795 97.594 19.375C98.294 18.9503 99.1153 18.738 100.058 18.738C100.996 18.738 101.813 18.948 102.508 19.368C103.203 19.788 103.74 20.3877 104.118 21.167C104.501 21.9463 104.692 22.8773 104.692 23.96C104.692 25.0287 104.503 25.9503 104.125 26.725C103.752 27.4997 103.217 28.097 102.522 28.517C101.827 28.9323 101.005 29.14 100.058 29.14ZM100.058 27.46C100.553 27.46 100.98 27.3433 101.339 27.11C101.703 26.872 101.983 26.4987 102.179 25.99C102.375 25.4767 102.473 24.8093 102.473 23.988C102.473 23.1433 102.373 22.4597 102.172 21.937C101.976 21.4143 101.696 21.0317 101.332 20.789C100.973 20.5417 100.548 20.418 100.058 20.418C99.568 20.418 99.141 20.5417 98.777 20.789C98.413 21.0317 98.1306 21.4167 97.93 21.944C97.7293 22.4667 97.629 23.148 97.629 23.988C97.629 24.814 97.7293 25.4813 97.93 25.99C98.1306 26.4987 98.413 26.872 98.777 27.11C99.141 27.3433 99.568 27.46 100.058 27.46ZM113.927 18.738C114.688 18.738 115.364 18.892 115.957 19.2C116.554 19.5033 117.035 19.9187 117.399 20.446C117.768 20.9733 117.985 21.5683 118.05 22.231H115.908C115.843 21.881 115.724 21.5707 115.551 21.3C115.378 21.0247 115.152 20.81 114.872 20.656C114.592 20.4973 114.256 20.418 113.864 20.418C113.393 20.418 112.987 20.5323 112.646 20.761C112.305 20.9897 112.044 21.3583 111.862 21.867C111.68 22.3757 111.589 23.0477 111.589 23.883C111.589 25.143 111.79 26.0553 112.191 26.62C112.597 27.18 113.155 27.46 113.864 27.46C114.256 27.46 114.592 27.3713 114.872 27.194C115.152 27.012 115.378 26.774 115.551 26.48C115.724 26.1813 115.843 25.8547 115.908 25.5H118.05C117.989 25.9807 117.873 26.4403 117.7 26.879C117.527 27.313 117.282 27.7003 116.965 28.041C116.648 28.3817 116.239 28.65 115.74 28.846C115.241 29.042 114.636 29.14 113.927 29.14C112.984 29.14 112.17 28.9207 111.484 28.482C110.798 28.0433 110.268 27.4273 109.895 26.634C109.526 25.8407 109.342 24.9143 109.342 23.855C109.342 22.791 109.526 21.8787 109.895 21.118C110.264 20.3527 110.791 19.7647 111.477 19.354C112.163 18.9433 112.98 18.738 113.927 18.738ZM118.958 29L122.584 18.878H124.74L128.359 29H126.322L125.496 26.655H121.856L121.009 29H118.958ZM122.311 24.87H125.006L123.669 20.852L122.311 24.87ZM137.9 29H135.779L134.134 25.101H132.083V29H130.046V18.878H134.316C135.124 18.878 135.784 19.0063 136.297 19.263C136.811 19.5197 137.189 19.8767 137.431 20.334C137.674 20.7867 137.795 21.3093 137.795 21.902C137.795 22.434 137.711 22.8843 137.543 23.253C137.38 23.617 137.163 23.9203 136.892 24.163C136.626 24.4057 136.335 24.604 136.017 24.758L137.9 29ZM133.952 23.526C134.498 23.526 134.93 23.379 135.247 23.085C135.569 22.791 135.73 22.413 135.73 21.951C135.73 21.4843 135.576 21.1157 135.268 20.845C134.96 20.5743 134.571 20.439 134.099 20.439H132.083V23.526H133.952ZM139.962 18.878C140.014 18.878 140.156 18.878 140.389 18.878C140.627 18.878 140.905 18.878 141.222 18.878C141.544 18.878 141.864 18.8803 142.181 18.885C142.503 18.885 142.772 18.8873 142.986 18.892C144.214 18.92 145.215 19.1393 145.989 19.55C146.764 19.9607 147.331 20.5347 147.69 21.272C148.054 22.0093 148.236 22.882 148.236 23.89C148.236 24.94 148.045 25.8477 147.662 26.613C147.28 27.3737 146.694 27.9617 145.905 28.377C145.121 28.7923 144.125 29 142.916 29H139.962V18.878ZM142.02 20.53V27.348H142.958C143.537 27.348 144.062 27.236 144.533 27.012C145.009 26.788 145.39 26.4217 145.674 25.913C145.959 25.4043 146.101 24.7253 146.101 23.876C146.101 23.0873 145.975 22.448 145.723 21.958C145.471 21.4633 145.112 21.1017 144.645 20.873C144.179 20.6443 143.626 20.53 142.986 20.53H142.02Z" fill="white"/>
</svg>
