<svg width="173" height="48" viewBox="0 0 173 48" fill="none" xmlns="http://www.w3.org/2000/svg">
<rect width="173" height="48" rx="2" fill="#FA8232"/>
<path d="M24.385 29L28.011 18.878H30.167L33.786 29H31.749L30.923 26.655H27.283L26.436 29H24.385ZM27.738 24.87H30.433L29.096 20.852L27.738 24.87ZM35.4739 18.878C35.5252 18.878 35.6675 18.878 35.9009 18.878C36.1389 18.878 36.4165 18.878 36.7339 18.878C37.0559 18.878 37.3755 18.8803 37.6929 18.885C38.0149 18.885 38.2832 18.8873 38.4979 18.892C39.7252 18.92 40.7262 19.1393 41.5009 19.55C42.2755 19.9607 42.8425 20.5347 43.2019 21.272C43.5659 22.0093 43.7479 22.882 43.7479 23.89C43.7479 24.94 43.5565 25.8477 43.1739 26.613C42.7912 27.3737 42.2055 27.9617 41.4169 28.377C40.6329 28.7923 39.6365 29 38.4279 29H35.4739V18.878ZM37.5319 20.53V27.348H38.4699C39.0485 27.348 39.5735 27.236 40.0449 27.012C40.5209 26.788 40.9012 26.4217 41.1859 25.913C41.4705 25.4043 41.6129 24.7253 41.6129 23.876C41.6129 23.0873 41.4869 22.448 41.2349 21.958C40.9829 21.4633 40.6235 21.1017 40.1569 20.873C39.6902 20.6443 39.1372 20.53 38.4979 20.53H37.5319ZM45.718 18.878C45.7694 18.878 45.9117 18.878 46.145 18.878C46.383 18.878 46.6607 18.878 46.978 18.878C47.3 18.878 47.6197 18.8803 47.937 18.885C48.259 18.885 48.5274 18.8873 48.742 18.892C49.9694 18.92 50.9704 19.1393 51.745 19.55C52.5197 19.9607 53.0867 20.5347 53.446 21.272C53.81 22.0093 53.992 22.882 53.992 23.89C53.992 24.94 53.8007 25.8477 53.418 26.613C53.0354 27.3737 52.4497 27.9617 51.661 28.377C50.877 28.7923 49.8807 29 48.672 29H45.718V18.878ZM47.776 20.53V27.348H48.714C49.2927 27.348 49.8177 27.236 50.289 27.012C50.765 26.788 51.1454 26.4217 51.43 25.913C51.7147 25.4043 51.857 24.7253 51.857 23.876C51.857 23.0873 51.731 22.448 51.479 21.958C51.227 21.4633 50.8677 21.1017 50.401 20.873C49.9344 20.6443 49.3814 20.53 48.742 20.53H47.776ZM58.229 20.698V18.878H66.328V20.698H63.339V29H61.288V20.698H58.229ZM72.058 29.14C71.1013 29.14 70.273 28.9323 69.573 28.517C68.8776 28.097 68.3386 27.502 67.956 26.732C67.578 25.9573 67.389 25.0333 67.389 23.96C67.389 22.882 67.5803 21.9533 67.963 21.174C68.3503 20.3947 68.894 19.795 69.594 19.375C70.294 18.9503 71.1153 18.738 72.058 18.738C72.996 18.738 73.8126 18.948 74.508 19.368C75.2033 19.788 75.74 20.3877 76.118 21.167C76.5006 21.9463 76.692 22.8773 76.692 23.96C76.692 25.0287 76.503 25.9503 76.125 26.725C75.7516 27.4997 75.2173 28.097 74.522 28.517C73.8266 28.9323 73.0053 29.14 72.058 29.14ZM72.058 27.46C72.5526 27.46 72.9796 27.3433 73.339 27.11C73.703 26.872 73.983 26.4987 74.179 25.99C74.375 25.4767 74.473 24.8093 74.473 23.988C74.473 23.1433 74.3726 22.4597 74.172 21.937C73.976 21.4143 73.696 21.0317 73.332 20.789C72.9726 20.5417 72.548 20.418 72.058 20.418C71.568 20.418 71.141 20.5417 70.777 20.789C70.413 21.0317 70.1306 21.4167 69.93 21.944C69.7293 22.4667 69.629 23.148 69.629 23.988C69.629 24.814 69.7293 25.4813 69.93 25.99C70.1306 26.4987 70.413 26.872 70.777 27.11C71.141 27.3433 71.568 27.46 72.058 27.46ZM85.9271 18.738C86.6878 18.738 87.3645 18.892 87.9571 19.2C88.5545 19.5033 89.0351 19.9187 89.3991 20.446C89.7678 20.9733 89.9848 21.5683 90.0501 22.231H87.9081C87.8428 21.881 87.7238 21.5707 87.5511 21.3C87.3785 21.0247 87.1521 20.81 86.8721 20.656C86.5921 20.4973 86.2561 20.418 85.8641 20.418C85.3928 20.418 84.9868 20.5323 84.6461 20.761C84.3055 20.9897 84.0441 21.3583 83.8621 21.867C83.6801 22.3757 83.5891 23.0477 83.5891 23.883C83.5891 25.143 83.7898 26.0553 84.1911 26.62C84.5971 27.18 85.1548 27.46 85.8641 27.46C86.2561 27.46 86.5921 27.3713 86.8721 27.194C87.1521 27.012 87.3785 26.774 87.5511 26.48C87.7238 26.1813 87.8428 25.8547 87.9081 25.5H90.0501C89.9895 25.9807 89.8728 26.4403 89.7001 26.879C89.5275 27.313 89.2825 27.7003 88.9651 28.041C88.6478 28.3817 88.2395 28.65 87.7401 28.846C87.2408 29.042 86.6365 29.14 85.9271 29.14C84.9845 29.14 84.1701 28.9207 83.4841 28.482C82.7981 28.0433 82.2685 27.4273 81.8951 26.634C81.5265 25.8407 81.3421 24.9143 81.3421 23.855C81.3421 22.791 81.5265 21.8787 81.8951 21.118C82.2638 20.3527 82.7911 19.7647 83.4771 19.354C84.1631 18.9433 84.9798 18.738 85.9271 18.738ZM90.9575 29L94.5835 18.878H96.7395L100.359 29H98.3215L97.4955 26.655H93.8555L93.0085 29H90.9575ZM94.3105 24.87H97.0055L95.6685 20.852L94.3105 24.87ZM109.9 29H107.779L106.134 25.101H104.083V29H102.046V18.878H106.316C107.124 18.878 107.784 19.0063 108.297 19.263C108.811 19.5197 109.189 19.8767 109.431 20.334C109.674 20.7867 109.795 21.3093 109.795 21.902C109.795 22.434 109.711 22.8843 109.543 23.253C109.38 23.617 109.163 23.9203 108.892 24.163C108.626 24.4057 108.335 24.604 108.017 24.758L109.9 29ZM105.952 23.526C106.498 23.526 106.93 23.379 107.247 23.085C107.569 22.791 107.73 22.413 107.73 21.951C107.73 21.4843 107.576 21.1157 107.268 20.845C106.96 20.5743 106.571 20.439 106.099 20.439H104.083V23.526H105.952ZM111.962 18.878C112.014 18.878 112.156 18.878 112.389 18.878C112.627 18.878 112.905 18.878 113.222 18.878C113.544 18.878 113.864 18.8803 114.181 18.885C114.503 18.885 114.772 18.8873 114.986 18.892C116.214 18.92 117.215 19.1393 117.989 19.55C118.764 19.9607 119.331 20.5347 119.69 21.272C120.054 22.0093 120.236 22.882 120.236 23.89C120.236 24.94 120.045 25.8477 119.662 26.613C119.28 27.3737 118.694 27.9617 117.905 28.377C117.121 28.7923 116.125 29 114.916 29H111.962V18.878ZM114.02 20.53V27.348H114.958C115.537 27.348 116.062 27.236 116.533 27.012C117.009 26.788 117.39 26.4217 117.674 25.913C117.959 25.4043 118.101 24.7253 118.101 23.876C118.101 23.0873 117.975 22.448 117.723 21.958C117.471 21.4633 117.112 21.1017 116.645 20.873C116.179 20.6443 115.626 20.53 114.986 20.53H114.02Z" fill="white"/>
<path d="M135.25 30.375C135.526 30.375 135.75 30.5989 135.75 30.875C135.75 31.1511 135.526 31.375 135.25 31.375C134.974 31.375 134.75 31.1511 134.75 30.875C134.75 30.5989 134.974 30.375 135.25 30.375Z" fill="white" stroke="white" stroke-width="1.5"/>
<path d="M143.375 30.375C143.651 30.375 143.875 30.5989 143.875 30.875C143.875 31.1511 143.651 31.375 143.375 31.375C143.099 31.375 142.875 31.1511 142.875 30.875C142.875 30.5989 143.099 30.375 143.375 30.375Z" fill="white" stroke="white" stroke-width="1.5"/>
<path d="M132.305 19.625H146.32L144.258 26.8437C144.184 27.1057 144.027 27.3363 143.809 27.5C143.592 27.6638 143.327 27.7516 143.055 27.75H135.57C135.298 27.7516 135.033 27.6638 134.816 27.5C134.598 27.3363 134.441 27.1057 134.367 26.8437L131.539 16.9531C131.502 16.8225 131.423 16.7075 131.314 16.6258C131.206 16.544 131.073 16.4999 130.937 16.5H129.625" stroke="white" stroke-width="1.5" stroke-linecap="round" stroke-linejoin="round"/>
</svg>
