<svg width="360" height="44" viewBox="0 0 360 44" fill="none" xmlns="http://www.w3.org/2000/svg">
<rect x="0.5" y="0.5" width="359" height="43" rx="1.5" fill="white"/>
<rect x="0.5" y="0.5" width="359" height="43" rx="1.5" stroke="#E4E7E9"/>
<path d="M126.595 16.878H127.918V25.838H132.699V27H126.588L126.595 16.878ZM137.101 27.14C136.434 27.14 135.851 26.9977 135.351 26.713C134.852 26.4237 134.465 26.0013 134.189 25.446C133.914 24.8907 133.776 24.2117 133.776 23.409C133.776 22.653 133.905 21.9903 134.161 21.421C134.418 20.8517 134.794 20.4107 135.288 20.098C135.788 19.7807 136.392 19.622 137.101 19.622C137.769 19.622 138.347 19.769 138.837 20.063C139.332 20.3523 139.715 20.7793 139.985 21.344C140.256 21.9087 140.391 22.597 140.391 23.409C140.391 24.1463 140.265 24.795 140.013 25.355C139.766 25.915 139.397 26.3537 138.907 26.671C138.422 26.9837 137.82 27.14 137.101 27.14ZM137.101 26.118C137.535 26.118 137.902 26.0083 138.2 25.789C138.499 25.5697 138.725 25.2547 138.879 24.844C139.033 24.4333 139.11 23.9457 139.11 23.381C139.11 22.863 139.043 22.3987 138.907 21.988C138.772 21.5727 138.555 21.2437 138.256 21.001C137.962 20.7583 137.577 20.637 137.101 20.637C136.663 20.637 136.292 20.7467 135.988 20.966C135.685 21.1807 135.454 21.4933 135.295 21.904C135.141 22.3147 135.064 22.807 135.064 23.381C135.064 23.8897 135.134 24.3517 135.274 24.767C135.414 25.1823 135.634 25.5113 135.932 25.754C136.231 25.9967 136.621 26.118 137.101 26.118ZM145.083 29.394C143.944 29.394 143.058 29.2283 142.423 28.897C141.793 28.5703 141.478 28.1013 141.478 27.49C141.478 27.2287 141.539 27.007 141.66 26.825C141.781 26.6383 141.926 26.4843 142.094 26.363C142.262 26.2417 142.418 26.146 142.563 26.076C142.708 26.0013 142.801 25.9477 142.843 25.915C142.764 25.8683 142.663 25.81 142.542 25.74C142.425 25.67 142.323 25.5767 142.234 25.46C142.145 25.3433 142.101 25.1917 142.101 25.005C142.101 24.7763 142.208 24.5663 142.423 24.375C142.638 24.1837 142.955 24.0413 143.375 23.948C142.95 23.7333 142.619 23.4487 142.381 23.094C142.143 22.7393 142.024 22.3543 142.024 21.939C142.024 21.4723 142.15 21.0663 142.402 20.721C142.659 20.3757 143.023 20.112 143.494 19.93C143.965 19.7433 144.525 19.65 145.174 19.65C145.645 19.65 146.042 19.706 146.364 19.818C146.686 19.9253 146.985 20.0793 147.26 20.28C147.335 20.2473 147.451 20.1983 147.61 20.133C147.773 20.063 147.953 19.9883 148.149 19.909C148.345 19.8297 148.527 19.755 148.695 19.685C148.868 19.6103 149.005 19.5543 149.108 19.517L149.101 20.714L147.834 20.952C147.904 21.1013 147.96 21.2647 148.002 21.442C148.049 21.6193 148.072 21.785 148.072 21.939C148.072 22.3637 147.96 22.7487 147.736 23.094C147.517 23.4393 147.183 23.7147 146.735 23.92C146.287 24.1253 145.727 24.228 145.055 24.228C144.999 24.228 144.927 24.228 144.838 24.228C144.754 24.2233 144.682 24.2187 144.621 24.214C144.126 24.228 143.786 24.284 143.599 24.382C143.412 24.4753 143.319 24.5803 143.319 24.697C143.319 24.8323 143.424 24.9257 143.634 24.977C143.844 25.0283 144.201 25.0727 144.705 25.11C144.887 25.1193 145.111 25.131 145.377 25.145C145.648 25.159 145.946 25.1777 146.273 25.201C147.034 25.2477 147.619 25.4413 148.03 25.782C148.441 26.1227 148.646 26.5823 148.646 27.161C148.646 27.819 148.352 28.3557 147.764 28.771C147.176 29.1863 146.282 29.394 145.083 29.394ZM145.314 28.561C145.981 28.561 146.492 28.4607 146.847 28.26C147.202 28.0593 147.379 27.756 147.379 27.35C147.379 27.0607 147.269 26.825 147.05 26.643C146.835 26.4563 146.506 26.349 146.063 26.321L144.033 26.188C143.851 26.1787 143.662 26.2253 143.466 26.328C143.27 26.426 143.102 26.5637 142.962 26.741C142.827 26.9183 142.759 27.119 142.759 27.343C142.759 27.7257 142.967 28.0243 143.382 28.239C143.802 28.4537 144.446 28.561 145.314 28.561ZM145.09 23.395C145.613 23.395 146.033 23.2737 146.35 23.031C146.672 22.7883 146.833 22.429 146.833 21.953C146.833 21.463 146.672 21.0897 146.35 20.833C146.033 20.5763 145.613 20.448 145.09 20.448C144.563 20.448 144.136 20.5787 143.809 20.84C143.487 21.0967 143.326 21.4677 143.326 21.953C143.326 22.4103 143.48 22.765 143.788 23.017C144.096 23.269 144.53 23.395 145.09 23.395ZM152.126 19.762V27H150.873V19.762H152.126ZM152.154 16.885V18.229H150.831V16.885H152.154ZM154.486 27V19.762H155.739V20.812C155.856 20.6113 156.017 20.4223 156.222 20.245C156.432 20.0677 156.684 19.9253 156.978 19.818C157.277 19.7107 157.62 19.657 158.007 19.657C158.464 19.657 158.884 19.748 159.267 19.93C159.654 20.112 159.962 20.3967 160.191 20.784C160.424 21.1667 160.541 21.6613 160.541 22.268V27H159.246V22.394C159.246 21.8293 159.097 21.4117 158.798 21.141C158.504 20.8657 158.121 20.728 157.65 20.728C157.323 20.728 157.018 20.7817 156.733 20.889C156.448 20.9917 156.217 21.1503 156.04 21.365C155.863 21.575 155.774 21.841 155.774 22.163V27H154.486ZM175.231 19.762L173.04 27H171.766L170.114 21.659L168.546 27H167.279L165.046 19.762H166.243L167.902 25.327H168.014L169.645 19.762H170.625L172.319 25.313H172.431L174.02 19.762H175.231ZM178.103 19.762V27H176.85V19.762H178.103ZM178.131 16.885V18.229H176.808V16.885H178.131ZM184.154 20.707H182.523V25.208C182.523 25.4647 182.548 25.6537 182.6 25.775C182.656 25.8917 182.747 25.9663 182.873 25.999C183.003 26.0317 183.181 26.048 183.405 26.048H184.196V26.916C184.107 26.9487 183.972 26.9767 183.79 27C183.612 27.0233 183.391 27.035 183.125 27.035C182.625 27.035 182.238 26.9673 181.963 26.832C181.687 26.6967 181.494 26.496 181.382 26.23C181.274 25.964 181.221 25.6373 181.221 25.25V20.707H180.045V19.762H181.256L181.571 17.655H182.523V19.755H184.154V20.707ZM186.013 27V16.598H187.273V20.826C187.395 20.6253 187.558 20.4387 187.763 20.266C187.969 20.0887 188.218 19.9463 188.512 19.839C188.806 19.727 189.147 19.671 189.534 19.671C190.006 19.671 190.433 19.7597 190.815 19.937C191.198 20.1097 191.501 20.357 191.725 20.679C191.949 21.001 192.061 21.3837 192.061 21.827V27H190.766V22.086C190.766 21.652 190.617 21.3183 190.318 21.085C190.024 20.847 189.639 20.728 189.163 20.728C188.841 20.728 188.538 20.7817 188.253 20.889C187.969 20.9917 187.738 21.1503 187.56 21.365C187.388 21.575 187.301 21.8433 187.301 22.17V27H186.013ZM196.816 27L200.477 16.878H201.94L205.601 27H204.278L203.284 24.228H199.147L198.132 27H196.816ZM199.476 23.038H202.941L201.219 18.159L199.476 23.038ZM207.246 29.254V19.762H208.534L208.548 21.022C208.632 20.8727 208.739 20.7163 208.87 20.553C209.005 20.3897 209.168 20.238 209.36 20.098C209.556 19.958 209.782 19.8437 210.039 19.755C210.3 19.6663 210.596 19.622 210.928 19.622C211.506 19.622 212.015 19.755 212.454 20.021C212.897 20.2823 213.242 20.6837 213.49 21.225C213.737 21.7663 213.861 22.4523 213.861 23.283C213.861 24.1137 213.739 24.816 213.497 25.39C213.259 25.9593 212.913 26.3933 212.461 26.692C212.008 26.9907 211.462 27.14 210.823 27.14C210.501 27.14 210.214 27.0933 209.962 27C209.714 26.9113 209.497 26.7947 209.311 26.65C209.129 26.5007 208.975 26.342 208.849 26.174C208.727 26.006 208.627 25.845 208.548 25.691V29.254H207.246ZM210.578 26.132C211.175 26.132 211.663 25.9057 212.041 25.453C212.419 24.9957 212.608 24.2863 212.608 23.325C212.608 22.499 212.435 21.8433 212.09 21.358C211.744 20.8727 211.24 20.63 210.578 20.63C209.906 20.63 209.397 20.8797 209.052 21.379C208.706 21.8737 208.534 22.5223 208.534 23.325C208.534 23.843 208.611 24.3143 208.765 24.739C208.919 25.1637 209.147 25.502 209.451 25.754C209.754 26.006 210.13 26.132 210.578 26.132ZM215.558 29.254V19.762H216.846L216.86 21.022C216.944 20.8727 217.052 20.7163 217.182 20.553C217.318 20.3897 217.481 20.238 217.672 20.098C217.868 19.958 218.095 19.8437 218.351 19.755C218.613 19.6663 218.909 19.622 219.24 19.622C219.819 19.622 220.328 19.755 220.766 20.021C221.21 20.2823 221.555 20.6837 221.802 21.225C222.05 21.7663 222.173 22.4523 222.173 23.283C222.173 24.1137 222.052 24.816 221.809 25.39C221.571 25.9593 221.226 26.3933 220.773 26.692C220.321 26.9907 219.775 27.14 219.135 27.14C218.813 27.14 218.526 27.0933 218.274 27C218.027 26.9113 217.81 26.7947 217.623 26.65C217.441 26.5007 217.287 26.342 217.161 26.174C217.04 26.006 216.94 25.845 216.86 25.691V29.254H215.558ZM218.89 26.132C219.488 26.132 219.975 25.9057 220.353 25.453C220.731 24.9957 220.92 24.2863 220.92 23.325C220.92 22.499 220.748 21.8433 220.402 21.358C220.057 20.8727 219.553 20.63 218.89 20.63C218.218 20.63 217.71 20.8797 217.364 21.379C217.019 21.8737 216.846 22.5223 216.846 23.325C216.846 23.843 216.923 24.3143 217.077 24.739C217.231 25.1637 217.46 25.502 217.763 25.754C218.067 26.006 218.442 26.132 218.89 26.132ZM225.698 27.091C225.306 27.091 224.988 27.0373 224.746 26.93C224.508 26.8227 224.323 26.678 224.193 26.496C224.067 26.314 223.98 26.1063 223.934 25.873C223.892 25.635 223.871 25.39 223.871 25.138V16.598H225.145V25.012C225.145 25.376 225.215 25.649 225.355 25.831C225.499 26.013 225.7 26.1133 225.957 26.132L226.349 26.139V26.979C226.241 27.0117 226.129 27.0373 226.013 27.056C225.896 27.0793 225.791 27.091 225.698 27.091ZM228.855 23.682C228.855 24.1393 228.93 24.5547 229.079 24.928C229.233 25.2967 229.464 25.5907 229.772 25.81C230.085 26.0293 230.475 26.139 230.941 26.139C231.403 26.139 231.8 26.0317 232.131 25.817C232.467 25.6023 232.682 25.292 232.775 24.886H234C233.912 25.376 233.716 25.789 233.412 26.125C233.109 26.461 232.743 26.7153 232.313 26.888C231.884 27.056 231.436 27.14 230.969 27.14C230.293 27.14 229.698 26.993 229.184 26.699C228.671 26.405 228.27 25.9827 227.98 25.432C227.691 24.8813 227.546 24.221 227.546 23.451C227.546 22.6903 227.677 22.023 227.938 21.449C228.2 20.875 228.578 20.427 229.072 20.105C229.572 19.783 230.171 19.622 230.871 19.622C231.553 19.622 232.129 19.769 232.6 20.063C233.072 20.357 233.429 20.7723 233.671 21.309C233.919 21.841 234.042 22.4733 234.042 23.206V23.682H228.855ZM228.862 22.807H232.796C232.796 22.3917 232.726 22.0183 232.586 21.687C232.446 21.351 232.232 21.0873 231.942 20.896C231.658 20.7 231.298 20.602 230.864 20.602C230.412 20.602 230.036 20.7117 229.737 20.931C229.443 21.1457 229.222 21.4233 229.072 21.764C228.928 22.1 228.858 22.4477 228.862 22.807Z" fill="#475156"/>
<path d="M31.6317 22.534C31.6228 20.9008 32.3618 19.668 33.8577 18.7601C33.0207 17.563 31.7564 16.9043 30.0869 16.7753C28.5065 16.6506 26.7791 17.6965 26.1469 17.6965C25.4792 17.6965 23.9477 16.8198 22.7457 16.8198C20.2615 16.8598 17.6215 18.8002 17.6215 22.7477C17.6215 23.9137 17.8352 25.1182 18.2626 26.3614C18.8324 27.9947 20.8892 32 23.0351 31.9332C24.1569 31.9065 24.9494 31.1366 26.4096 31.1366C27.8253 31.1366 28.5599 31.9332 29.8109 31.9332C31.9745 31.9021 33.8354 28.2617 34.3785 26.6239C31.4759 25.2577 31.6317 22.6186 31.6317 22.534ZM29.1119 15.2265C30.3273 13.7846 30.216 12.4717 30.1804 12C29.1075 12.0623 27.8654 12.7299 27.1575 13.5532C26.3784 14.4344 25.9199 15.5247 26.0178 16.753C27.1798 16.842 28.2393 16.2457 29.1119 15.2265Z" fill="black"/>
</svg>
