<svg width="142" height="56" viewBox="0 0 142 56" fill="none" xmlns="http://www.w3.org/2000/svg">
<rect x="1" y="1" width="140" height="54" rx="2" stroke="#FA8232" stroke-width="2"/>
<path d="M33.296 34V22.432H37.488C39.0027 22.432 40.1253 22.6933 40.856 23.216C41.592 23.7333 41.96 24.4827 41.96 25.464C41.96 26.04 41.8133 26.5413 41.52 26.968C41.2267 27.3893 40.704 27.7573 39.952 28.072C40.4373 28.1947 40.8293 28.36 41.128 28.568C41.4267 28.776 41.656 29.008 41.816 29.264C41.976 29.5147 42.0853 29.7787 42.144 30.056C42.2027 30.328 42.232 30.5973 42.232 30.864C42.232 31.9307 41.8693 32.72 41.144 33.232C40.4187 33.744 39.264 34 37.68 34H33.296ZM35.624 32.192H37.728C38.432 32.192 38.9627 32.0507 39.32 31.768C39.6827 31.4853 39.864 31.1067 39.864 30.632C39.864 30.2907 39.776 30.0053 39.6 29.776C39.424 29.5413 39.184 29.3653 38.88 29.248C38.5813 29.1307 38.24 29.072 37.856 29.072H35.624V32.192ZM35.624 27.216H37.856C38.096 27.216 38.3253 27.1893 38.544 27.136C38.768 27.0773 38.9653 26.9893 39.136 26.872C39.312 26.7547 39.4507 26.6053 39.552 26.424C39.6533 26.2373 39.704 26.0187 39.704 25.768C39.704 25.2667 39.5147 24.888 39.136 24.632C38.7627 24.3707 38.2827 24.24 37.696 24.24H35.624V27.216ZM53.6971 29.592C53.6971 30.5253 53.5451 31.336 53.2411 32.024C52.9371 32.7067 52.4438 33.2347 51.7611 33.608C51.0838 33.976 50.1851 34.16 49.0651 34.16C47.9398 34.16 47.0385 33.9733 46.3611 33.6C45.6838 33.2213 45.1931 32.6853 44.8891 31.992C44.5905 31.2987 44.4411 30.472 44.4411 29.512V22.432H46.8171V29.688C46.8171 30.552 47.0251 31.184 47.4411 31.584C47.8571 31.9787 48.3985 32.176 49.0651 32.176C49.5078 32.176 49.8998 32.0907 50.2411 31.92C50.5825 31.744 50.8491 31.4747 51.0411 31.112C51.2385 30.744 51.3371 30.2693 51.3371 29.688V22.432H53.6971V29.592ZM65.4433 22.432L61.4193 29.136V34H59.0833V29.128L55.0673 22.432H57.5953L60.2593 27.12L62.8913 22.432H65.4433ZM77.8748 22.432H80.2108V34H78.1068L72.6108 26.04V34H70.2828V22.432H72.5948L77.8748 30.088V22.432ZM87.7984 34.16C86.705 34.16 85.7584 33.9227 84.9584 33.448C84.1637 32.968 83.5477 32.288 83.1104 31.408C82.6784 30.5227 82.4624 29.4667 82.4624 28.24C82.4624 27.008 82.681 25.9467 83.1184 25.056C83.561 24.1653 84.1824 23.48 84.9824 23C85.7824 22.5147 86.721 22.272 87.7984 22.272C88.8704 22.272 89.8037 22.512 90.5984 22.992C91.393 23.472 92.0064 24.1573 92.4384 25.048C92.8757 25.9387 93.0944 27.0027 93.0944 28.24C93.0944 29.4613 92.8784 30.5147 92.4464 31.4C92.0197 32.2853 91.409 32.968 90.6144 33.448C89.8197 33.9227 88.881 34.16 87.7984 34.16ZM87.7984 32.24C88.3637 32.24 88.8517 32.1067 89.2624 31.84C89.6784 31.568 89.9984 31.1413 90.2224 30.56C90.4464 29.9733 90.5584 29.2107 90.5584 28.272C90.5584 27.3067 90.4437 26.5253 90.2144 25.928C89.9904 25.3307 89.6704 24.8933 89.2544 24.616C88.8437 24.3333 88.3584 24.192 87.7984 24.192C87.2384 24.192 86.7504 24.3333 86.3344 24.616C85.9184 24.8933 85.5957 25.3333 85.3664 25.936C85.137 26.5333 85.0224 27.312 85.0224 28.272C85.0224 29.216 85.137 29.9787 85.3664 30.56C85.5957 31.1413 85.9184 31.568 86.3344 31.84C86.7504 32.1067 87.2384 32.24 87.7984 32.24ZM108.922 22.432L105.506 34H103.642L101.466 26.44L99.2741 34H97.4421L94.0341 22.432H96.3221L98.4741 30.072L100.626 22.432H102.314L104.49 30.072L106.642 22.432H108.922Z" fill="#FA8232"/>
</svg>
