<svg width="360" height="80" viewBox="0 0 360 80" fill="none" xmlns="http://www.w3.org/2000/svg">
<line y1="9.5" x2="360" y2="9.5" stroke="#E4E7E9"/>
<rect width="140" height="20" transform="translate(108)" fill="white"/>
<path d="M117.337 4.878C117.37 4.878 117.468 4.88033 117.631 4.885C117.799 4.885 118.002 4.885 118.24 4.885C118.478 4.88033 118.725 4.88033 118.982 4.885C119.239 4.885 119.474 4.88733 119.689 4.892C120.93 4.91067 121.936 5.11367 122.706 5.501C123.481 5.88367 124.048 6.44133 124.407 7.174C124.771 7.90667 124.953 8.80733 124.953 9.876C124.953 10.996 124.757 11.9363 124.365 12.697C123.978 13.4577 123.385 14.0317 122.587 14.419C121.794 14.8063 120.783 15 119.556 15H117.337V4.878ZM118.667 5.991V13.887H119.556C120.391 13.887 121.11 13.7587 121.712 13.502C122.314 13.2407 122.776 12.8183 123.098 12.235C123.425 11.6517 123.588 10.8723 123.588 9.897C123.588 8.92167 123.429 8.14933 123.112 7.58C122.799 7.01067 122.347 6.60467 121.754 6.362C121.161 6.11467 120.447 5.991 119.612 5.991H118.667ZM129.655 15.14C128.988 15.14 128.404 14.9977 127.905 14.713C127.406 14.4237 127.018 14.0013 126.743 13.446C126.468 12.8907 126.33 12.2117 126.33 11.409C126.33 10.653 126.458 9.99033 126.715 9.421C126.972 8.85167 127.347 8.41067 127.842 8.098C128.341 7.78067 128.946 7.622 129.655 7.622C130.322 7.622 130.901 7.769 131.391 8.063C131.886 8.35233 132.268 8.77933 132.539 9.344C132.81 9.90867 132.945 10.597 132.945 11.409C132.945 12.1463 132.819 12.795 132.567 13.355C132.32 13.915 131.951 14.3537 131.461 14.671C130.976 14.9837 130.374 15.14 129.655 15.14ZM129.655 14.118C130.089 14.118 130.455 14.0083 130.754 13.789C131.053 13.5697 131.279 13.2547 131.433 12.844C131.587 12.4333 131.664 11.9457 131.664 11.381C131.664 10.863 131.596 10.3987 131.461 9.988C131.326 9.57267 131.109 9.24367 130.81 9.001C130.516 8.75833 130.131 8.637 129.655 8.637C129.216 8.637 128.845 8.74667 128.542 8.966C128.239 9.18067 128.008 9.49333 127.849 9.904C127.695 10.3147 127.618 10.807 127.618 11.381C127.618 11.8897 127.688 12.3517 127.828 12.767C127.968 13.1823 128.187 13.5113 128.486 13.754C128.785 13.9967 129.174 14.118 129.655 14.118ZM134.639 15V7.762H135.892V8.812C136.009 8.61133 136.17 8.42233 136.375 8.245C136.585 8.06767 136.837 7.92533 137.131 7.818C137.43 7.71067 137.773 7.657 138.16 7.657C138.618 7.657 139.038 7.748 139.42 7.93C139.808 8.112 140.116 8.39667 140.344 8.784C140.578 9.16667 140.694 9.66133 140.694 10.268V15H139.399V10.394C139.399 9.82933 139.25 9.41167 138.951 9.141C138.657 8.86567 138.275 8.728 137.803 8.728C137.477 8.728 137.171 8.78167 136.886 8.889C136.602 8.99167 136.371 9.15033 136.193 9.365C136.016 9.575 135.927 9.841 135.927 10.163V15H134.639ZM141.966 8.182L142.743 6.446L142.141 6.411V4.878H143.758V6.222L142.568 8.182H141.966ZM149.35 8.707H147.719V13.208C147.719 13.4647 147.745 13.6537 147.796 13.775C147.852 13.8917 147.943 13.9663 148.069 13.999C148.2 14.0317 148.377 14.048 148.601 14.048H149.392V14.916C149.303 14.9487 149.168 14.9767 148.986 15C148.809 15.0233 148.587 15.035 148.321 15.035C147.822 15.035 147.434 14.9673 147.159 14.832C146.884 14.6967 146.69 14.496 146.578 14.23C146.471 13.964 146.417 13.6373 146.417 13.25V8.707H145.241V7.762H146.452L146.767 5.655H147.719V7.755H149.35V8.707ZM154.436 15V4.598H155.696V8.826C155.818 8.62533 155.981 8.43867 156.186 8.266C156.392 8.08867 156.641 7.94633 156.935 7.839C157.229 7.727 157.57 7.671 157.957 7.671C158.429 7.671 158.856 7.75967 159.238 7.937C159.621 8.10967 159.924 8.357 160.148 8.679C160.372 9.001 160.484 9.38367 160.484 9.827V15H159.189V10.086C159.189 9.652 159.04 9.31833 158.741 9.085C158.447 8.847 158.062 8.728 157.586 8.728C157.264 8.728 156.961 8.78167 156.676 8.889C156.392 8.99167 156.161 9.15033 155.983 9.365C155.811 9.575 155.724 9.84333 155.724 10.17V15H154.436ZM164.477 15.14C164.011 15.14 163.598 15.0583 163.238 14.895C162.879 14.727 162.597 14.4867 162.391 14.174C162.191 13.8613 162.09 13.4833 162.09 13.04C162.09 12.2373 162.37 11.64 162.93 11.248C163.49 10.856 164.389 10.646 165.625 10.618L166.92 10.583V10.016C166.92 9.57267 166.787 9.22267 166.521 8.966C166.255 8.70467 165.842 8.574 165.282 8.574C164.867 8.57867 164.501 8.67667 164.183 8.868C163.871 9.05933 163.668 9.372 163.574 9.806H162.433C162.461 9.33467 162.594 8.938 162.832 8.616C163.07 8.28933 163.402 8.042 163.826 7.874C164.256 7.706 164.762 7.622 165.345 7.622C165.975 7.622 166.498 7.71067 166.913 7.888C167.333 8.06533 167.646 8.32667 167.851 8.672C168.061 9.01733 168.166 9.442 168.166 9.946V15H167.06L166.969 13.642C166.689 14.2067 166.332 14.5987 165.898 14.818C165.469 15.0327 164.995 15.14 164.477 15.14ZM164.869 14.209C165.112 14.209 165.352 14.1647 165.59 14.076C165.833 13.9873 166.055 13.8683 166.255 13.719C166.456 13.565 166.615 13.3947 166.731 13.208C166.853 13.0167 166.916 12.8207 166.92 12.62V11.381L165.842 11.402C165.292 11.4113 164.83 11.4673 164.456 11.57C164.088 11.6727 163.81 11.8337 163.623 12.053C163.441 12.2723 163.35 12.5593 163.35 12.914C163.35 13.32 163.49 13.6373 163.77 13.866C164.055 14.0947 164.421 14.209 164.869 14.209ZM175.801 7.762L173.19 15H172.014L169.396 7.762H170.614L172.539 13.376H172.658L174.59 7.762H175.801ZM177.85 11.682C177.85 12.1393 177.925 12.5547 178.074 12.928C178.228 13.2967 178.459 13.5907 178.767 13.81C179.08 14.0293 179.47 14.139 179.936 14.139C180.398 14.139 180.795 14.0317 181.126 13.817C181.462 13.6023 181.677 13.292 181.77 12.886H182.995C182.907 13.376 182.711 13.789 182.407 14.125C182.104 14.461 181.738 14.7153 181.308 14.888C180.879 15.056 180.431 15.14 179.964 15.14C179.288 15.14 178.693 14.993 178.179 14.699C177.666 14.405 177.265 13.9827 176.975 13.432C176.686 12.8813 176.541 12.221 176.541 11.451C176.541 10.6903 176.672 10.023 176.933 9.449C177.195 8.875 177.573 8.427 178.067 8.105C178.567 7.783 179.166 7.622 179.866 7.622C180.548 7.622 181.124 7.769 181.595 8.063C182.067 8.357 182.424 8.77233 182.666 9.309C182.914 9.841 183.037 10.4733 183.037 11.206V11.682H177.85ZM177.857 10.807H181.791C181.791 10.3917 181.721 10.0183 181.581 9.687C181.441 9.351 181.227 9.08733 180.937 8.896C180.653 8.7 180.293 8.602 179.859 8.602C179.407 8.602 179.031 8.71167 178.732 8.931C178.438 9.14567 178.217 9.42333 178.067 9.764C177.923 10.1 177.853 10.4477 177.857 10.807ZM189.962 15.14C189.495 15.14 189.082 15.0583 188.723 14.895C188.363 14.727 188.081 14.4867 187.876 14.174C187.675 13.8613 187.575 13.4833 187.575 13.04C187.575 12.2373 187.855 11.64 188.415 11.248C188.975 10.856 189.873 10.646 191.11 10.618L192.405 10.583V10.016C192.405 9.57267 192.272 9.22267 192.006 8.966C191.74 8.70467 191.327 8.574 190.767 8.574C190.351 8.57867 189.985 8.67667 189.668 8.868C189.355 9.05933 189.152 9.372 189.059 9.806H187.918C187.946 9.33467 188.079 8.938 188.317 8.616C188.555 8.28933 188.886 8.042 189.311 7.874C189.74 7.706 190.246 7.622 190.83 7.622C191.46 7.622 191.982 7.71067 192.398 7.888C192.818 8.06533 193.13 8.32667 193.336 8.672C193.546 9.01733 193.651 9.442 193.651 9.946V15H192.545L192.454 13.642C192.174 14.2067 191.817 14.5987 191.383 14.818C190.953 15.0327 190.48 15.14 189.962 15.14ZM190.354 14.209C190.596 14.209 190.837 14.1647 191.075 14.076C191.317 13.9873 191.539 13.8683 191.74 13.719C191.94 13.565 192.099 13.3947 192.216 13.208C192.337 13.0167 192.4 12.8207 192.405 12.62V11.381L191.327 11.402C190.776 11.4113 190.314 11.4673 189.941 11.57C189.572 11.6727 189.294 11.8337 189.108 12.053C188.926 12.2723 188.835 12.5593 188.835 12.914C188.835 13.32 188.975 13.6373 189.255 13.866C189.539 14.0947 189.906 14.209 190.354 14.209ZM198.746 7.622C199.264 7.622 199.731 7.72233 200.146 7.923C200.561 8.119 200.9 8.399 201.161 8.763C201.427 9.127 201.593 9.55633 201.658 10.051H200.51C200.468 9.799 200.37 9.568 200.216 9.358C200.067 9.148 199.868 8.98 199.621 8.854C199.374 8.728 199.084 8.665 198.753 8.665C198.132 8.665 197.628 8.889 197.241 9.337C196.854 9.785 196.66 10.471 196.66 11.395C196.66 12.2303 196.837 12.9 197.192 13.404C197.551 13.9033 198.079 14.153 198.774 14.153C199.105 14.153 199.392 14.09 199.635 13.964C199.882 13.8333 200.081 13.663 200.23 13.453C200.379 13.2383 200.475 13.0097 200.517 12.767H201.644C201.583 13.2523 201.42 13.6723 201.154 14.027C200.888 14.3817 200.547 14.657 200.132 14.853C199.721 15.0443 199.259 15.14 198.746 15.14C198.097 15.14 197.521 14.9977 197.017 14.713C196.518 14.4283 196.126 14.0083 195.841 13.453C195.556 12.8977 195.414 12.2163 195.414 11.409C195.414 10.653 195.542 9.99267 195.799 9.428C196.06 8.85867 196.438 8.41533 196.933 8.098C197.432 7.78067 198.037 7.622 198.746 7.622ZM206.293 7.622C206.811 7.622 207.278 7.72233 207.693 7.923C208.108 8.119 208.447 8.399 208.708 8.763C208.974 9.127 209.14 9.55633 209.205 10.051H208.057C208.015 9.799 207.917 9.568 207.763 9.358C207.614 9.148 207.415 8.98 207.168 8.854C206.921 8.728 206.631 8.665 206.3 8.665C205.679 8.665 205.175 8.889 204.788 9.337C204.401 9.785 204.207 10.471 204.207 11.395C204.207 12.2303 204.384 12.9 204.739 13.404C205.098 13.9033 205.626 14.153 206.321 14.153C206.652 14.153 206.939 14.09 207.182 13.964C207.429 13.8333 207.628 13.663 207.777 13.453C207.926 13.2383 208.022 13.0097 208.064 12.767H209.191C209.13 13.2523 208.967 13.6723 208.701 14.027C208.435 14.3817 208.094 14.657 207.679 14.853C207.268 15.0443 206.806 15.14 206.293 15.14C205.644 15.14 205.068 14.9977 204.564 14.713C204.065 14.4283 203.673 14.0083 203.388 13.453C203.103 12.8977 202.961 12.2163 202.961 11.409C202.961 10.653 203.089 9.99267 203.346 9.428C203.607 8.85867 203.985 8.41533 204.48 8.098C204.979 7.78067 205.584 7.622 206.293 7.622ZM213.833 15.14C213.165 15.14 212.582 14.9977 212.083 14.713C211.583 14.4237 211.196 14.0013 210.921 13.446C210.645 12.8907 210.508 12.2117 210.508 11.409C210.508 10.653 210.636 9.99033 210.893 9.421C211.149 8.85167 211.525 8.41067 212.02 8.098C212.519 7.78067 213.123 7.622 213.833 7.622C214.5 7.622 215.079 7.769 215.569 8.063C216.063 8.35233 216.446 8.77933 216.717 9.344C216.987 9.90867 217.123 10.597 217.123 11.409C217.123 12.1463 216.997 12.795 216.745 13.355C216.497 13.915 216.129 14.3537 215.639 14.671C215.153 14.9837 214.551 15.14 213.833 15.14ZM213.833 14.118C214.267 14.118 214.633 14.0083 214.932 13.789C215.23 13.5697 215.457 13.2547 215.611 12.844C215.765 12.4333 215.842 11.9457 215.842 11.381C215.842 10.863 215.774 10.3987 215.639 9.988C215.503 9.57267 215.286 9.24367 214.988 9.001C214.694 8.75833 214.309 8.637 213.833 8.637C213.394 8.637 213.023 8.74667 212.72 8.966C212.416 9.18067 212.185 9.49333 212.027 9.904C211.873 10.3147 211.796 10.807 211.796 11.381C211.796 11.8897 211.866 12.3517 212.006 12.767C212.146 13.1823 212.365 13.5113 212.664 13.754C212.962 13.9967 213.352 14.118 213.833 14.118ZM221.368 15.14C220.99 15.1353 220.633 15.0817 220.297 14.979C219.965 14.8717 219.671 14.7153 219.415 14.51C219.158 14.3047 218.955 14.0503 218.806 13.747C218.661 13.439 218.589 13.082 218.589 12.676V7.762H219.884V12.543C219.884 13.0143 220.028 13.397 220.318 13.691C220.612 13.985 221.053 14.132 221.641 14.132C222.173 14.132 222.6 13.9943 222.922 13.719C223.248 13.439 223.412 13.0237 223.412 12.473V7.762H224.7V15H223.671L223.538 13.614C223.449 13.978 223.297 14.272 223.083 14.496C222.873 14.72 222.618 14.8857 222.32 14.993C222.026 15.0957 221.708 15.1447 221.368 15.14ZM226.801 15V7.762H228.054V8.812C228.171 8.61133 228.332 8.42233 228.537 8.245C228.747 8.06767 228.999 7.92533 229.293 7.818C229.592 7.71067 229.935 7.657 230.322 7.657C230.78 7.657 231.2 7.748 231.582 7.93C231.97 8.112 232.278 8.39667 232.506 8.784C232.74 9.16667 232.856 9.66133 232.856 10.268V15H231.561V10.394C231.561 9.82933 231.412 9.41167 231.113 9.141C230.819 8.86567 230.437 8.728 229.965 8.728C229.639 8.728 229.333 8.78167 229.048 8.889C228.764 8.99167 228.533 9.15033 228.355 9.365C228.178 9.575 228.089 9.841 228.089 10.163V15H226.801ZM238.217 8.707H236.586V13.208C236.586 13.4647 236.612 13.6537 236.663 13.775C236.719 13.8917 236.81 13.9663 236.936 13.999C237.067 14.0317 237.244 14.048 237.468 14.048H238.259V14.916C238.17 14.9487 238.035 14.9767 237.853 15C237.676 15.0233 237.454 15.035 237.188 15.035C236.689 15.035 236.301 14.9673 236.026 14.832C235.751 14.6967 235.557 14.496 235.445 14.23C235.338 13.964 235.284 13.6373 235.284 13.25V8.707H234.108V7.762H235.319L235.634 5.655H236.586V7.755H238.217V8.707Z" fill="#77878F"/>
<rect x="1" y="33" width="358" height="46" rx="1" stroke="#FFE7D6" stroke-width="2"/>
<path d="M119.757 50.738C120.518 50.738 121.194 50.892 121.787 51.2C122.384 51.5033 122.865 51.9187 123.229 52.446C123.598 52.9733 123.815 53.5683 123.88 54.231H121.738C121.673 53.881 121.554 53.5707 121.381 53.3C121.208 53.0247 120.982 52.81 120.702 52.656C120.422 52.4973 120.086 52.418 119.694 52.418C119.223 52.418 118.817 52.5323 118.476 52.761C118.135 52.9897 117.874 53.3583 117.692 53.867C117.51 54.3757 117.419 55.0477 117.419 55.883C117.419 57.143 117.62 58.0553 118.021 58.62C118.427 59.18 118.985 59.46 119.694 59.46C120.086 59.46 120.422 59.3713 120.702 59.194C120.982 59.012 121.208 58.774 121.381 58.48C121.554 58.1813 121.673 57.8547 121.738 57.5H123.88C123.819 57.9807 123.703 58.4403 123.53 58.879C123.357 59.313 123.112 59.7003 122.795 60.041C122.478 60.3817 122.069 60.65 121.57 60.846C121.071 61.042 120.466 61.14 119.757 61.14C118.814 61.14 118 60.9207 117.314 60.482C116.628 60.0433 116.098 59.4273 115.725 58.634C115.356 57.8407 115.172 56.9143 115.172 55.855C115.172 54.791 115.356 53.8787 115.725 53.118C116.094 52.3527 116.621 51.7647 117.307 51.354C117.993 50.9433 118.81 50.738 119.757 50.738ZM133.705 61H131.584L129.939 57.101H127.888V61H125.851V50.878H130.121C130.928 50.878 131.588 51.0063 132.102 51.263C132.615 51.5197 132.993 51.8767 133.236 52.334C133.478 52.7867 133.6 53.3093 133.6 53.902C133.6 54.434 133.516 54.8843 133.348 55.253C133.184 55.617 132.967 55.9203 132.697 56.163C132.431 56.4057 132.139 56.604 131.822 56.758L133.705 61ZM129.757 55.526C130.303 55.526 130.734 55.379 131.052 55.085C131.374 54.791 131.535 54.413 131.535 53.951C131.535 53.4843 131.381 53.1157 131.073 52.845C130.765 52.5743 130.375 52.439 129.904 52.439H127.888V55.526H129.757ZM135.767 61V50.878H142.718L142.711 52.6H137.818V55.057H142.067V56.744H137.804V59.257L142.788 59.264V61H135.767ZM144.114 61L147.74 50.878H149.896L153.515 61H151.478L150.652 58.655H147.012L146.165 61H144.114ZM147.467 56.87H150.162L148.825 52.852L147.467 56.87ZM153.514 52.698V50.878H161.613V52.698H158.624V61H156.573V52.698H153.514ZM163.177 61V50.878H170.128L170.121 52.6H165.228V55.057H169.477V56.744H165.214V59.257L170.198 59.264V61H163.177ZM174.618 61L178.244 50.878H180.4L184.019 61H181.982L181.156 58.655H177.516L176.669 61H174.618ZM177.971 56.87H180.666L179.329 52.852L177.971 56.87ZM189.337 50.738C190.098 50.738 190.775 50.892 191.367 51.2C191.965 51.5033 192.445 51.9187 192.809 52.446C193.178 52.9733 193.395 53.5683 193.46 54.231H191.318C191.253 53.881 191.134 53.5707 190.961 53.3C190.789 53.0247 190.562 52.81 190.282 52.656C190.002 52.4973 189.666 52.418 189.274 52.418C188.803 52.418 188.397 52.5323 188.056 52.761C187.716 52.9897 187.454 53.3583 187.272 53.867C187.09 54.3757 186.999 55.0477 186.999 55.883C186.999 57.143 187.2 58.0553 187.601 58.62C188.007 59.18 188.565 59.46 189.274 59.46C189.666 59.46 190.002 59.3713 190.282 59.194C190.562 59.012 190.789 58.774 190.961 58.48C191.134 58.1813 191.253 57.8547 191.318 57.5H193.46C193.4 57.9807 193.283 58.4403 193.11 58.879C192.938 59.313 192.693 59.7003 192.375 60.041C192.058 60.3817 191.65 60.65 191.15 60.846C190.651 61.042 190.047 61.14 189.337 61.14C188.395 61.14 187.58 60.9207 186.894 60.482C186.208 60.0433 185.679 59.4273 185.305 58.634C184.937 57.8407 184.752 56.9143 184.752 55.855C184.752 54.791 184.937 53.8787 185.305 53.118C185.674 52.3527 186.201 51.7647 186.887 51.354C187.573 50.9433 188.39 50.738 189.337 50.738ZM199.554 50.738C200.315 50.738 200.991 50.892 201.584 51.2C202.181 51.5033 202.662 51.9187 203.026 52.446C203.395 52.9733 203.612 53.5683 203.677 54.231H201.535C201.47 53.881 201.351 53.5707 201.178 53.3C201.005 53.0247 200.779 52.81 200.499 52.656C200.219 52.4973 199.883 52.418 199.491 52.418C199.02 52.418 198.614 52.5323 198.273 52.761C197.932 52.9897 197.671 53.3583 197.489 53.867C197.307 54.3757 197.216 55.0477 197.216 55.883C197.216 57.143 197.417 58.0553 197.818 58.62C198.224 59.18 198.782 59.46 199.491 59.46C199.883 59.46 200.219 59.3713 200.499 59.194C200.779 59.012 201.005 58.774 201.178 58.48C201.351 58.1813 201.47 57.8547 201.535 57.5H203.677C203.616 57.9807 203.5 58.4403 203.327 58.879C203.154 59.313 202.909 59.7003 202.592 60.041C202.275 60.3817 201.866 60.65 201.367 60.846C200.868 61.042 200.263 61.14 199.554 61.14C198.611 61.14 197.797 60.9207 197.111 60.482C196.425 60.0433 195.895 59.4273 195.522 58.634C195.153 57.8407 194.969 56.9143 194.969 55.855C194.969 54.791 195.153 53.8787 195.522 53.118C195.891 52.3527 196.418 51.7647 197.104 51.354C197.79 50.9433 198.607 50.738 199.554 50.738ZM209.855 61.14C208.898 61.14 208.07 60.9323 207.37 60.517C206.675 60.097 206.136 59.502 205.753 58.732C205.375 57.9573 205.186 57.0333 205.186 55.96C205.186 54.882 205.377 53.9533 205.76 53.174C206.147 52.3947 206.691 51.795 207.391 51.375C208.091 50.9503 208.912 50.738 209.855 50.738C210.793 50.738 211.61 50.948 212.305 51.368C213 51.788 213.537 52.3877 213.915 53.167C214.298 53.9463 214.489 54.8773 214.489 55.96C214.489 57.0287 214.3 57.9503 213.922 58.725C213.549 59.4997 213.014 60.097 212.319 60.517C211.624 60.9323 210.802 61.14 209.855 61.14ZM209.855 59.46C210.35 59.46 210.777 59.3433 211.136 59.11C211.5 58.872 211.78 58.4987 211.976 57.99C212.172 57.4767 212.27 56.8093 212.27 55.988C212.27 55.1433 212.17 54.4597 211.969 53.937C211.773 53.4143 211.493 53.0317 211.129 52.789C210.77 52.5417 210.345 52.418 209.855 52.418C209.365 52.418 208.938 52.5417 208.574 52.789C208.21 53.0317 207.928 53.4167 207.727 53.944C207.526 54.4667 207.426 55.148 207.426 55.988C207.426 56.814 207.526 57.4813 207.727 57.99C207.928 58.4987 208.21 58.872 208.574 59.11C208.938 59.3433 209.365 59.46 209.855 59.46ZM224.442 57.143C224.442 57.9597 224.309 58.669 224.043 59.271C223.777 59.8683 223.346 60.3303 222.748 60.657C222.156 60.979 221.369 61.14 220.389 61.14C219.405 61.14 218.616 60.9767 218.023 60.65C217.431 60.3187 217.001 59.8497 216.735 59.243C216.474 58.6363 216.343 57.913 216.343 57.073V50.878H218.422V57.227C218.422 57.983 218.604 58.536 218.968 58.886C219.332 59.2313 219.806 59.404 220.389 59.404C220.777 59.404 221.12 59.3293 221.418 59.18C221.717 59.026 221.95 58.7903 222.118 58.473C222.291 58.151 222.377 57.7357 222.377 57.227V50.878H224.442V57.143ZM233.285 50.878H235.329V61H233.488L228.679 54.035V61H226.642V50.878H228.665L233.285 57.577V50.878ZM236.893 52.698V50.878H244.992V52.698H242.003V61H239.952V52.698H236.893Z" fill="#FA8232"/>
</svg>
