<svg width="376" height="56" viewBox="0 0 376 56" fill="none" xmlns="http://www.w3.org/2000/svg">
<rect width="376" height="56" rx="3" fill="#FA8232"/>
<path d="M71.296 34V22.432H75.552C76.3947 22.432 77.1493 22.5787 77.816 22.872C78.4827 23.16 79.008 23.5867 79.392 24.152C79.7813 24.7173 79.976 25.408 79.976 26.224C79.976 26.992 79.8053 27.648 79.464 28.192C79.1227 28.736 78.6427 29.152 78.024 29.44C77.4107 29.728 76.688 29.872 75.856 29.872H73.648V34H71.296ZM73.624 28.064H75.792C76.3787 28.064 76.8587 27.8773 77.232 27.504C77.6053 27.1253 77.792 26.6587 77.792 26.104C77.792 25.528 77.5947 25.072 77.2 24.736C76.8053 24.3947 76.3253 24.224 75.76 24.224H73.624V28.064ZM90.9015 34H88.4775L86.5975 29.544H84.2535V34H81.9255V22.432H86.8055C87.7282 22.432 88.4828 22.5787 89.0695 22.872C89.6562 23.1653 90.0882 23.5733 90.3655 24.096C90.6428 24.6133 90.7815 25.2107 90.7815 25.888C90.7815 26.496 90.6855 27.0107 90.4935 27.432C90.3068 27.848 90.0588 28.1947 89.7495 28.472C89.4455 28.7493 89.1122 28.976 88.7495 29.152L90.9015 34ZM86.3895 27.744C87.0135 27.744 87.5068 27.576 87.8695 27.24C88.2375 26.904 88.4215 26.472 88.4215 25.944C88.4215 25.4107 88.2455 24.9893 87.8935 24.68C87.5415 24.3707 87.0962 24.216 86.5575 24.216H84.2535V27.744H86.3895ZM97.8161 34.16C96.7228 34.16 95.7761 33.9227 94.9761 33.448C94.1815 32.968 93.5655 32.288 93.1281 31.408C92.6961 30.5227 92.4801 29.4667 92.4801 28.24C92.4801 27.008 92.6988 25.9467 93.1361 25.056C93.5788 24.1653 94.2001 23.48 95.0001 23C95.8001 22.5147 96.7388 22.272 97.8161 22.272C98.8881 22.272 99.8215 22.512 100.616 22.992C101.411 23.472 102.024 24.1573 102.456 25.048C102.893 25.9387 103.112 27.0027 103.112 28.24C103.112 29.4613 102.896 30.5147 102.464 31.4C102.037 32.2853 101.427 32.968 100.632 33.448C99.8375 33.9227 98.8988 34.16 97.8161 34.16ZM97.8161 32.24C98.3815 32.24 98.8695 32.1067 99.2801 31.84C99.6961 31.568 100.016 31.1413 100.24 30.56C100.464 29.9733 100.576 29.2107 100.576 28.272C100.576 27.3067 100.461 26.5253 100.232 25.928C100.008 25.3307 99.6881 24.8933 99.2721 24.616C98.8615 24.3333 98.3761 24.192 97.8161 24.192C97.2561 24.192 96.7681 24.3333 96.3521 24.616C95.9361 24.8933 95.6135 25.3333 95.3841 25.936C95.1548 26.5333 95.0401 27.312 95.0401 28.272C95.0401 29.216 95.1548 29.9787 95.3841 30.56C95.6135 31.1413 95.9361 31.568 96.3521 31.84C96.7681 32.1067 97.2561 32.24 97.8161 32.24ZM109.975 22.272C110.844 22.272 111.617 22.448 112.295 22.8C112.977 23.1467 113.527 23.6213 113.943 24.224C114.364 24.8267 114.612 25.5067 114.687 26.264H112.239C112.164 25.864 112.028 25.5093 111.831 25.2C111.633 24.8853 111.375 24.64 111.055 24.464C110.735 24.2827 110.351 24.192 109.903 24.192C109.364 24.192 108.9 24.3227 108.511 24.584C108.121 24.8453 107.823 25.2667 107.615 25.848C107.407 26.4293 107.303 27.1973 107.303 28.152C107.303 29.592 107.532 30.6347 107.991 31.28C108.455 31.92 109.092 32.24 109.903 32.24C110.351 32.24 110.735 32.1387 111.055 31.936C111.375 31.728 111.633 31.456 111.831 31.12C112.028 30.7787 112.164 30.4053 112.239 30H114.687C114.617 30.5493 114.484 31.0747 114.287 31.576C114.089 32.072 113.809 32.5147 113.447 32.904C113.084 33.2933 112.617 33.6 112.047 33.824C111.476 34.048 110.785 34.16 109.975 34.16C108.897 34.16 107.967 33.9093 107.183 33.408C106.399 32.9067 105.793 32.2027 105.367 31.296C104.945 30.3893 104.735 29.3307 104.735 28.12C104.735 26.904 104.945 25.8613 105.367 24.992C105.788 24.1173 106.391 23.4453 107.175 22.976C107.959 22.5067 108.892 22.272 109.975 22.272ZM116.939 34V22.432H124.883L124.875 24.4H119.283V27.208H124.139V29.136H119.267V32.008L124.963 32.016V34H116.939ZM127.381 34V22.432H135.325L135.317 24.4H129.725V27.208H134.581V29.136H129.709V32.008L135.405 32.016V34H127.381ZM137.823 22.432C137.882 22.432 138.044 22.432 138.311 22.432C138.583 22.432 138.9 22.432 139.263 22.432C139.631 22.432 139.996 22.4347 140.359 22.44C140.727 22.44 141.034 22.4427 141.279 22.448C142.682 22.48 143.826 22.7307 144.711 23.2C145.596 23.6693 146.244 24.3253 146.655 25.168C147.071 26.0107 147.279 27.008 147.279 28.16C147.279 29.36 147.06 30.3973 146.623 31.272C146.186 32.1413 145.516 32.8133 144.615 33.288C143.719 33.7627 142.58 34 141.199 34H137.823V22.432ZM140.175 24.32V32.112H141.247C141.908 32.112 142.508 31.984 143.047 31.728C143.591 31.472 144.026 31.0533 144.351 30.472C144.676 29.8907 144.839 29.1147 144.839 28.144C144.839 27.2427 144.695 26.512 144.407 25.952C144.119 25.3867 143.708 24.9733 143.175 24.712C142.642 24.4507 142.01 24.32 141.279 24.32H140.175ZM152.121 24.512V22.432H161.377V24.512H157.961V34H155.617V24.512H152.121ZM167.926 34.16C166.832 34.16 165.886 33.9227 165.086 33.448C164.291 32.968 163.675 32.288 163.238 31.408C162.806 30.5227 162.59 29.4667 162.59 28.24C162.59 27.008 162.808 25.9467 163.246 25.056C163.688 24.1653 164.31 23.48 165.11 23C165.91 22.5147 166.848 22.272 167.926 22.272C168.998 22.272 169.931 22.512 170.726 22.992C171.52 23.472 172.134 24.1573 172.566 25.048C173.003 25.9387 173.222 27.0027 173.222 28.24C173.222 29.4613 173.006 30.5147 172.574 31.4C172.147 32.2853 171.536 32.968 170.742 33.448C169.947 33.9227 169.008 34.16 167.926 34.16ZM167.926 32.24C168.491 32.24 168.979 32.1067 169.39 31.84C169.806 31.568 170.126 31.1413 170.35 30.56C170.574 29.9733 170.686 29.2107 170.686 28.272C170.686 27.3067 170.571 26.5253 170.342 25.928C170.118 25.3307 169.798 24.8933 169.382 24.616C168.971 24.3333 168.486 24.192 167.926 24.192C167.366 24.192 166.878 24.3333 166.462 24.616C166.046 24.8933 165.723 25.3333 165.494 25.936C165.264 26.5333 165.15 27.312 165.15 28.272C165.15 29.216 165.264 29.9787 165.494 30.56C165.723 31.1413 166.046 31.568 166.462 31.84C166.878 32.1067 167.366 32.24 167.926 32.24ZM183.776 22.272C184.646 22.272 185.419 22.448 186.096 22.8C186.779 23.1467 187.328 23.6213 187.744 24.224C188.166 24.8267 188.414 25.5067 188.488 26.264H186.04C185.966 25.864 185.83 25.5093 185.632 25.2C185.435 24.8853 185.176 24.64 184.856 24.464C184.536 24.2827 184.152 24.192 183.704 24.192C183.166 24.192 182.702 24.3227 182.312 24.584C181.923 24.8453 181.624 25.2667 181.416 25.848C181.208 26.4293 181.104 27.1973 181.104 28.152C181.104 29.592 181.334 30.6347 181.792 31.28C182.256 31.92 182.894 32.24 183.704 32.24C184.152 32.24 184.536 32.1387 184.856 31.936C185.176 31.728 185.435 31.456 185.632 31.12C185.83 30.7787 185.966 30.4053 186.04 30H188.488C188.419 30.5493 188.286 31.0747 188.088 31.576C187.891 32.072 187.611 32.5147 187.248 32.904C186.886 33.2933 186.419 33.6 185.848 33.824C185.278 34.048 184.587 34.16 183.776 34.16C182.699 34.16 181.768 33.9093 180.984 33.408C180.2 32.9067 179.595 32.2027 179.168 31.296C178.747 30.3893 178.536 29.3307 178.536 28.12C178.536 26.904 178.747 25.8613 179.168 24.992C179.59 24.1173 180.192 23.4453 180.976 22.976C181.76 22.5067 182.694 22.272 183.776 22.272ZM198.133 29.032H193.069V34H190.741V22.432H193.069V27.072H198.133V22.432H200.469V34H198.133V29.032ZM203.245 34V22.432H211.189L211.181 24.4H205.589V27.208H210.445V29.136H205.573V32.008L211.269 32.016V34H203.245ZM218.243 22.272C219.112 22.272 219.886 22.448 220.563 22.8C221.246 23.1467 221.795 23.6213 222.211 24.224C222.632 24.8267 222.88 25.5067 222.955 26.264H220.507C220.432 25.864 220.296 25.5093 220.099 25.2C219.902 24.8853 219.643 24.64 219.323 24.464C219.003 24.2827 218.619 24.192 218.171 24.192C217.632 24.192 217.168 24.3227 216.779 24.584C216.39 24.8453 216.091 25.2667 215.883 25.848C215.675 26.4293 215.571 27.1973 215.571 28.152C215.571 29.592 215.8 30.6347 216.259 31.28C216.723 31.92 217.36 32.24 218.171 32.24C218.619 32.24 219.003 32.1387 219.323 31.936C219.643 31.728 219.902 31.456 220.099 31.12C220.296 30.7787 220.432 30.4053 220.507 30H222.955C222.886 30.5493 222.752 31.0747 222.555 31.576C222.358 32.072 222.078 32.5147 221.715 32.904C221.352 33.2933 220.886 33.6 220.315 33.824C219.744 34.048 219.054 34.16 218.243 34.16C217.166 34.16 216.235 33.9093 215.451 33.408C214.667 32.9067 214.062 32.2027 213.635 31.296C213.214 30.3893 213.003 29.3307 213.003 28.12C213.003 26.904 213.214 25.8613 213.635 24.992C214.056 24.1173 214.659 23.4453 215.443 22.976C216.227 22.5067 217.16 22.272 218.243 22.272ZM234.951 34H232.407L229.343 28.616L227.631 30.68V34H225.207V22.432H227.631V27.728L231.847 22.432H234.527L231.015 26.912L234.951 34ZM241.676 34.16C240.583 34.16 239.636 33.9227 238.836 33.448C238.041 32.968 237.425 32.288 236.988 31.408C236.556 30.5227 236.34 29.4667 236.34 28.24C236.34 27.008 236.559 25.9467 236.996 25.056C237.439 24.1653 238.06 23.48 238.86 23C239.66 22.5147 240.599 22.272 241.676 22.272C242.748 22.272 243.681 22.512 244.476 22.992C245.271 23.472 245.884 24.1573 246.316 25.048C246.753 25.9387 246.972 27.0027 246.972 28.24C246.972 29.4613 246.756 30.5147 246.324 31.4C245.897 32.2853 245.287 32.968 244.492 33.448C243.697 33.9227 242.759 34.16 241.676 34.16ZM241.676 32.24C242.241 32.24 242.729 32.1067 243.14 31.84C243.556 31.568 243.876 31.1413 244.1 30.56C244.324 29.9733 244.436 29.2107 244.436 28.272C244.436 27.3067 244.321 26.5253 244.092 25.928C243.868 25.3307 243.548 24.8933 243.132 24.616C242.721 24.3333 242.236 24.192 241.676 24.192C241.116 24.192 240.628 24.3333 240.212 24.616C239.796 24.8933 239.473 25.3333 239.244 25.936C239.015 26.5333 238.9 27.312 238.9 28.272C238.9 29.216 239.015 29.9787 239.244 30.56C239.473 31.1413 239.796 31.568 240.212 31.84C240.628 32.1067 241.116 32.24 241.676 32.24ZM258.347 29.592C258.347 30.5253 258.195 31.336 257.891 32.024C257.587 32.7067 257.094 33.2347 256.411 33.608C255.734 33.976 254.835 34.16 253.715 34.16C252.59 34.16 251.689 33.9733 251.011 33.6C250.334 33.2213 249.843 32.6853 249.539 31.992C249.241 31.2987 249.091 30.472 249.091 29.512V22.432H251.467V29.688C251.467 30.552 251.675 31.184 252.091 31.584C252.507 31.9787 253.049 32.176 253.715 32.176C254.158 32.176 254.55 32.0907 254.891 31.92C255.233 31.744 255.499 31.4747 255.691 31.112C255.889 30.744 255.987 30.2693 255.987 29.688V22.432H258.347V29.592ZM259.869 24.512V22.432H269.125V24.512H265.709V34H263.365V24.512H259.869Z" fill="white"/>
<path d="M285.75 28H302.25" stroke="white" stroke-width="1.5" stroke-linecap="round" stroke-linejoin="round"/>
<path d="M295.5 21.25L302.25 28L295.5 34.75" stroke="white" stroke-width="1.5" stroke-linecap="round" stroke-linejoin="round"/>
</svg>
