<svg width="191" height="56" viewBox="0 0 191 56" fill="none" xmlns="http://www.w3.org/2000/svg">
<rect width="191" height="56" rx="3" fill="#FA8232"/>
<path d="M37.64 34.16C37.0693 34.16 36.5093 34.088 35.96 33.944C35.4107 33.8 34.9093 33.584 34.456 33.296C34.0027 33.008 33.6267 32.648 33.328 32.216C33.0347 31.784 32.8587 31.2773 32.8 30.696H35.192C35.272 31.048 35.424 31.344 35.648 31.584C35.872 31.824 36.1547 32.008 36.496 32.136C36.8373 32.264 37.216 32.328 37.632 32.328C38.0587 32.328 38.448 32.2747 38.8 32.168C39.152 32.0613 39.4347 31.9013 39.648 31.688C39.8613 31.4693 39.968 31.1973 39.968 30.872C39.968 30.5787 39.88 30.3387 39.704 30.152C39.5333 29.9653 39.3013 29.8133 39.008 29.696C38.7147 29.5787 38.3813 29.4827 38.008 29.408L36.008 29C35.1333 28.8347 34.44 28.488 33.928 27.96C33.416 27.4267 33.152 26.7173 33.136 25.832C33.1307 25.1067 33.3227 24.48 33.712 23.952C34.1067 23.4187 34.64 23.008 35.312 22.72C35.9893 22.432 36.7467 22.288 37.584 22.288C38.5813 22.288 39.4187 22.4453 40.096 22.76C40.7787 23.0693 41.296 23.4907 41.648 24.024C42.0053 24.552 42.1893 25.1413 42.2 25.792H39.856C39.8133 25.3867 39.6907 25.064 39.488 24.824C39.2853 24.584 39.024 24.4107 38.704 24.304C38.3893 24.1973 38.0293 24.144 37.624 24.144C37.3147 24.144 37.032 24.1787 36.776 24.248C36.5253 24.3173 36.312 24.416 36.136 24.544C35.96 24.6667 35.824 24.8133 35.728 24.984C35.632 25.1547 35.584 25.3467 35.584 25.56C35.584 25.896 35.696 26.168 35.92 26.376C36.144 26.584 36.5627 26.7547 37.176 26.888L39.16 27.296C39.8693 27.4347 40.432 27.64 40.848 27.912C41.2693 28.184 41.584 28.4907 41.792 28.832C42.0053 29.1733 42.144 29.5227 42.208 29.88C42.2773 30.232 42.312 30.5573 42.312 30.856C42.312 31.48 42.1147 32.0427 41.72 32.544C41.3307 33.04 40.7867 33.4347 40.088 33.728C39.3893 34.016 38.5733 34.16 37.64 34.16ZM51.9581 29.032H46.8941V34H44.5661V22.432H46.8941V27.072H51.9581V22.432H54.2941V34H51.9581V29.032ZM61.8786 34.16C60.7853 34.16 59.8386 33.9227 59.0386 33.448C58.244 32.968 57.628 32.288 57.1906 31.408C56.7586 30.5227 56.5426 29.4667 56.5426 28.24C56.5426 27.008 56.7613 25.9467 57.1986 25.056C57.6413 24.1653 58.2626 23.48 59.0626 23C59.8626 22.5147 60.8013 22.272 61.8786 22.272C62.9506 22.272 63.884 22.512 64.6786 22.992C65.4733 23.472 66.0866 24.1573 66.5186 25.048C66.956 25.9387 67.1746 27.0027 67.1746 28.24C67.1746 29.4613 66.9586 30.5147 66.5266 31.4C66.1 32.2853 65.4893 32.968 64.6946 33.448C63.9 33.9227 62.9613 34.16 61.8786 34.16ZM61.8786 32.24C62.444 32.24 62.932 32.1067 63.3426 31.84C63.7586 31.568 64.0786 31.1413 64.3026 30.56C64.5266 29.9733 64.6386 29.2107 64.6386 28.272C64.6386 27.3067 64.524 26.5253 64.2946 25.928C64.0706 25.3307 63.7506 24.8933 63.3346 24.616C62.924 24.3333 62.4386 24.192 61.8786 24.192C61.3186 24.192 60.8306 24.3333 60.4146 24.616C59.9986 24.8933 59.676 25.3333 59.4466 25.936C59.2173 26.5333 59.1026 27.312 59.1026 28.272C59.1026 29.216 59.2173 29.9787 59.4466 30.56C59.676 31.1413 59.9986 31.568 60.4146 31.84C60.8306 32.1067 61.3186 32.24 61.8786 32.24ZM69.4345 34V22.432H73.6905C74.5332 22.432 75.2878 22.5787 75.9545 22.872C76.6212 23.16 77.1465 23.5867 77.5305 24.152C77.9198 24.7173 78.1145 25.408 78.1145 26.224C78.1145 26.992 77.9438 27.648 77.6025 28.192C77.2612 28.736 76.7812 29.152 76.1625 29.44C75.5492 29.728 74.8265 29.872 73.9945 29.872H71.7865V34H69.4345ZM71.7625 28.064H73.9305C74.5172 28.064 74.9972 27.8773 75.3705 27.504C75.7438 27.1253 75.9305 26.6587 75.9305 26.104C75.9305 25.528 75.7332 25.072 75.3385 24.736C74.9438 24.3947 74.4638 24.224 73.8985 24.224H71.7625V28.064ZM91.2386 22.432H93.5746V34H91.4706L85.9746 26.04V34H83.6466V22.432H85.9586L91.2386 30.088V22.432ZM101.162 34.16C100.069 34.16 99.1223 33.9227 98.3223 33.448C97.5276 32.968 96.9116 32.288 96.4743 31.408C96.0423 30.5227 95.8263 29.4667 95.8263 28.24C95.8263 27.008 96.0449 25.9467 96.4823 25.056C96.9249 24.1653 97.5463 23.48 98.3463 23C99.1463 22.5147 100.085 22.272 101.162 22.272C102.234 22.272 103.168 22.512 103.962 22.992C104.757 23.472 105.37 24.1573 105.802 25.048C106.24 25.9387 106.458 27.0027 106.458 28.24C106.458 29.4613 106.242 30.5147 105.81 31.4C105.384 32.2853 104.773 32.968 103.978 33.448C103.184 33.9227 102.245 34.16 101.162 34.16ZM101.162 32.24C101.728 32.24 102.216 32.1067 102.626 31.84C103.042 31.568 103.362 31.1413 103.586 30.56C103.81 29.9733 103.922 29.2107 103.922 28.272C103.922 27.3067 103.808 26.5253 103.578 25.928C103.354 25.3307 103.034 24.8933 102.618 24.616C102.208 24.3333 101.722 24.192 101.162 24.192C100.602 24.192 100.114 24.3333 99.6983 24.616C99.2823 24.8933 98.9596 25.3333 98.7303 25.936C98.5009 26.5333 98.3863 27.312 98.3863 28.272C98.3863 29.216 98.5009 29.9787 98.7303 30.56C98.9596 31.1413 99.2823 31.568 99.6983 31.84C100.114 32.1067 100.602 32.24 101.162 32.24ZM122.286 22.432L118.87 34H117.006L114.83 26.44L112.638 34H110.806L107.398 22.432H109.686L111.838 30.072L113.99 22.432H115.678L117.854 30.072L120.006 22.432H122.286Z" fill="white"/>
<path d="M138.75 28H155.25" stroke="white" stroke-width="2" stroke-linecap="round" stroke-linejoin="round"/>
<path d="M148.5 21.25L155.25 28L148.5 34.75" stroke="white" stroke-width="2" stroke-linecap="round" stroke-linejoin="round"/>
</svg>
