<svg width="200" height="192" viewBox="0 0 200 192" fill="none" xmlns="http://www.w3.org/2000/svg">
<path d="M1.464 6.432C1.50667 6.432 1.632 6.43467 1.84 6.44C2.05333 6.44 2.30933 6.44 2.608 6.44C2.90667 6.43467 3.21067 6.43467 3.52 6.44C3.83467 6.44 4.11467 6.44267 4.36 6.448C5.77333 6.46933 6.92267 6.704 7.808 7.152C8.69333 7.6 9.34133 8.24533 9.752 9.088C10.168 9.92533 10.376 10.9467 10.376 12.152C10.376 13.4053 10.1547 14.4693 9.712 15.344C9.26933 16.2133 8.592 16.8747 7.68 17.328C6.77333 17.776 5.624 18 4.232 18H1.464V6.432ZM3.208 7.872V16.56H4.248C5.12267 16.56 5.88267 16.4187 6.528 16.136C7.17867 15.848 7.68267 15.384 8.04 14.744C8.39733 14.0987 8.576 13.2373 8.576 12.16C8.576 11.104 8.40533 10.264 8.064 9.64C7.72267 9.01067 7.232 8.56 6.592 8.288C5.95733 8.01067 5.192 7.872 4.296 7.872H3.208ZM17.1551 18.16C16.1045 18.16 15.1951 17.928 14.4271 17.464C13.6645 16.9947 13.0751 16.32 12.6591 15.44C12.2485 14.5547 12.0431 13.488 12.0431 12.24C12.0431 10.9813 12.2511 9.90933 12.6671 9.024C13.0885 8.13333 13.6805 7.45333 14.4431 6.984C15.2111 6.50933 16.1151 6.272 17.1551 6.272C18.1898 6.272 19.0858 6.50933 19.8431 6.984C20.6058 7.45333 21.1925 8.13333 21.6031 9.024C22.0191 9.90933 22.2271 10.9813 22.2271 12.24C22.2271 13.488 22.0218 14.552 21.6111 15.432C21.2005 16.312 20.6138 16.9867 19.8511 17.456C19.0938 17.9253 18.1951 18.16 17.1551 18.16ZM17.1551 16.696C17.8271 16.696 18.4005 16.5413 18.8751 16.232C19.3551 15.9227 19.7205 15.44 19.9711 14.784C20.2218 14.128 20.3471 13.288 20.3471 12.264C20.3471 11.2133 20.2191 10.3547 19.9631 9.688C19.7125 9.02133 19.3471 8.53067 18.8671 8.216C18.3925 7.896 17.8218 7.736 17.1551 7.736C16.4885 7.736 15.9125 7.896 15.4271 8.216C14.9471 8.536 14.5765 9.02933 14.3151 9.696C14.0538 10.3627 13.9231 11.2187 13.9231 12.264C13.9231 13.2933 14.0538 14.136 14.3151 14.792C14.5765 15.4427 14.9471 15.9227 15.4271 16.232C15.9125 16.5413 16.4885 16.696 17.1551 16.696ZM37.8274 6.432L34.4434 18H32.9394L30.4994 9.416L28.0274 18H26.5634L23.2114 6.432H24.9234L27.3714 15.216L29.8514 6.432H31.1634L33.6434 15.216L36.1234 6.432H37.8274ZM47.1799 6.432H48.8999V18H47.3639L41.3479 9.192V18H39.6359V6.432H41.2919L47.1799 15.056V6.432ZM51.8314 6.432H53.5674V16.496H58.9114V18H51.8234L51.8314 6.432ZM65.2333 18.16C64.1826 18.16 63.2733 17.928 62.5053 17.464C61.7426 16.9947 61.1533 16.32 60.7373 15.44C60.3266 14.5547 60.1213 13.488 60.1213 12.24C60.1213 10.9813 60.3293 9.90933 60.7453 9.024C61.1666 8.13333 61.7586 7.45333 62.5213 6.984C63.2893 6.50933 64.1933 6.272 65.2333 6.272C66.2679 6.272 67.1639 6.50933 67.9213 6.984C68.6839 7.45333 69.2706 8.13333 69.6813 9.024C70.0973 9.90933 70.3053 10.9813 70.3053 12.24C70.3053 13.488 70.0999 14.552 69.6893 15.432C69.2786 16.312 68.6919 16.9867 67.9293 17.456C67.1719 17.9253 66.2733 18.16 65.2333 18.16ZM65.2333 16.696C65.9053 16.696 66.4786 16.5413 66.9533 16.232C67.4333 15.9227 67.7986 15.44 68.0493 14.784C68.2999 14.128 68.4253 13.288 68.4253 12.264C68.4253 11.2133 68.2973 10.3547 68.0413 9.688C67.7906 9.02133 67.4253 8.53067 66.9453 8.216C66.4706 7.896 65.8999 7.736 65.2333 7.736C64.5666 7.736 63.9906 7.896 63.5052 8.216C63.0253 8.536 62.6546 9.02933 62.3933 9.696C62.1319 10.3627 62.0013 11.2187 62.0013 12.264C62.0013 13.2933 62.1319 14.136 62.3933 14.792C62.6546 15.4427 63.0253 15.9227 63.5052 16.232C63.9906 16.5413 64.5666 16.696 65.2333 16.696ZM71.1625 18L75.3385 6.432H77.2265L81.3945 18H79.6665L78.5785 14.968H74.0105L72.8985 18H71.1625ZM74.4185 13.416H78.1385L76.2905 8.112L74.4185 13.416ZM83.464 6.432C83.5067 6.432 83.632 6.43467 83.84 6.44C84.0533 6.44 84.3093 6.44 84.608 6.44C84.9067 6.43467 85.2107 6.43467 85.52 6.44C85.8347 6.44 86.1147 6.44267 86.36 6.448C87.7733 6.46933 88.9227 6.704 89.808 7.152C90.6933 7.6 91.3413 8.24533 91.752 9.088C92.168 9.92533 92.376 10.9467 92.376 12.152C92.376 13.4053 92.1547 14.4693 91.712 15.344C91.2693 16.2133 90.592 16.8747 89.68 17.328C88.7733 17.776 87.624 18 86.232 18H83.464V6.432ZM85.208 7.872V16.56H86.248C87.1227 16.56 87.8827 16.4187 88.528 16.136C89.1787 15.848 89.6827 15.384 90.04 14.744C90.3973 14.0987 90.576 13.2373 90.576 12.16C90.576 11.104 90.4053 10.264 90.064 9.64C89.7227 9.01067 89.232 8.56 88.592 8.288C87.9573 8.01067 87.192 7.872 86.296 7.872H85.208ZM97.4125 18L101.589 6.432H103.477L107.645 18H105.917L104.829 14.968H100.261L99.1485 18H97.4125ZM100.669 13.416H104.389L102.541 8.112L100.669 13.416ZM109.714 18V6.432H113.722C114.549 6.432 115.287 6.57333 115.938 6.856C116.594 7.13867 117.109 7.55467 117.482 8.104C117.861 8.65333 118.05 9.328 118.05 10.128C118.05 10.896 117.877 11.552 117.53 12.096C117.189 12.6347 116.709 13.048 116.09 13.336C115.477 13.6187 114.765 13.76 113.954 13.76H111.458V18H109.714ZM111.45 12.36H113.906C114.642 12.36 115.242 12.1493 115.706 11.728C116.17 11.3013 116.402 10.736 116.402 10.032C116.402 9.31733 116.162 8.77067 115.682 8.392C115.202 8.008 114.589 7.816 113.842 7.816H111.45V12.36ZM119.964 18V6.432H123.972C124.799 6.432 125.537 6.57333 126.188 6.856C126.844 7.13867 127.359 7.55467 127.732 8.104C128.111 8.65333 128.3 9.328 128.3 10.128C128.3 10.896 128.127 11.552 127.78 12.096C127.439 12.6347 126.959 13.048 126.34 13.336C125.727 13.6187 125.015 13.76 124.204 13.76H121.708V18H119.964ZM121.7 12.36H124.156C124.892 12.36 125.492 12.1493 125.956 11.728C126.42 11.3013 126.652 10.736 126.652 10.032C126.652 9.31733 126.412 8.77067 125.932 8.392C125.452 8.008 124.839 7.816 124.092 7.816H121.7V12.36Z" fill="white"/>
<rect y="42" width="176" height="69" rx="3" fill="#303639"/>
<g clip-path="url(#clip0_3088_13868)">
<path d="M40.087 75.8129L26.2918 61.9793L43.8438 72.0561L40.087 75.8129ZM22.6902 61.1665C21.8774 61.5921 21.3334 62.3665 21.3334 63.3745V90.9585C21.3334 91.9665 21.8774 92.7409 22.6902 93.1665L38.7334 77.1633L22.6902 61.1665ZM49.271 75.2689L45.5894 73.1377L41.4822 77.1697L45.5894 81.2017L49.3462 79.0705C50.471 78.1761 50.471 76.1633 49.271 75.2689ZM26.2918 92.3601L43.8438 82.2833L40.087 78.5265L26.2918 92.3601Z" fill="white"/>
</g>
<path d="M74.4375 63.5C74.3516 63.237 74.2383 63.0013 74.0977 62.793C73.9596 62.582 73.7943 62.4023 73.6016 62.2539C73.4115 62.1055 73.1953 61.9922 72.9531 61.9141C72.7109 61.8359 72.4453 61.7969 72.1562 61.7969C71.6823 61.7969 71.2513 61.9193 70.8633 62.1641C70.4753 62.4089 70.1667 62.7695 69.9375 63.2461C69.7083 63.7227 69.5938 64.3073 69.5938 65C69.5938 65.6927 69.7096 66.2773 69.9414 66.7539C70.1732 67.2305 70.487 67.5911 70.8828 67.8359C71.2786 68.0807 71.724 68.2031 72.2188 68.2031C72.6771 68.2031 73.0807 68.1055 73.4297 67.9102C73.7813 67.7122 74.0547 67.4336 74.25 67.0742C74.4479 66.7122 74.5469 66.2865 74.5469 65.7969L74.8438 65.8594H72.4375V65H75.4844V65.8594C75.4844 66.5182 75.3438 67.0911 75.0625 67.5781C74.7839 68.0651 74.3984 68.4427 73.9062 68.7109C73.4167 68.9766 72.8542 69.1094 72.2188 69.1094C71.5104 69.1094 70.888 68.9427 70.3516 68.6094C69.8177 68.276 69.401 67.8021 69.1016 67.1875C68.8047 66.5729 68.6563 65.8437 68.6563 65C68.6563 64.3672 68.7409 63.7982 68.9102 63.293C69.082 62.7852 69.3242 62.3529 69.6367 61.9961C69.9492 61.6393 70.319 61.3659 70.7461 61.1758C71.1732 60.9857 71.6432 60.8906 72.1562 60.8906C72.5781 60.8906 72.9714 60.9544 73.3359 61.082C73.7031 61.207 74.0299 61.3854 74.3164 61.6172C74.6055 61.8464 74.8464 62.1211 75.0391 62.4414C75.2318 62.7591 75.3646 63.112 75.4375 63.5H74.4375ZM79.5342 69.125C78.9561 69.125 78.4574 68.9974 78.0381 68.7422C77.6214 68.4844 77.2998 68.125 77.0732 67.6641C76.8493 67.2005 76.7373 66.6615 76.7373 66.0469C76.7373 65.4323 76.8493 64.8906 77.0732 64.4219C77.2998 63.9505 77.6149 63.5833 78.0186 63.3203C78.4248 63.0547 78.8988 62.9219 79.4404 62.9219C79.7529 62.9219 80.0615 62.974 80.3662 63.0781C80.6709 63.1823 80.9482 63.3516 81.1982 63.5859C81.4482 63.8177 81.6475 64.125 81.7959 64.5078C81.9443 64.8906 82.0186 65.362 82.0186 65.9219V66.3125H77.3936V65.5156H81.0811C81.0811 65.1771 81.0133 64.875 80.8779 64.6094C80.7451 64.3437 80.555 64.1341 80.3076 63.9805C80.0628 63.8268 79.7738 63.75 79.4404 63.75C79.0732 63.75 78.7555 63.8411 78.4873 64.0234C78.2217 64.2031 78.0173 64.4375 77.874 64.7266C77.7308 65.0156 77.6592 65.3255 77.6592 65.6562V66.1875C77.6592 66.6406 77.7373 67.0247 77.8936 67.3398C78.0524 67.6523 78.2725 67.8906 78.5537 68.0547C78.835 68.2161 79.1618 68.2969 79.5342 68.2969C79.7764 68.2969 79.9951 68.263 80.1904 68.1953C80.3883 68.125 80.5589 68.0208 80.7021 67.8828C80.8454 67.7422 80.9561 67.5677 81.0342 67.3594L81.9248 67.6094C81.8311 67.9115 81.6735 68.1771 81.4521 68.4062C81.2308 68.6328 80.9574 68.8099 80.6318 68.9375C80.3063 69.0625 79.9404 69.125 79.5342 69.125ZM86.0303 63V63.7812H82.9209V63H86.0303ZM83.8271 61.5625H84.749V67.2812C84.749 67.5417 84.7868 67.737 84.8623 67.8672C84.9404 67.9948 85.0394 68.0807 85.1592 68.125C85.2816 68.1667 85.4105 68.1875 85.5459 68.1875C85.6475 68.1875 85.7308 68.1823 85.7959 68.1719C85.861 68.1589 85.9131 68.1484 85.9521 68.1406L86.1396 68.9687C86.0771 68.9922 85.9899 69.0156 85.8779 69.0391C85.766 69.0651 85.624 69.0781 85.4521 69.0781C85.1917 69.0781 84.9365 69.0221 84.6865 68.9102C84.4391 68.7982 84.2334 68.6276 84.0693 68.3984C83.9079 68.1693 83.8271 67.8802 83.8271 67.5312V61.5625ZM90.5107 69V63H91.4326V69H90.5107ZM90.9795 62C90.7998 62 90.6449 61.9388 90.5146 61.8164C90.387 61.694 90.3232 61.5469 90.3232 61.375C90.3232 61.2031 90.387 61.056 90.5146 60.9336C90.6449 60.8112 90.7998 60.75 90.9795 60.75C91.1592 60.75 91.3128 60.8112 91.4404 60.9336C91.5706 61.056 91.6357 61.2031 91.6357 61.375C91.6357 61.5469 91.5706 61.694 91.4404 61.8164C91.3128 61.9388 91.1592 62 90.9795 62ZM95.7305 63V63.7812H92.6211V63H95.7305ZM93.5273 61.5625H94.4492V67.2812C94.4492 67.5417 94.487 67.737 94.5625 67.8672C94.6406 67.9948 94.7396 68.0807 94.8594 68.125C94.9818 68.1667 95.1107 68.1875 95.2461 68.1875C95.3477 68.1875 95.431 68.1823 95.4961 68.1719C95.5612 68.1589 95.6133 68.1484 95.6523 68.1406L95.8398 68.9687C95.7773 68.9922 95.6901 69.0156 95.5781 69.0391C95.4661 69.0651 95.3242 69.0781 95.1523 69.0781C94.8919 69.0781 94.6367 69.0221 94.3867 68.9102C94.1393 68.7982 93.9336 68.6276 93.7695 68.3984C93.6081 68.1693 93.5273 67.8802 93.5273 67.5312V61.5625ZM101.133 65.3906V69H100.211V63H101.102V63.9375H101.18C101.32 63.6328 101.534 63.388 101.82 63.2031C102.107 63.0156 102.477 62.9219 102.93 62.9219C103.336 62.9219 103.691 63.0052 103.996 63.1719C104.301 63.3359 104.538 63.5859 104.707 63.9219C104.876 64.2552 104.961 64.6771 104.961 65.1875V69H104.039V65.25C104.039 64.7786 103.917 64.4115 103.672 64.1484C103.427 63.8828 103.091 63.75 102.664 63.75C102.37 63.75 102.107 63.8138 101.875 63.9414C101.646 64.069 101.465 64.2552 101.332 64.5C101.199 64.7448 101.133 65.0417 101.133 65.3906ZM109.083 69.125C108.541 69.125 108.066 68.9961 107.657 68.7383C107.251 68.4805 106.933 68.1198 106.704 67.6562C106.478 67.1927 106.364 66.651 106.364 66.0312C106.364 65.4062 106.478 64.8607 106.704 64.3945C106.933 63.9284 107.251 63.5664 107.657 63.3086C108.066 63.0508 108.541 62.9219 109.083 62.9219C109.625 62.9219 110.099 63.0508 110.505 63.3086C110.914 63.5664 111.231 63.9284 111.458 64.3945C111.687 64.8607 111.802 65.4062 111.802 66.0312C111.802 66.651 111.687 67.1927 111.458 67.6562C111.231 68.1198 110.914 68.4805 110.505 68.7383C110.099 68.9961 109.625 69.125 109.083 69.125ZM109.083 68.2969C109.494 68.2969 109.833 68.1914 110.099 67.9805C110.364 67.7695 110.561 67.4922 110.688 67.1484C110.816 66.8047 110.88 66.4323 110.88 66.0312C110.88 65.6302 110.816 65.2565 110.688 64.9102C110.561 64.5638 110.364 64.2839 110.099 64.0703C109.833 63.8568 109.494 63.75 109.083 63.75C108.672 63.75 108.333 63.8568 108.067 64.0703C107.802 64.2839 107.605 64.5638 107.478 64.9102C107.35 65.2565 107.286 65.6302 107.286 66.0312C107.286 66.4323 107.35 66.8047 107.478 67.1484C107.605 67.4922 107.802 67.7695 108.067 67.9805C108.333 68.1914 108.672 68.2969 109.083 68.2969ZM114.364 69L112.536 63H113.505L114.802 67.5938H114.864L116.146 63H117.13L118.396 67.5781H118.458L119.755 63H120.724L118.896 69H117.989L116.677 64.3906H116.583L115.271 69H114.364Z" fill="white"/>
<path d="M75.8253 83.0696C75.7424 82.8011 75.6281 82.5608 75.4822 82.3487C75.3397 82.1333 75.1674 81.9493 74.9652 81.7969C74.7663 81.6444 74.5376 81.5301 74.2791 81.4538C74.0206 81.3743 73.7389 81.3345 73.4339 81.3345C72.8871 81.3345 72.3999 81.4721 71.9723 81.7472C71.5447 82.0223 71.2083 82.4266 70.9631 82.9602C70.7211 83.4905 70.6001 84.1368 70.6001 84.8991C70.6001 85.6681 70.7211 86.3194 70.9631 86.853C71.205 87.3866 71.5414 87.7926 71.9723 88.071C72.4032 88.3461 72.9036 88.4837 73.4737 88.4837C73.9908 88.4837 74.4382 88.3842 74.8161 88.1854C75.1972 87.9865 75.4905 87.7048 75.696 87.3402C75.9015 86.9723 76.0043 86.5414 76.0043 86.0476L76.4219 86.1122H73.6577V84.6705H77.7891V85.8935C77.7891 86.7652 77.6035 87.5192 77.2322 88.1555C76.861 88.7919 76.3506 89.2824 75.701 89.6271C75.0514 89.9685 74.3056 90.1392 73.4638 90.1392C72.5258 90.1392 71.7022 89.9287 70.9929 89.5078C70.2869 89.0836 69.7351 88.482 69.3374 87.7031C68.9429 86.9209 68.7457 85.9929 68.7457 84.919C68.7457 84.0971 68.8617 83.3629 69.0938 82.7166C69.3291 82.0703 69.6572 81.5218 70.0781 81.071C70.4991 80.617 70.9929 80.2723 71.5597 80.0369C72.1264 79.7983 72.7429 79.679 73.4091 79.679C73.9725 79.679 74.4979 79.7618 74.9851 79.9276C75.4723 80.09 75.9048 80.322 76.2827 80.6236C76.6638 80.9252 76.977 81.2831 77.2223 81.6974C77.4676 82.1117 77.6283 82.5691 77.7045 83.0696H75.8253ZM82.824 90.1491C82.0783 90.1491 81.432 89.9851 80.8851 89.657C80.3382 89.3288 79.914 88.8698 79.6124 88.2798C79.3141 87.6899 79.165 87.0005 79.165 86.2116C79.165 85.4228 79.3141 84.7318 79.6124 84.1385C79.914 83.5452 80.3382 83.0845 80.8851 82.7564C81.432 82.4283 82.0783 82.2642 82.824 82.2642C83.5698 82.2642 84.2161 82.4283 84.763 82.7564C85.3098 83.0845 85.7324 83.5452 86.0307 84.1385C86.3323 84.7318 86.4831 85.4228 86.4831 86.2116C86.4831 87.0005 86.3323 87.6899 86.0307 88.2798C85.7324 88.8698 85.3098 89.3288 84.763 89.657C84.2161 89.9851 83.5698 90.1491 82.824 90.1491ZM82.834 88.7074C83.2383 88.7074 83.5764 88.5964 83.8482 88.3743C84.12 88.1489 84.3221 87.8473 84.4547 87.4695C84.5906 87.0916 84.6586 86.6707 84.6586 86.2067C84.6586 85.7393 84.5906 85.3168 84.4547 84.9389C84.3221 84.5578 84.12 84.2545 83.8482 84.0291C83.5764 83.8037 83.2383 83.6911 82.834 83.6911C82.4197 83.6911 82.075 83.8037 81.7999 84.0291C81.5281 84.2545 81.3243 84.5578 81.1884 84.9389C81.0558 85.3168 80.9895 85.7393 80.9895 86.2067C80.9895 86.6707 81.0558 87.0916 81.1884 87.4695C81.3243 87.8473 81.5281 88.1489 81.7999 88.3743C82.075 88.5964 82.4197 88.7074 82.834 88.7074ZM91.3416 90.1491C90.5959 90.1491 89.9496 89.9851 89.4027 89.657C88.8558 89.3288 88.4316 88.8698 88.13 88.2798C87.8317 87.6899 87.6825 87.0005 87.6825 86.2116C87.6825 85.4228 87.8317 84.7318 88.13 84.1385C88.4316 83.5452 88.8558 83.0845 89.4027 82.7564C89.9496 82.4283 90.5959 82.2642 91.3416 82.2642C92.0874 82.2642 92.7337 82.4283 93.2805 82.7564C93.8274 83.0845 94.25 83.5452 94.5483 84.1385C94.8499 84.7318 95.0007 85.4228 95.0007 86.2116C95.0007 87.0005 94.8499 87.6899 94.5483 88.2798C94.25 88.8698 93.8274 89.3288 93.2805 89.657C92.7337 89.9851 92.0874 90.1491 91.3416 90.1491ZM91.3516 88.7074C91.7559 88.7074 92.094 88.5964 92.3658 88.3743C92.6375 88.1489 92.8397 87.8473 92.9723 87.4695C93.1082 87.0916 93.1761 86.6707 93.1761 86.2067C93.1761 85.7393 93.1082 85.3168 92.9723 84.9389C92.8397 84.5578 92.6375 84.2545 92.3658 84.0291C92.094 83.8037 91.7559 83.6911 91.3516 83.6911C90.9373 83.6911 90.5926 83.8037 90.3175 84.0291C90.0457 84.2545 89.8419 84.5578 89.706 84.9389C89.5734 85.3168 89.5071 85.7393 89.5071 86.2067C89.5071 86.6707 89.5734 87.0916 89.706 87.4695C89.8419 87.8473 90.0457 88.1489 90.3175 88.3743C90.5926 88.5964 90.9373 88.7074 91.3516 88.7074ZM99.8493 93.0227C99.2029 93.0227 98.6478 92.9349 98.1838 92.7592C97.7198 92.5869 97.3469 92.3549 97.0652 92.0632C96.7834 91.7715 96.5879 91.4484 96.4785 91.0938L98.0993 90.701C98.1722 90.8501 98.2782 90.9976 98.4174 91.1435C98.5566 91.2926 98.7439 91.4152 98.9792 91.5114C99.2179 91.6108 99.5178 91.6605 99.8791 91.6605C100.39 91.6605 100.812 91.5362 101.147 91.2876C101.482 91.0424 101.649 90.638 101.649 90.0746V88.6278H101.559C101.467 88.8134 101.331 89.004 101.152 89.1996C100.976 89.3951 100.742 89.5592 100.451 89.6918C100.162 89.8243 99.7995 89.8906 99.362 89.8906C98.7754 89.8906 98.2434 89.7531 97.7662 89.478C97.2922 89.1996 96.9144 88.7853 96.6326 88.2351C96.3542 87.6816 96.215 86.9889 96.215 86.157C96.215 85.3184 96.3542 84.6108 96.6326 84.0341C96.9144 83.4541 97.2939 83.0149 97.7711 82.7166C98.2484 82.415 98.7804 82.2642 99.367 82.2642C99.8145 82.2642 100.182 82.3404 100.471 82.4929C100.762 82.642 100.994 82.8227 101.167 83.0348C101.339 83.2436 101.47 83.4408 101.559 83.6264H101.659V82.3636H103.434V90.1243C103.434 90.7772 103.278 91.3175 102.966 91.745C102.655 92.1726 102.229 92.4924 101.689 92.7045C101.148 92.9167 100.535 93.0227 99.8493 93.0227ZM99.8642 88.4787C100.245 88.4787 100.57 88.3859 100.839 88.2003C101.107 88.0147 101.311 87.7479 101.45 87.3999C101.589 87.0518 101.659 86.6342 101.659 86.147C101.659 85.6664 101.589 85.2455 101.45 84.8842C101.314 84.523 101.112 84.2429 100.844 84.044C100.578 83.8419 100.252 83.7408 99.8642 83.7408C99.4631 83.7408 99.1284 83.8452 98.8599 84.054C98.5914 84.2628 98.3893 84.5495 98.2534 84.9141C98.1175 85.2753 98.0495 85.6863 98.0495 86.147C98.0495 86.6143 98.1175 87.0237 98.2534 87.375C98.3926 87.723 98.5964 87.9948 98.8649 88.1903C99.1367 88.3826 99.4698 88.4787 99.8642 88.4787ZM107.078 79.8182V90H105.278V79.8182H107.078ZM112.309 90.1491C111.544 90.1491 110.882 89.9901 110.326 89.6719C109.772 89.3504 109.346 88.8963 109.048 88.3097C108.75 87.7197 108.6 87.0253 108.6 86.2266C108.6 85.4411 108.75 84.7517 109.048 84.1584C109.35 83.5618 109.77 83.0978 110.311 82.7663C110.851 82.4316 111.486 82.2642 112.215 82.2642C112.685 82.2642 113.13 82.3404 113.547 82.4929C113.968 82.642 114.339 82.8741 114.661 83.1889C114.986 83.5038 115.241 83.9048 115.426 84.392C115.612 84.8759 115.705 85.4527 115.705 86.1222V86.674H109.446V85.4609H113.98C113.976 85.1162 113.902 84.8097 113.756 84.5412C113.61 84.2694 113.406 84.0556 113.145 83.8999C112.886 83.7441 112.584 83.6662 112.24 83.6662C111.872 83.6662 111.549 83.7557 111.27 83.9347C110.992 84.1103 110.775 84.3423 110.619 84.6307C110.467 84.9157 110.389 85.2289 110.385 85.5703V86.6293C110.385 87.0734 110.467 87.4545 110.629 87.7727C110.791 88.0876 111.018 88.3295 111.31 88.4986C111.602 88.6643 111.943 88.7472 112.334 88.7472C112.596 88.7472 112.833 88.7107 113.045 88.6378C113.257 88.5616 113.441 88.4505 113.597 88.3047C113.753 88.1589 113.87 87.9782 113.95 87.7628L115.63 87.9517C115.524 88.3958 115.322 88.7836 115.024 89.1151C114.729 89.4432 114.351 89.6984 113.89 89.8807C113.43 90.0597 112.903 90.1491 112.309 90.1491ZM120.78 90V79.8182H124.598C125.38 79.8182 126.036 79.964 126.567 80.2557C127.1 80.5473 127.503 80.9484 127.775 81.4588C128.05 81.9659 128.187 82.5426 128.187 83.1889C128.187 83.8419 128.05 84.4219 127.775 84.929C127.5 85.4361 127.094 85.8355 126.557 86.1271C126.02 86.4155 125.358 86.5597 124.573 86.5597H122.042V85.0433H124.324C124.782 85.0433 125.156 84.9638 125.448 84.8047C125.74 84.6456 125.955 84.4268 126.094 84.1484C126.237 83.87 126.308 83.5502 126.308 83.1889C126.308 82.8277 126.237 82.5095 126.094 82.2344C125.955 81.9593 125.738 81.7455 125.443 81.593C125.151 81.4373 124.775 81.3594 124.314 81.3594H122.624V90H120.78ZM131.51 79.8182V90H129.71V79.8182H131.51ZM135.558 90.1541C135.074 90.1541 134.638 90.0679 134.25 89.8956C133.866 89.7199 133.561 89.4614 133.335 89.12C133.113 88.7786 133.002 88.3577 133.002 87.8572C133.002 87.4264 133.082 87.0701 133.241 86.7884C133.4 86.5066 133.617 86.2812 133.892 86.1122C134.167 85.9432 134.477 85.8156 134.822 85.7294C135.17 85.6399 135.53 85.5753 135.901 85.5355C136.348 85.4891 136.711 85.4477 136.99 85.4112C137.268 85.3714 137.47 85.3118 137.596 85.2322C137.725 85.1494 137.79 85.0218 137.79 84.8494V84.8196C137.79 84.4451 137.679 84.1551 137.457 83.9496C137.235 83.7441 136.915 83.6413 136.497 83.6413C136.057 83.6413 135.707 83.7375 135.448 83.9297C135.193 84.1219 135.021 84.349 134.931 84.6108L133.251 84.3722C133.383 83.9081 133.602 83.5204 133.907 83.2088C134.212 82.8939 134.585 82.6586 135.026 82.5028C135.467 82.3438 135.954 82.2642 136.487 82.2642C136.855 82.2642 137.222 82.3073 137.586 82.3935C137.951 82.4796 138.284 82.6222 138.585 82.821C138.887 83.0166 139.129 83.2834 139.311 83.6214C139.497 83.9595 139.59 84.3821 139.59 84.8892V90H137.86V88.951H137.8C137.691 89.1631 137.536 89.362 137.338 89.5476C137.142 89.7299 136.895 89.8774 136.597 89.9901C136.302 90.0994 135.955 90.1541 135.558 90.1541ZM136.025 88.8317C136.386 88.8317 136.7 88.7604 136.965 88.6179C137.23 88.4721 137.434 88.2798 137.576 88.0412C137.722 87.8026 137.795 87.5424 137.795 87.2607V86.3608C137.739 86.4072 137.642 86.4503 137.507 86.4901C137.374 86.5298 137.225 86.5646 137.059 86.5945C136.893 86.6243 136.729 86.6508 136.567 86.674C136.405 86.6972 136.264 86.7171 136.144 86.7337C135.876 86.7701 135.636 86.8298 135.423 86.9126C135.211 86.9955 135.044 87.1115 134.921 87.2607C134.799 87.4065 134.737 87.5954 134.737 87.8274C134.737 88.1589 134.858 88.4091 135.1 88.5781C135.342 88.7472 135.651 88.8317 136.025 88.8317ZM142.244 92.8636C141.999 92.8636 141.772 92.8438 141.563 92.804C141.358 92.7675 141.194 92.7244 141.071 92.6747L141.489 91.2727C141.751 91.349 141.984 91.3854 142.19 91.3821C142.395 91.3788 142.576 91.3142 142.732 91.1882C142.891 91.0656 143.025 90.8601 143.134 90.5717L143.289 90.1591L140.519 82.3636H142.428L144.188 88.1307H144.268L146.033 82.3636H147.947L144.889 90.9247C144.747 91.3291 144.558 91.6754 144.323 91.9638C144.087 92.2554 143.799 92.4775 143.458 92.63C143.119 92.7857 142.715 92.8636 142.244 92.8636Z" fill="white"/>
<rect y="123" width="176" height="69" rx="3" fill="#303639"/>
<g clip-path="url(#clip1_3088_13868)">
<path d="M49.056 166.438C48.5893 167.525 48.013 168.561 47.336 169.531C46.4306 170.821 45.69 171.714 45.1193 172.21C44.2346 173.023 43.286 173.441 42.2706 173.464C41.542 173.464 40.6633 173.257 39.64 172.836C38.6133 172.417 37.67 172.209 36.8073 172.209C35.9026 172.209 34.9326 172.417 33.8946 172.836C32.8553 173.257 32.018 173.476 31.378 173.497C30.4046 173.539 29.434 173.111 28.4646 172.21C27.8466 171.67 27.074 170.746 26.1473 169.437C25.1533 168.038 24.336 166.417 23.696 164.567C23.0106 162.571 22.6666 160.637 22.6666 158.765C22.6666 156.62 23.13 154.771 24.058 153.221C24.788 151.975 25.758 150.994 26.9726 150.273C28.1643 149.56 29.524 149.176 30.9126 149.161C31.686 149.161 32.7 149.4 33.9606 149.87C35.2173 150.341 36.024 150.581 36.378 150.581C36.642 150.581 37.5386 150.301 39.058 149.743C40.4953 149.226 41.708 149.012 42.7013 149.097C45.394 149.314 47.4166 150.375 48.7613 152.287C46.354 153.746 45.1626 155.789 45.1866 158.411C45.208 160.453 45.9486 162.152 47.4046 163.501C48.0646 164.127 48.8013 164.611 49.6206 164.955C49.4488 165.455 49.2605 165.95 49.056 166.438ZM42.8813 142.141C42.8813 143.741 42.2966 145.235 41.1313 146.618C39.7246 148.263 38.024 149.213 36.1793 149.063C36.1545 148.861 36.142 148.659 36.142 148.456C36.142 146.92 36.8106 145.276 37.9986 143.931C38.592 143.251 39.3453 142.685 40.26 142.233C41.1733 141.789 42.036 141.543 42.848 141.5C42.8713 141.714 42.8813 141.928 42.8813 142.14V142.141Z" fill="white"/>
</g>
<path d="M74.4375 144.5C74.3516 144.237 74.2383 144.001 74.0977 143.793C73.9596 143.582 73.7943 143.402 73.6016 143.254C73.4115 143.105 73.1953 142.992 72.9531 142.914C72.7109 142.836 72.4453 142.797 72.1562 142.797C71.6823 142.797 71.2513 142.919 70.8633 143.164C70.4753 143.409 70.1667 143.77 69.9375 144.246C69.7083 144.723 69.5938 145.307 69.5938 146C69.5938 146.693 69.7096 147.277 69.9414 147.754C70.1732 148.23 70.487 148.591 70.8828 148.836C71.2786 149.081 71.724 149.203 72.2188 149.203C72.6771 149.203 73.0807 149.105 73.4297 148.91C73.7813 148.712 74.0547 148.434 74.25 148.074C74.4479 147.712 74.5469 147.286 74.5469 146.797L74.8438 146.859H72.4375V146H75.4844V146.859C75.4844 147.518 75.3438 148.091 75.0625 148.578C74.7839 149.065 74.3984 149.443 73.9062 149.711C73.4167 149.977 72.8542 150.109 72.2188 150.109C71.5104 150.109 70.888 149.943 70.3516 149.609C69.8177 149.276 69.401 148.802 69.1016 148.187C68.8047 147.573 68.6563 146.844 68.6563 146C68.6563 145.367 68.7409 144.798 68.9102 144.293C69.082 143.785 69.3242 143.353 69.6367 142.996C69.9492 142.639 70.319 142.366 70.7461 142.176C71.1732 141.986 71.6432 141.891 72.1562 141.891C72.5781 141.891 72.9714 141.954 73.3359 142.082C73.7031 142.207 74.0299 142.385 74.3164 142.617C74.6055 142.846 74.8464 143.121 75.0391 143.441C75.2318 143.759 75.3646 144.112 75.4375 144.5H74.4375ZM79.5342 150.125C78.9561 150.125 78.4574 149.997 78.0381 149.742C77.6214 149.484 77.2998 149.125 77.0732 148.664C76.8493 148.201 76.7373 147.661 76.7373 147.047C76.7373 146.432 76.8493 145.891 77.0732 145.422C77.2998 144.951 77.6149 144.583 78.0186 144.32C78.4248 144.055 78.8988 143.922 79.4404 143.922C79.7529 143.922 80.0615 143.974 80.3662 144.078C80.6709 144.182 80.9482 144.352 81.1982 144.586C81.4482 144.818 81.6475 145.125 81.7959 145.508C81.9443 145.891 82.0186 146.362 82.0186 146.922V147.312H77.3936V146.516H81.0811C81.0811 146.177 81.0133 145.875 80.8779 145.609C80.7451 145.344 80.555 145.134 80.3076 144.98C80.0628 144.827 79.7738 144.75 79.4404 144.75C79.0732 144.75 78.7555 144.841 78.4873 145.023C78.2217 145.203 78.0173 145.437 77.874 145.727C77.7308 146.016 77.6592 146.326 77.6592 146.656V147.188C77.6592 147.641 77.7373 148.025 77.8936 148.34C78.0524 148.652 78.2725 148.891 78.5537 149.055C78.835 149.216 79.1618 149.297 79.5342 149.297C79.7764 149.297 79.9951 149.263 80.1904 149.195C80.3883 149.125 80.5589 149.021 80.7021 148.883C80.8454 148.742 80.9561 148.568 81.0342 148.359L81.9248 148.609C81.8311 148.911 81.6735 149.177 81.4521 149.406C81.2308 149.633 80.9574 149.81 80.6318 149.937C80.3063 150.063 79.9404 150.125 79.5342 150.125ZM86.0303 144V144.781H82.9209V144H86.0303ZM83.8271 142.562H84.749V148.281C84.749 148.542 84.7868 148.737 84.8623 148.867C84.9404 148.995 85.0394 149.081 85.1592 149.125C85.2816 149.167 85.4105 149.187 85.5459 149.187C85.6475 149.187 85.7308 149.182 85.7959 149.172C85.861 149.159 85.9131 149.148 85.9521 149.141L86.1396 149.969C86.0771 149.992 85.9899 150.016 85.8779 150.039C85.766 150.065 85.624 150.078 85.4521 150.078C85.1917 150.078 84.9365 150.022 84.6865 149.91C84.4391 149.798 84.2334 149.628 84.0693 149.398C83.9079 149.169 83.8271 148.88 83.8271 148.531V142.562ZM90.5107 150V144H91.4326V150H90.5107ZM90.9795 143C90.7998 143 90.6449 142.939 90.5146 142.816C90.387 142.694 90.3232 142.547 90.3232 142.375C90.3232 142.203 90.387 142.056 90.5146 141.934C90.6449 141.811 90.7998 141.75 90.9795 141.75C91.1592 141.75 91.3128 141.811 91.4404 141.934C91.5706 142.056 91.6357 142.203 91.6357 142.375C91.6357 142.547 91.5706 142.694 91.4404 142.816C91.3128 142.939 91.1592 143 90.9795 143ZM95.7305 144V144.781H92.6211V144H95.7305ZM93.5273 142.562H94.4492V148.281C94.4492 148.542 94.487 148.737 94.5625 148.867C94.6406 148.995 94.7396 149.081 94.8594 149.125C94.9818 149.167 95.1107 149.187 95.2461 149.187C95.3477 149.187 95.431 149.182 95.4961 149.172C95.5612 149.159 95.6133 149.148 95.6523 149.141L95.8398 149.969C95.7773 149.992 95.6901 150.016 95.5781 150.039C95.4661 150.065 95.3242 150.078 95.1523 150.078C94.8919 150.078 94.6367 150.022 94.3867 149.91C94.1393 149.798 93.9336 149.628 93.7695 149.398C93.6081 149.169 93.5273 148.88 93.5273 148.531V142.562ZM101.133 146.391V150H100.211V144H101.102V144.937H101.18C101.32 144.633 101.534 144.388 101.82 144.203C102.107 144.016 102.477 143.922 102.93 143.922C103.336 143.922 103.691 144.005 103.996 144.172C104.301 144.336 104.538 144.586 104.707 144.922C104.876 145.255 104.961 145.677 104.961 146.188V150H104.039V146.25C104.039 145.779 103.917 145.411 103.672 145.148C103.427 144.883 103.091 144.75 102.664 144.75C102.37 144.75 102.107 144.814 101.875 144.941C101.646 145.069 101.465 145.255 101.332 145.5C101.199 145.745 101.133 146.042 101.133 146.391ZM109.083 150.125C108.541 150.125 108.066 149.996 107.657 149.738C107.251 149.48 106.933 149.12 106.704 148.656C106.478 148.193 106.364 147.651 106.364 147.031C106.364 146.406 106.478 145.861 106.704 145.395C106.933 144.928 107.251 144.566 107.657 144.309C108.066 144.051 108.541 143.922 109.083 143.922C109.625 143.922 110.099 144.051 110.505 144.309C110.914 144.566 111.231 144.928 111.458 145.395C111.687 145.861 111.802 146.406 111.802 147.031C111.802 147.651 111.687 148.193 111.458 148.656C111.231 149.12 110.914 149.48 110.505 149.738C110.099 149.996 109.625 150.125 109.083 150.125ZM109.083 149.297C109.494 149.297 109.833 149.191 110.099 148.98C110.364 148.77 110.561 148.492 110.688 148.148C110.816 147.805 110.88 147.432 110.88 147.031C110.88 146.63 110.816 146.257 110.688 145.91C110.561 145.564 110.364 145.284 110.099 145.07C109.833 144.857 109.494 144.75 109.083 144.75C108.672 144.75 108.333 144.857 108.067 145.07C107.802 145.284 107.605 145.564 107.478 145.91C107.35 146.257 107.286 146.63 107.286 147.031C107.286 147.432 107.35 147.805 107.478 148.148C107.605 148.492 107.802 148.77 108.067 148.98C108.333 149.191 108.672 149.297 109.083 149.297ZM114.364 150L112.536 144H113.505L114.802 148.594H114.864L116.146 144H117.13L118.396 148.578H118.458L119.755 144H120.724L118.896 150H117.989L116.677 145.391H116.583L115.271 150H114.364Z" fill="white"/>
<path d="M70.3118 171H68.343L71.9276 160.818H74.2045L77.794 171H75.8253L73.1058 162.906H73.0263L70.3118 171ZM70.3764 167.008H75.7457V168.489H70.3764V167.008ZM79.0556 173.864V163.364H80.8255V164.626H80.9299C81.0227 164.441 81.1536 164.244 81.3226 164.035C81.4917 163.823 81.7203 163.642 82.0087 163.493C82.2971 163.34 82.665 163.264 83.1124 163.264C83.7024 163.264 84.2343 163.415 84.7083 163.717C85.1855 164.015 85.5634 164.457 85.8418 165.044C86.1235 165.627 86.2644 166.343 86.2644 167.192C86.2644 168.03 86.1268 168.743 85.8517 169.33C85.5766 169.916 85.2021 170.364 84.7282 170.672C84.2542 170.98 83.7173 171.134 83.1174 171.134C82.6799 171.134 82.3169 171.061 82.0286 170.915C81.7402 170.77 81.5082 170.594 81.3326 170.388C81.1602 170.18 81.026 169.982 80.9299 169.797H80.8553V173.864H79.0556ZM80.8205 167.182C80.8205 167.676 80.8901 168.108 81.0293 168.479C81.1718 168.851 81.3757 169.141 81.6408 169.349C81.9093 169.555 82.2341 169.658 82.6152 169.658C83.013 169.658 83.3461 169.552 83.6145 169.339C83.883 169.124 84.0852 168.831 84.2211 168.46C84.3603 168.085 84.4299 167.659 84.4299 167.182C84.4299 166.708 84.3619 166.287 84.226 165.919C84.0901 165.551 83.888 165.263 83.6195 165.054C83.351 164.845 83.0163 164.741 82.6152 164.741C82.2308 164.741 81.9043 164.842 81.6358 165.044C81.3674 165.246 81.1635 165.53 81.0243 165.894C80.8884 166.259 80.8205 166.688 80.8205 167.182ZM87.8056 173.864V163.364H89.5755V164.626H89.6799C89.7727 164.441 89.9036 164.244 90.0726 164.035C90.2417 163.823 90.4703 163.642 90.7587 163.493C91.0471 163.34 91.415 163.264 91.8624 163.264C92.4524 163.264 92.9843 163.415 93.4583 163.717C93.9355 164.015 94.3134 164.457 94.5918 165.044C94.8735 165.627 95.0144 166.343 95.0144 167.192C95.0144 168.03 94.8768 168.743 94.6017 169.33C94.3266 169.916 93.9521 170.364 93.4782 170.672C93.0042 170.98 92.4673 171.134 91.8674 171.134C91.4299 171.134 91.0669 171.061 90.7786 170.915C90.4902 170.77 90.2582 170.594 90.0826 170.388C89.9102 170.18 89.776 169.982 89.6799 169.797H89.6053V173.864H87.8056ZM89.5705 167.182C89.5705 167.676 89.6401 168.108 89.7793 168.479C89.9218 168.851 90.1257 169.141 90.3908 169.349C90.6593 169.555 90.9841 169.658 91.3652 169.658C91.763 169.658 92.0961 169.552 92.3645 169.339C92.633 169.124 92.8352 168.831 92.9711 168.46C93.1103 168.085 93.1799 167.659 93.1799 167.182C93.1799 166.708 93.1119 166.287 92.976 165.919C92.8401 165.551 92.638 165.263 92.3695 165.054C92.101 164.845 91.7663 164.741 91.3652 164.741C90.9808 164.741 90.6543 164.842 90.3858 165.044C90.1174 165.246 89.9135 165.53 89.7743 165.894C89.6384 166.259 89.5705 166.688 89.5705 167.182ZM105.641 163.617C105.595 163.183 105.399 162.845 105.055 162.603C104.713 162.361 104.269 162.24 103.722 162.24C103.338 162.24 103.008 162.298 102.733 162.414C102.458 162.53 102.247 162.687 102.101 162.886C101.956 163.085 101.881 163.312 101.878 163.567C101.878 163.78 101.926 163.964 102.022 164.119C102.121 164.275 102.256 164.408 102.425 164.517C102.594 164.623 102.781 164.713 102.986 164.786C103.192 164.858 103.399 164.92 103.608 164.969L104.562 165.208C104.947 165.298 105.316 165.419 105.671 165.571C106.029 165.723 106.349 165.916 106.631 166.148C106.916 166.38 107.141 166.66 107.307 166.988C107.472 167.316 107.555 167.701 107.555 168.141C107.555 168.738 107.403 169.263 107.098 169.717C106.793 170.168 106.352 170.521 105.775 170.776C105.202 171.028 104.508 171.154 103.692 171.154C102.9 171.154 102.212 171.031 101.629 170.786C101.049 170.541 100.595 170.183 100.267 169.712C99.9421 169.242 99.7664 168.668 99.7399 167.992H101.555C101.581 168.347 101.69 168.642 101.883 168.877C102.075 169.112 102.325 169.288 102.633 169.404C102.945 169.52 103.293 169.578 103.677 169.578C104.078 169.578 104.43 169.518 104.731 169.399C105.036 169.277 105.275 169.107 105.447 168.892C105.62 168.673 105.707 168.418 105.711 168.126C105.707 167.861 105.63 167.643 105.477 167.47C105.325 167.295 105.111 167.149 104.836 167.033C104.564 166.913 104.246 166.807 103.881 166.714L102.723 166.416C101.884 166.201 101.221 165.874 100.734 165.437C100.25 164.996 100.008 164.411 100.008 163.682C100.008 163.082 100.171 162.557 100.496 162.106C100.824 161.655 101.269 161.305 101.833 161.057C102.396 160.805 103.034 160.679 103.747 160.679C104.47 160.679 105.103 160.805 105.646 161.057C106.193 161.305 106.622 161.652 106.934 162.096C107.245 162.537 107.406 163.044 107.416 163.617H105.641ZM112.933 163.364V164.756H108.543V163.364H112.933ZM109.627 161.534H111.427V168.703C111.427 168.945 111.463 169.131 111.536 169.26C111.612 169.386 111.712 169.472 111.835 169.518C111.957 169.565 112.093 169.588 112.242 169.588C112.355 169.588 112.458 169.58 112.55 169.563C112.647 169.547 112.719 169.532 112.769 169.518L113.072 170.925C112.976 170.959 112.839 170.995 112.66 171.035C112.484 171.075 112.269 171.098 112.013 171.104C111.563 171.118 111.157 171.05 110.795 170.901C110.434 170.748 110.147 170.513 109.935 170.195C109.727 169.876 109.624 169.479 109.627 169.001V161.534ZM117.687 171.149C116.942 171.149 116.295 170.985 115.748 170.657C115.202 170.329 114.777 169.87 114.476 169.28C114.177 168.69 114.028 168 114.028 167.212C114.028 166.423 114.177 165.732 114.476 165.138C114.777 164.545 115.202 164.085 115.748 163.756C116.295 163.428 116.942 163.264 117.687 163.264C118.433 163.264 119.079 163.428 119.626 163.756C120.173 164.085 120.596 164.545 120.894 165.138C121.196 165.732 121.346 166.423 121.346 167.212C121.346 168 121.196 168.69 120.894 169.28C120.596 169.87 120.173 170.329 119.626 170.657C119.079 170.985 118.433 171.149 117.687 171.149ZM117.697 169.707C118.102 169.707 118.44 169.596 118.711 169.374C118.983 169.149 119.185 168.847 119.318 168.469C119.454 168.092 119.522 167.671 119.522 167.207C119.522 166.739 119.454 166.317 119.318 165.939C119.185 165.558 118.983 165.254 118.711 165.029C118.44 164.804 118.102 164.691 117.697 164.691C117.283 164.691 116.938 164.804 116.663 165.029C116.391 165.254 116.188 165.558 116.052 165.939C115.919 166.317 115.853 166.739 115.853 167.207C115.853 167.671 115.919 168.092 116.052 168.469C116.188 168.847 116.391 169.149 116.663 169.374C116.938 169.596 117.283 169.707 117.697 169.707ZM122.874 171V163.364H124.619V164.636H124.699C124.838 164.196 125.076 163.856 125.414 163.617C125.756 163.375 126.145 163.254 126.583 163.254C126.682 163.254 126.793 163.259 126.916 163.269C127.042 163.276 127.146 163.287 127.229 163.304V164.96C127.153 164.933 127.032 164.91 126.866 164.89C126.704 164.867 126.546 164.855 126.394 164.855C126.066 164.855 125.771 164.926 125.509 165.069C125.25 165.208 125.047 165.402 124.897 165.651C124.748 165.899 124.674 166.186 124.674 166.511V171H122.874ZM131.491 171.149C130.725 171.149 130.064 170.99 129.507 170.672C128.954 170.35 128.528 169.896 128.23 169.31C127.931 168.72 127.782 168.025 127.782 167.227C127.782 166.441 127.931 165.752 128.23 165.158C128.531 164.562 128.952 164.098 129.492 163.766C130.033 163.432 130.667 163.264 131.396 163.264C131.867 163.264 132.311 163.34 132.729 163.493C133.15 163.642 133.521 163.874 133.843 164.189C134.167 164.504 134.423 164.905 134.608 165.392C134.794 165.876 134.887 166.453 134.887 167.122V167.674H128.627V166.461H133.161C133.158 166.116 133.084 165.81 132.938 165.541C132.792 165.269 132.588 165.056 132.326 164.9C132.068 164.744 131.766 164.666 131.421 164.666C131.053 164.666 130.73 164.756 130.452 164.935C130.173 165.11 129.956 165.342 129.801 165.631C129.648 165.916 129.57 166.229 129.567 166.57V167.629C129.567 168.073 129.648 168.455 129.811 168.773C129.973 169.088 130.2 169.33 130.492 169.499C130.783 169.664 131.125 169.747 131.516 169.747C131.778 169.747 132.015 169.711 132.227 169.638C132.439 169.562 132.623 169.451 132.779 169.305C132.934 169.159 133.052 168.978 133.132 168.763L134.812 168.952C134.706 169.396 134.504 169.784 134.205 170.115C133.91 170.443 133.533 170.698 133.072 170.881C132.611 171.06 132.084 171.149 131.491 171.149Z" fill="white"/>
<defs>
<clipPath id="clip0_3088_13868">
<rect width="32" height="32" fill="white" transform="translate(20 60.5)"/>
</clipPath>
<clipPath id="clip1_3088_13868">
<rect width="32" height="32" fill="white" transform="translate(20 141.5)"/>
</clipPath>
</defs>
</svg>
