<svg width="142" height="48" viewBox="0 0 142 48" fill="none" xmlns="http://www.w3.org/2000/svg">
<rect x="0.5" width="141" height="48" rx="2" fill="#FA8232"/>
<path d="M41.375 24H27.625" stroke="white" stroke-width="1.5" stroke-linecap="round" stroke-linejoin="round"/>
<path d="M33.25 18.375L27.625 24L33.25 29.625" stroke="white" stroke-width="1.5" stroke-linecap="round" stroke-linejoin="round"/>
<path d="M57.729 29.14C56.8003 29.14 55.993 28.93 55.307 28.51C54.6257 28.0853 54.0983 27.4857 53.725 26.711C53.3563 25.9363 53.172 25.0217 53.172 23.967C53.172 22.8937 53.3657 21.9673 53.753 21.188C54.145 20.404 54.691 19.7997 55.391 19.375C56.091 18.9503 56.9077 18.738 57.841 18.738C58.443 18.738 58.9913 18.8337 59.486 19.025C59.9807 19.2163 60.41 19.4777 60.774 19.809C61.1427 20.1403 61.4297 20.516 61.635 20.936C61.845 21.3513 61.9593 21.783 61.978 22.231H59.822C59.7613 21.909 59.64 21.615 59.458 21.349C59.2807 21.083 59.052 20.8707 58.772 20.712C58.492 20.5487 58.1653 20.467 57.792 20.467C57.344 20.467 56.938 20.5837 56.574 20.817C56.21 21.0457 55.923 21.412 55.713 21.916C55.503 22.42 55.398 23.085 55.398 23.911C55.398 24.5783 55.4657 25.1337 55.601 25.577C55.741 26.0203 55.9277 26.3727 56.161 26.634C56.3943 26.8907 56.6603 27.0727 56.959 27.18C57.2577 27.2873 57.5633 27.341 57.876 27.341C58.1747 27.341 58.4407 27.292 58.674 27.194C58.912 27.0913 59.115 26.9607 59.283 26.802C59.451 26.6433 59.584 26.4707 59.682 26.284C59.78 26.0927 59.843 25.906 59.871 25.724L59.948 25.108H57.855V23.694L62.09 23.715V29H60.697V27.677C60.5243 27.9057 60.3097 28.1343 60.053 28.363C59.801 28.587 59.486 28.7737 59.108 28.923C58.7347 29.0677 58.275 29.14 57.729 29.14ZM68.632 29.14C67.6754 29.14 66.847 28.9323 66.147 28.517C65.4517 28.097 64.9127 27.502 64.53 26.732C64.152 25.9573 63.963 25.0333 63.963 23.96C63.963 22.882 64.1544 21.9533 64.537 21.174C64.9244 20.3947 65.468 19.795 66.168 19.375C66.868 18.9503 67.6894 18.738 68.632 18.738C69.57 18.738 70.3867 18.948 71.082 19.368C71.7774 19.788 72.314 20.3877 72.692 21.167C73.0747 21.9463 73.266 22.8773 73.266 23.96C73.266 25.0287 73.077 25.9503 72.699 26.725C72.3257 27.4997 71.7914 28.097 71.096 28.517C70.4007 28.9323 69.5794 29.14 68.632 29.14ZM68.632 27.46C69.1267 27.46 69.5537 27.3433 69.913 27.11C70.277 26.872 70.557 26.4987 70.753 25.99C70.949 25.4767 71.047 24.8093 71.047 23.988C71.047 23.1433 70.9467 22.4597 70.746 21.937C70.55 21.4143 70.27 21.0317 69.906 20.789C69.5467 20.5417 69.122 20.418 68.632 20.418C68.142 20.418 67.715 20.5417 67.351 20.789C66.987 21.0317 66.7047 21.4167 66.504 21.944C66.3034 22.4667 66.203 23.148 66.203 23.988C66.203 24.814 66.3034 25.4813 66.504 25.99C66.7047 26.4987 66.987 26.872 67.351 27.11C67.715 27.3433 68.142 27.46 68.632 27.46ZM78.3782 29V18.878H82.0462C83.3716 18.878 84.3539 19.1067 84.9932 19.564C85.6372 20.0167 85.9592 20.6723 85.9592 21.531C85.9592 22.035 85.8309 22.4737 85.5742 22.847C85.3176 23.2157 84.8602 23.5377 84.2022 23.813C84.6269 23.9203 84.9699 24.065 85.2312 24.247C85.4926 24.429 85.6932 24.632 85.8332 24.856C85.9732 25.0753 86.0689 25.3063 86.1202 25.549C86.1716 25.787 86.1972 26.0227 86.1972 26.256C86.1972 27.1893 85.8799 27.88 85.2452 28.328C84.6106 28.776 83.6002 29 82.2142 29H78.3782ZM80.4152 27.418H82.2562C82.8722 27.418 83.3366 27.2943 83.6492 27.047C83.9666 26.7997 84.1252 26.4683 84.1252 26.053C84.1252 25.7543 84.0482 25.5047 83.8942 25.304C83.7402 25.0987 83.5302 24.9447 83.2642 24.842C83.0029 24.7393 82.7042 24.688 82.3682 24.688H80.4152V27.418ZM80.4152 23.064H82.3682C82.5782 23.064 82.7789 23.0407 82.9702 22.994C83.1662 22.9427 83.3389 22.8657 83.4882 22.763C83.6422 22.6603 83.7636 22.5297 83.8522 22.371C83.9409 22.2077 83.9852 22.0163 83.9852 21.797C83.9852 21.3583 83.8196 21.027 83.4882 20.803C83.1616 20.5743 82.7416 20.46 82.2282 20.46H80.4152V23.064ZM87.2308 29L90.8568 18.878H93.0128L96.6318 29H94.5948L93.7688 26.655H90.1288L89.2818 29H87.2308ZM90.5838 24.87H93.2788L91.9418 20.852L90.5838 24.87ZM101.951 18.738C102.711 18.738 103.388 18.892 103.981 19.2C104.578 19.5033 105.059 19.9187 105.423 20.446C105.791 20.9733 106.008 21.5683 106.074 22.231H103.932C103.866 21.881 103.747 21.5707 103.575 21.3C103.402 21.0247 103.176 20.81 102.896 20.656C102.616 20.4973 102.28 20.418 101.888 20.418C101.416 20.418 101.01 20.5323 100.67 20.761C100.329 20.9897 100.068 21.3583 99.8855 21.867C99.7035 22.3757 99.6125 23.0477 99.6125 23.883C99.6125 25.143 99.8132 26.0553 100.215 26.62C100.621 27.18 101.178 27.46 101.888 27.46C102.28 27.46 102.616 27.3713 102.896 27.194C103.176 27.012 103.402 26.774 103.575 26.48C103.747 26.1813 103.866 25.8547 103.932 25.5H106.074C106.013 25.9807 105.896 26.4403 105.724 26.879C105.551 27.313 105.306 27.7003 104.989 28.041C104.671 28.3817 104.263 28.65 103.764 28.846C103.264 29.042 102.66 29.14 101.951 29.14C101.008 29.14 100.194 28.9207 99.5075 28.482C98.8215 28.0433 98.2918 27.4273 97.9185 26.634C97.5498 25.8407 97.3655 24.9143 97.3655 23.855C97.3655 22.791 97.5498 21.8787 97.9185 21.118C98.2872 20.3527 98.8145 19.7647 99.5005 19.354C100.187 18.9433 101.003 18.738 101.951 18.738ZM116.57 29H114.344L111.663 24.289L110.165 26.095V29H108.044V18.878H110.165V23.512L113.854 18.878H116.199L113.126 22.798L116.57 29Z" fill="white"/>
</svg>
