<svg width="169" height="48" viewBox="0 0 169 48" fill="none" xmlns="http://www.w3.org/2000/svg">
<rect x="1.5" y="1" width="166" height="46" rx="1" stroke="#FFE7D6" stroke-width="2"/>
<path d="M36.375 30.2498V26.4998C36.375 26.334 36.3092 26.1751 36.1919 26.0579C36.0747 25.9406 35.9158 25.8748 35.75 25.8748H33.25C33.0842 25.8748 32.9253 25.9406 32.8081 26.0579C32.6908 26.1751 32.625 26.334 32.625 26.4998V30.2498C32.625 30.4156 32.5592 30.5745 32.4419 30.6917C32.3247 30.809 32.1658 30.8748 32 30.8748H28.25C28.0842 30.8748 27.9253 30.809 27.8081 30.6917C27.6908 30.5745 27.625 30.4156 27.625 30.2498V23.0232C27.6264 22.9367 27.6451 22.8514 27.68 22.7722C27.7149 22.6931 27.7652 22.6217 27.8281 22.5623L34.0781 16.8826C34.1933 16.7772 34.3438 16.7188 34.5 16.7188C34.6562 16.7188 34.8067 16.7772 34.9219 16.8826L41.1719 22.5623C41.2348 22.6217 41.2851 22.6931 41.32 22.7722C41.3549 22.8514 41.3736 22.9367 41.375 23.0232V30.2498C41.375 30.4156 41.3092 30.5745 41.1919 30.6917C41.0747 30.809 40.9158 30.8748 40.75 30.8748H37C36.8342 30.8748 36.6753 30.809 36.5581 30.6917C36.4408 30.5745 36.375 30.4156 36.375 30.2498Z" stroke="#FA8232" stroke-width="1.5" stroke-linecap="round" stroke-linejoin="round"/>
<path d="M57.729 29.14C56.8003 29.14 55.993 28.93 55.307 28.51C54.6257 28.0853 54.0983 27.4857 53.725 26.711C53.3563 25.9363 53.172 25.0217 53.172 23.967C53.172 22.8937 53.3657 21.9673 53.753 21.188C54.145 20.404 54.691 19.7997 55.391 19.375C56.091 18.9503 56.9077 18.738 57.841 18.738C58.443 18.738 58.9913 18.8337 59.486 19.025C59.9807 19.2163 60.41 19.4777 60.774 19.809C61.1427 20.1403 61.4297 20.516 61.635 20.936C61.845 21.3513 61.9593 21.783 61.978 22.231H59.822C59.7613 21.909 59.64 21.615 59.458 21.349C59.2807 21.083 59.052 20.8707 58.772 20.712C58.492 20.5487 58.1653 20.467 57.792 20.467C57.344 20.467 56.938 20.5837 56.574 20.817C56.21 21.0457 55.923 21.412 55.713 21.916C55.503 22.42 55.398 23.085 55.398 23.911C55.398 24.5783 55.4657 25.1337 55.601 25.577C55.741 26.0203 55.9277 26.3727 56.161 26.634C56.3943 26.8907 56.6603 27.0727 56.959 27.18C57.2577 27.2873 57.5633 27.341 57.876 27.341C58.1747 27.341 58.4407 27.292 58.674 27.194C58.912 27.0913 59.115 26.9607 59.283 26.802C59.451 26.6433 59.584 26.4707 59.682 26.284C59.78 26.0927 59.843 25.906 59.871 25.724L59.948 25.108H57.855V23.694L62.09 23.715V29H60.697V27.677C60.5243 27.9057 60.3097 28.1343 60.053 28.363C59.801 28.587 59.486 28.7737 59.108 28.923C58.7347 29.0677 58.275 29.14 57.729 29.14ZM68.632 29.14C67.6754 29.14 66.847 28.9323 66.147 28.517C65.4517 28.097 64.9127 27.502 64.53 26.732C64.152 25.9573 63.963 25.0333 63.963 23.96C63.963 22.882 64.1544 21.9533 64.537 21.174C64.9244 20.3947 65.468 19.795 66.168 19.375C66.868 18.9503 67.6894 18.738 68.632 18.738C69.57 18.738 70.3867 18.948 71.082 19.368C71.7774 19.788 72.314 20.3877 72.692 21.167C73.0747 21.9463 73.266 22.8773 73.266 23.96C73.266 25.0287 73.077 25.9503 72.699 26.725C72.3257 27.4997 71.7914 28.097 71.096 28.517C70.4007 28.9323 69.5794 29.14 68.632 29.14ZM68.632 27.46C69.1267 27.46 69.5537 27.3433 69.913 27.11C70.277 26.872 70.557 26.4987 70.753 25.99C70.949 25.4767 71.047 24.8093 71.047 23.988C71.047 23.1433 70.9467 22.4597 70.746 21.937C70.55 21.4143 70.27 21.0317 69.906 20.789C69.5467 20.5417 69.122 20.418 68.632 20.418C68.142 20.418 67.715 20.5417 67.351 20.789C66.987 21.0317 66.7047 21.4167 66.504 21.944C66.3034 22.4667 66.203 23.148 66.203 23.988C66.203 24.814 66.3034 25.4813 66.504 25.99C66.7047 26.4987 66.987 26.872 67.351 27.11C67.715 27.3433 68.142 27.46 68.632 27.46ZM77.5102 20.698V18.878H85.6092V20.698H82.6202V29H80.5692V20.698H77.5102ZM91.3392 29.14C90.3825 29.14 89.5542 28.9323 88.8542 28.517C88.1588 28.097 87.6198 27.502 87.2372 26.732C86.8592 25.9573 86.6702 25.0333 86.6702 23.96C86.6702 22.882 86.8615 21.9533 87.2442 21.174C87.6315 20.3947 88.1752 19.795 88.8752 19.375C89.5752 18.9503 90.3965 18.738 91.3392 18.738C92.2772 18.738 93.0938 18.948 93.7892 19.368C94.4845 19.788 95.0212 20.3877 95.3992 21.167C95.7818 21.9463 95.9732 22.8773 95.9732 23.96C95.9732 25.0287 95.7842 25.9503 95.4062 26.725C95.0328 27.4997 94.4985 28.097 93.8032 28.517C93.1078 28.9323 92.2865 29.14 91.3392 29.14ZM91.3392 27.46C91.8338 27.46 92.2608 27.3433 92.6202 27.11C92.9842 26.872 93.2642 26.4987 93.4602 25.99C93.6562 25.4767 93.7542 24.8093 93.7542 23.988C93.7542 23.1433 93.6538 22.4597 93.4532 21.937C93.2572 21.4143 92.9772 21.0317 92.6132 20.789C92.2538 20.5417 91.8292 20.418 91.3392 20.418C90.8492 20.418 90.4222 20.5417 90.0582 20.789C89.6942 21.0317 89.4118 21.4167 89.2112 21.944C89.0105 22.4667 88.9102 23.148 88.9102 23.988C88.9102 24.814 89.0105 25.4813 89.2112 25.99C89.4118 26.4987 89.6942 26.872 90.0582 27.11C90.4222 27.3433 90.8492 27.46 91.3392 27.46ZM107.553 24.653H103.122V29H101.085V18.878H103.122V22.938H107.553V18.878H109.597V29H107.553V24.653ZM116.234 29.14C115.277 29.14 114.449 28.9323 113.749 28.517C113.053 28.097 112.514 27.502 112.132 26.732C111.754 25.9573 111.565 25.0333 111.565 23.96C111.565 22.882 111.756 21.9533 112.139 21.174C112.526 20.3947 113.07 19.795 113.77 19.375C114.47 18.9503 115.291 18.738 116.234 18.738C117.172 18.738 117.988 18.948 118.684 19.368C119.379 19.788 119.916 20.3877 120.294 21.167C120.676 21.9463 120.868 22.8773 120.868 23.96C120.868 25.0287 120.679 25.9503 120.301 26.725C119.927 27.4997 119.393 28.097 118.698 28.517C118.002 28.9323 117.181 29.14 116.234 29.14ZM116.234 27.46C116.728 27.46 117.155 27.3433 117.515 27.11C117.879 26.872 118.159 26.4987 118.355 25.99C118.551 25.4767 118.649 24.8093 118.649 23.988C118.649 23.1433 118.548 22.4597 118.348 21.937C118.152 21.4143 117.872 21.0317 117.508 20.789C117.148 20.5417 116.724 20.418 116.234 20.418C115.744 20.418 115.317 20.5417 114.953 20.789C114.589 21.0317 114.306 21.4167 114.106 21.944C113.905 22.4667 113.805 23.148 113.805 23.988C113.805 24.814 113.905 25.4813 114.106 25.99C114.306 26.4987 114.589 26.872 114.953 27.11C115.317 27.3433 115.744 27.46 116.234 27.46ZM122.845 29V18.878H125.813L128.13 26.095L130.468 18.878H133.429V29H131.364V21.258L128.928 29H127.325L124.903 21.293V29H122.845ZM135.865 29V18.878H142.816L142.809 20.6H137.916V23.057H142.165V24.744H137.902V27.257L142.886 27.264V29H135.865Z" fill="#FA8232"/>
</svg>
