<svg width="159" height="48" viewBox="0 0 159 48" fill="none" xmlns="http://www.w3.org/2000/svg">
<rect width="159" height="48" rx="2" fill="#2DA5F3"/>
<path d="M24.385 29L28.011 18.878H30.167L33.786 29H31.749L30.923 26.655H27.283L26.436 29H24.385ZM27.738 24.87H30.433L29.096 20.852L27.738 24.87ZM35.4739 29V18.878H39.1979C39.9352 18.878 40.5955 19.0063 41.1789 19.263C41.7622 19.515 42.2219 19.8883 42.5579 20.383C42.8985 20.8777 43.0689 21.482 43.0689 22.196C43.0689 22.868 42.9195 23.442 42.6209 23.918C42.3222 24.394 41.9022 24.758 41.3609 25.01C40.8242 25.262 40.1919 25.388 39.4639 25.388H37.5319V29H35.4739ZM37.5109 23.806H39.4079C39.9212 23.806 40.3412 23.6427 40.6679 23.316C40.9945 22.9847 41.1579 22.5763 41.1579 22.091C41.1579 21.587 40.9852 21.188 40.6399 20.894C40.2945 20.5953 39.8745 20.446 39.3799 20.446H37.5109V23.806ZM44.7747 29V18.878H48.4987C49.236 18.878 49.8964 19.0063 50.4797 19.263C51.063 19.515 51.5227 19.8883 51.8587 20.383C52.1994 20.8777 52.3697 21.482 52.3697 22.196C52.3697 22.868 52.2204 23.442 51.9217 23.918C51.623 24.394 51.203 24.758 50.6617 25.01C50.125 25.262 49.4927 25.388 48.7647 25.388H46.8327V29H44.7747ZM46.8117 23.806H48.7087C49.222 23.806 49.642 23.6427 49.9687 23.316C50.2954 22.9847 50.4587 22.5763 50.4587 22.091C50.4587 21.587 50.286 21.188 49.9407 20.894C49.5954 20.5953 49.1754 20.446 48.6807 20.446H46.8117V23.806ZM54.0755 18.878H56.1335V27.271H60.5295V29H54.0755V18.878ZM68.9387 18.878L65.4177 24.744V29H63.3737V24.737L59.8597 18.878H62.0717L64.4027 22.98L66.7057 18.878H68.9387ZM77.2962 18.738C78.0569 18.738 78.7336 18.892 79.3262 19.2C79.9236 19.5033 80.4042 19.9187 80.7683 20.446C81.1369 20.9733 81.3539 21.5683 81.4192 22.231H79.2772C79.2119 21.881 79.0929 21.5707 78.9202 21.3C78.7476 21.0247 78.5212 20.81 78.2412 20.656C77.9612 20.4973 77.6252 20.418 77.2332 20.418C76.7619 20.418 76.3559 20.5323 76.0152 20.761C75.6746 20.9897 75.4132 21.3583 75.2312 21.867C75.0492 22.3757 74.9582 23.0477 74.9582 23.883C74.9582 25.143 75.1589 26.0553 75.5602 26.62C75.9662 27.18 76.5239 27.46 77.2332 27.46C77.6252 27.46 77.9612 27.3713 78.2412 27.194C78.5212 27.012 78.7476 26.774 78.9202 26.48C79.0929 26.1813 79.2119 25.8547 79.2772 25.5H81.4192C81.3586 25.9807 81.2419 26.4403 81.0692 26.879C80.8966 27.313 80.6516 27.7003 80.3342 28.041C80.0169 28.3817 79.6086 28.65 79.1092 28.846C78.6099 29.042 78.0056 29.14 77.2962 29.14C76.3536 29.14 75.5392 28.9207 74.8532 28.482C74.1672 28.0433 73.6376 27.4273 73.2642 26.634C72.8956 25.8407 72.7112 24.9143 72.7112 23.855C72.7112 22.791 72.8956 21.8787 73.2642 21.118C73.6329 20.3527 74.1602 19.7647 74.8462 19.354C75.5322 18.9433 76.3489 18.738 77.2962 18.738ZM87.5971 29.14C86.6404 29.14 85.8121 28.9323 85.1121 28.517C84.4167 28.097 83.8777 27.502 83.4951 26.732C83.1171 25.9573 82.9281 25.0333 82.9281 23.96C82.9281 22.882 83.1194 21.9533 83.5021 21.174C83.8894 20.3947 84.4331 19.795 85.1331 19.375C85.8331 18.9503 86.6544 18.738 87.5971 18.738C88.5351 18.738 89.3517 18.948 90.0471 19.368C90.7424 19.788 91.2791 20.3877 91.6571 21.167C92.0397 21.9463 92.2311 22.8773 92.2311 23.96C92.2311 25.0287 92.0421 25.9503 91.6641 26.725C91.2907 27.4997 90.7564 28.097 90.0611 28.517C89.3657 28.9323 88.5444 29.14 87.5971 29.14ZM87.5971 27.46C88.0917 27.46 88.5187 27.3433 88.8781 27.11C89.2421 26.872 89.5221 26.4987 89.7181 25.99C89.9141 25.4767 90.0121 24.8093 90.0121 23.988C90.0121 23.1433 89.9117 22.4597 89.7111 21.937C89.5151 21.4143 89.2351 21.0317 88.8711 20.789C88.5117 20.5417 88.0871 20.418 87.5971 20.418C87.1071 20.418 86.6801 20.5417 86.3161 20.789C85.9521 21.0317 85.6697 21.4167 85.4691 21.944C85.2684 22.4667 85.1681 23.148 85.1681 23.988C85.1681 24.814 85.2684 25.4813 85.4691 25.99C85.6697 26.4987 85.9521 26.872 86.3161 27.11C86.6801 27.3433 87.1071 27.46 87.5971 27.46ZM102.184 25.143C102.184 25.9597 102.051 26.669 101.785 27.271C101.519 27.8683 101.088 28.3303 100.49 28.657C99.8978 28.979 99.1114 29.14 98.1314 29.14C97.1468 29.14 96.3581 28.9767 95.7654 28.65C95.1728 28.3187 94.7434 27.8497 94.4774 27.243C94.2161 26.6363 94.0854 25.913 94.0854 25.073V18.878H96.1644V25.227C96.1644 25.983 96.3464 26.536 96.7104 26.886C97.0744 27.2313 97.5481 27.404 98.1314 27.404C98.5188 27.404 98.8618 27.3293 99.1604 27.18C99.4591 27.026 99.6924 26.7903 99.8604 26.473C100.033 26.151 100.119 25.7357 100.119 25.227V18.878H102.184V25.143ZM104.384 29V18.878H108.108C108.846 18.878 109.506 19.0063 110.089 19.263C110.673 19.515 111.132 19.8883 111.468 20.383C111.809 20.8777 111.979 21.482 111.979 22.196C111.979 22.868 111.83 23.442 111.531 23.918C111.233 24.394 110.813 24.758 110.271 25.01C109.735 25.262 109.102 25.388 108.374 25.388H106.442V29H104.384ZM106.421 23.806H108.318C108.832 23.806 109.252 23.6427 109.578 23.316C109.905 22.9847 110.068 22.5763 110.068 22.091C110.068 21.587 109.896 21.188 109.55 20.894C109.205 20.5953 108.785 20.446 108.29 20.446H106.421V23.806ZM117.906 29.14C116.949 29.14 116.121 28.9323 115.421 28.517C114.725 28.097 114.186 27.502 113.804 26.732C113.426 25.9573 113.237 25.0333 113.237 23.96C113.237 22.882 113.428 21.9533 113.811 21.174C114.198 20.3947 114.742 19.795 115.442 19.375C116.142 18.9503 116.963 18.738 117.906 18.738C118.844 18.738 119.66 18.948 120.356 19.368C121.051 19.788 121.588 20.3877 121.966 21.167C122.348 21.9463 122.54 22.8773 122.54 23.96C122.54 25.0287 122.351 25.9503 121.973 26.725C121.599 27.4997 121.065 28.097 120.37 28.517C119.674 28.9323 118.853 29.14 117.906 29.14ZM117.906 27.46C118.4 27.46 118.827 27.3433 119.187 27.11C119.551 26.872 119.831 26.4987 120.027 25.99C120.223 25.4767 120.321 24.8093 120.321 23.988C120.321 23.1433 120.22 22.4597 120.02 21.937C119.824 21.4143 119.544 21.0317 119.18 20.789C118.82 20.5417 118.396 20.418 117.906 20.418C117.416 20.418 116.989 20.5417 116.625 20.789C116.261 21.0317 115.978 21.4167 115.778 21.944C115.577 22.4667 115.477 23.148 115.477 23.988C115.477 24.814 115.577 25.4813 115.778 25.99C115.978 26.4987 116.261 26.872 116.625 27.11C116.989 27.3433 117.416 27.46 117.906 27.46ZM131.16 18.878H133.204V29H131.363L126.554 22.035V29H124.517V18.878H126.54L131.16 25.577V18.878Z" fill="white"/>
</svg>
