<svg width="872" height="38" viewBox="0 0 872 38" fill="none" xmlns="http://www.w3.org/2000/svg">
<rect x="0.5" y="0.5" width="871" height="37" fill="#F2F4F5"/>
<rect x="0.5" y="0.5" width="871" height="37" stroke="#E4E7E9"/>
<path d="M25.098 23V14.324H28.104C28.724 14.324 29.278 14.43 29.766 14.642C30.258 14.854 30.644 15.166 30.924 15.578C31.208 15.99 31.35 16.496 31.35 17.096C31.35 17.672 31.22 18.164 30.96 18.572C30.704 18.976 30.344 19.286 29.88 19.502C29.42 19.714 28.886 19.82 28.278 19.82H26.406V23H25.098ZM26.4 18.77H28.242C28.794 18.77 29.244 18.612 29.592 18.296C29.94 17.976 30.114 17.552 30.114 17.024C30.114 16.488 29.934 16.078 29.574 15.794C29.214 15.506 28.754 15.362 28.194 15.362H26.4V18.77ZM39.1335 23H37.7835L36.2475 19.37H34.0695V23H32.7855V14.324H36.2295C36.8735 14.324 37.4075 14.424 37.8315 14.624C38.2555 14.82 38.5715 15.1 38.7795 15.464C38.9875 15.828 39.0915 16.258 39.0915 16.754C39.0915 17.222 39.0115 17.612 38.8515 17.924C38.6955 18.236 38.4915 18.49 38.2395 18.686C37.9915 18.882 37.7295 19.036 37.4535 19.148L39.1335 23ZM35.8815 18.332C36.4855 18.332 36.9535 18.202 37.2855 17.942C37.6175 17.678 37.7835 17.302 37.7835 16.814C37.7835 16.334 37.6315 15.97 37.3275 15.722C37.0275 15.474 36.6195 15.35 36.1035 15.35H34.0695V18.332H35.8815ZM44.1906 23.12C43.4026 23.12 42.7206 22.946 42.1446 22.598C41.5726 22.246 41.1306 21.74 40.8186 21.08C40.5106 20.416 40.3566 19.616 40.3566 18.68C40.3566 17.736 40.5126 16.932 40.8246 16.268C41.1406 15.6 41.5846 15.09 42.1566 14.738C42.7326 14.382 43.4106 14.204 44.1906 14.204C44.9666 14.204 45.6386 14.382 46.2066 14.738C46.7786 15.09 47.2186 15.6 47.5266 16.268C47.8386 16.932 47.9946 17.736 47.9946 18.68C47.9946 19.616 47.8406 20.414 47.5326 21.074C47.2246 21.734 46.7846 22.24 46.2126 22.592C45.6446 22.944 44.9706 23.12 44.1906 23.12ZM44.1906 22.022C44.6946 22.022 45.1246 21.906 45.4806 21.674C45.8406 21.442 46.1146 21.08 46.3026 20.588C46.4906 20.096 46.5846 19.466 46.5846 18.698C46.5846 17.91 46.4886 17.266 46.2966 16.766C46.1086 16.266 45.8346 15.898 45.4746 15.662C45.1186 15.422 44.6906 15.302 44.1906 15.302C43.6906 15.302 43.2586 15.422 42.8946 15.662C42.5346 15.902 42.2566 16.272 42.0606 16.772C41.8646 17.272 41.7666 17.914 41.7666 18.698C41.7666 19.47 41.8646 20.102 42.0606 20.594C42.2566 21.082 42.5346 21.442 42.8946 21.674C43.2586 21.906 43.6906 22.022 44.1906 22.022ZM49.7191 14.324C49.7511 14.324 49.8451 14.326 50.0011 14.33C50.1611 14.33 50.3531 14.33 50.5771 14.33C50.8011 14.326 51.0291 14.326 51.2611 14.33C51.4971 14.33 51.7071 14.332 51.8911 14.336C52.9511 14.352 53.8131 14.528 54.4771 14.864C55.1411 15.2 55.6271 15.684 55.9351 16.316C56.2471 16.944 56.4031 17.71 56.4031 18.614C56.4031 19.554 56.2371 20.352 55.9051 21.008C55.5731 21.66 55.0651 22.156 54.3811 22.496C53.7011 22.832 52.8391 23 51.7951 23H49.7191V14.324ZM51.0271 15.404V21.92H51.8071C52.4631 21.92 53.0331 21.814 53.5171 21.602C54.0051 21.386 54.3831 21.038 54.6511 20.558C54.9191 20.074 55.0531 19.428 55.0531 18.62C55.0531 17.828 54.9251 17.198 54.6691 16.73C54.4131 16.258 54.0451 15.92 53.5651 15.716C53.0891 15.508 52.5151 15.404 51.8431 15.404H51.0271ZM64.6314 19.916C64.6314 20.592 64.5194 21.17 64.2954 21.65C64.0714 22.126 63.7194 22.49 63.2394 22.742C62.7634 22.994 62.1414 23.12 61.3734 23.12C60.5974 23.12 59.9694 22.992 59.4894 22.736C59.0134 22.48 58.6654 22.106 58.4454 21.614C58.2294 21.122 58.1214 20.522 58.1214 19.814V14.324H59.4474V19.976C59.4474 20.664 59.6154 21.176 59.9514 21.512C60.2914 21.844 60.7654 22.01 61.3734 22.01C61.7774 22.01 62.1254 21.938 62.4174 21.794C62.7134 21.646 62.9394 21.422 63.0954 21.122C63.2514 20.818 63.3294 20.436 63.3294 19.976V14.324H64.6314V19.916ZM69.8878 14.204C70.5118 14.204 71.0658 14.332 71.5498 14.588C72.0338 14.844 72.4218 15.188 72.7138 15.62C73.0098 16.052 73.1858 16.53 73.2418 17.054H71.8738C71.8138 16.726 71.6978 16.43 71.5258 16.166C71.3578 15.898 71.1338 15.688 70.8538 15.536C70.5738 15.38 70.2418 15.302 69.8578 15.302C69.3658 15.302 68.9478 15.418 68.6038 15.65C68.2598 15.882 67.9978 16.244 67.8178 16.736C67.6418 17.228 67.5538 17.862 67.5538 18.638C67.5538 19.81 67.7518 20.668 68.1478 21.212C68.5438 21.752 69.1138 22.022 69.8578 22.022C70.2418 22.022 70.5738 21.94 70.8538 21.776C71.1338 21.608 71.3578 21.386 71.5258 21.11C71.6978 20.83 71.8138 20.526 71.8738 20.198H73.2418C73.1938 20.578 73.0938 20.944 72.9418 21.296C72.7898 21.644 72.5778 21.956 72.3058 22.232C72.0378 22.508 71.7038 22.726 71.3038 22.886C70.9038 23.042 70.4318 23.12 69.8878 23.12C69.1038 23.12 68.4318 22.94 67.8718 22.58C67.3118 22.216 66.8818 21.7 66.5818 21.032C66.2858 20.36 66.1378 19.556 66.1378 18.62C66.1378 17.688 66.2858 16.894 66.5818 16.238C66.8778 15.578 67.3058 15.074 67.8658 14.726C68.4258 14.378 69.0998 14.204 69.8878 14.204ZM73.9281 15.494V14.324H80.5941V15.494H77.9721V23H76.6761V15.494H73.9281ZM84.9991 23.12C84.5871 23.12 84.1851 23.068 83.7931 22.964C83.4011 22.86 83.0451 22.706 82.7251 22.502C82.4051 22.294 82.1391 22.036 81.9271 21.728C81.7191 21.42 81.5891 21.06 81.5371 20.648H82.8751C82.9431 20.96 83.0771 21.222 83.2771 21.434C83.4811 21.646 83.7311 21.806 84.0271 21.914C84.3231 22.022 84.6451 22.076 84.9931 22.076C85.3771 22.076 85.7211 22.024 86.0251 21.92C86.3331 21.812 86.5771 21.66 86.7571 21.464C86.9371 21.264 87.0271 21.024 87.0271 20.744C87.0271 20.492 86.9651 20.278 86.8411 20.102C86.7211 19.926 86.5491 19.78 86.3251 19.664C86.1051 19.544 85.8391 19.45 85.5271 19.382L83.8831 19.01C83.2391 18.874 82.7311 18.622 82.3591 18.254C81.9911 17.882 81.8051 17.39 81.8011 16.778C81.7971 16.266 81.9311 15.818 82.2031 15.434C82.4791 15.05 82.8551 14.752 83.3311 14.54C83.8071 14.324 84.3491 14.216 84.9571 14.216C85.6651 14.216 86.2591 14.334 86.7391 14.57C87.2231 14.806 87.5891 15.118 87.8371 15.506C88.0851 15.89 88.2111 16.308 88.2151 16.76H86.9011C86.8691 16.392 86.7611 16.1 86.5771 15.884C86.3931 15.668 86.1611 15.514 85.8811 15.422C85.6051 15.326 85.3011 15.278 84.9691 15.278C84.7291 15.278 84.4991 15.308 84.2791 15.368C84.0591 15.428 83.8651 15.516 83.6971 15.632C83.5291 15.748 83.3951 15.892 83.2951 16.064C83.1991 16.232 83.1511 16.426 83.1511 16.646C83.1511 16.942 83.2511 17.182 83.4511 17.366C83.6511 17.55 84.0191 17.708 84.5551 17.84L86.1631 18.206C86.6231 18.302 86.9951 18.444 87.2791 18.632C87.5631 18.816 87.7811 19.026 87.9331 19.262C88.0851 19.498 88.1891 19.744 88.2451 20C88.3011 20.252 88.3291 20.494 88.3291 20.726C88.3291 21.174 88.1951 21.58 87.9271 21.944C87.6591 22.304 87.2771 22.59 86.7811 22.802C86.2851 23.014 85.6911 23.12 84.9991 23.12Z" fill="#475156"/>
<path d="M429.098 23V14.324H432.104C432.724 14.324 433.278 14.43 433.766 14.642C434.258 14.854 434.644 15.166 434.924 15.578C435.208 15.99 435.35 16.496 435.35 17.096C435.35 17.672 435.22 18.164 434.96 18.572C434.704 18.976 434.344 19.286 433.88 19.502C433.42 19.714 432.886 19.82 432.278 19.82H430.406V23H429.098ZM430.4 18.77H432.242C432.794 18.77 433.244 18.612 433.592 18.296C433.94 17.976 434.114 17.552 434.114 17.024C434.114 16.488 433.934 16.078 433.574 15.794C433.214 15.506 432.754 15.362 432.194 15.362H430.4V18.77ZM443.134 23H441.784L440.248 19.37H438.07V23H436.786V14.324H440.23C440.874 14.324 441.408 14.424 441.832 14.624C442.256 14.82 442.572 15.1 442.78 15.464C442.988 15.828 443.092 16.258 443.092 16.754C443.092 17.222 443.012 17.612 442.852 17.924C442.696 18.236 442.492 18.49 442.24 18.686C441.992 18.882 441.73 19.036 441.454 19.148L443.134 23ZM439.882 18.332C440.486 18.332 440.954 18.202 441.286 17.942C441.618 17.678 441.784 17.302 441.784 16.814C441.784 16.334 441.632 15.97 441.328 15.722C441.028 15.474 440.62 15.35 440.104 15.35H438.07V18.332H439.882ZM444.965 14.324H446.249V23H444.965V14.324ZM451.728 14.204C452.352 14.204 452.906 14.332 453.39 14.588C453.874 14.844 454.262 15.188 454.554 15.62C454.85 16.052 455.026 16.53 455.082 17.054H453.714C453.654 16.726 453.538 16.43 453.366 16.166C453.198 15.898 452.974 15.688 452.694 15.536C452.414 15.38 452.082 15.302 451.698 15.302C451.206 15.302 450.788 15.418 450.444 15.65C450.1 15.882 449.838 16.244 449.658 16.736C449.482 17.228 449.394 17.862 449.394 18.638C449.394 19.81 449.592 20.668 449.988 21.212C450.384 21.752 450.954 22.022 451.698 22.022C452.082 22.022 452.414 21.94 452.694 21.776C452.974 21.608 453.198 21.386 453.366 21.11C453.538 20.83 453.654 20.526 453.714 20.198H455.082C455.034 20.578 454.934 20.944 454.782 21.296C454.63 21.644 454.418 21.956 454.146 22.232C453.878 22.508 453.544 22.726 453.144 22.886C452.744 23.042 452.272 23.12 451.728 23.12C450.944 23.12 450.272 22.94 449.712 22.58C449.152 22.216 448.722 21.7 448.422 21.032C448.126 20.36 447.978 19.556 447.978 18.62C447.978 17.688 448.126 16.894 448.422 16.238C448.718 15.578 449.146 15.074 449.706 14.726C450.266 14.378 450.94 14.204 451.728 14.204ZM456.801 23V14.324H462.405L462.399 15.44H458.091V18.074H461.937V19.172H458.085V21.866L462.507 21.872V23H456.801Z" fill="#475156"/>
<path d="M540.63 18.68C540.63 17.732 540.786 16.926 541.098 16.262C541.41 15.594 541.852 15.084 542.424 14.732C542.996 14.38 543.674 14.204 544.458 14.204C545.238 14.204 545.914 14.38 546.486 14.732C547.058 15.084 547.498 15.594 547.806 16.262C548.114 16.926 548.268 17.732 548.268 18.68C548.268 19.548 548.138 20.298 547.878 20.93C547.622 21.558 547.212 22.068 546.648 22.46C546.78 22.76 546.986 22.986 547.266 23.138C547.55 23.294 547.864 23.378 548.208 23.39V24.458C547.9 24.458 547.586 24.424 547.266 24.356C546.946 24.288 546.632 24.15 546.324 23.942C546.02 23.738 545.736 23.43 545.472 23.018C545.272 23.05 545.092 23.074 544.932 23.09C544.776 23.11 544.618 23.12 544.458 23.12C543.678 23.12 543.002 22.948 542.43 22.604C541.858 22.26 541.414 21.758 541.098 21.098C540.786 20.434 540.63 19.628 540.63 18.68ZM542.046 18.704C542.046 19.86 542.256 20.702 542.676 21.23C543.1 21.758 543.694 22.022 544.458 22.022C545.222 22.022 545.814 21.758 546.234 21.23C546.658 20.698 546.87 19.852 546.87 18.692C546.87 17.532 546.66 16.678 546.24 16.13C545.824 15.578 545.23 15.302 544.458 15.302C543.686 15.302 543.09 15.578 542.67 16.13C542.254 16.682 542.046 17.54 542.046 18.704ZM556.514 19.916C556.514 20.592 556.402 21.17 556.178 21.65C555.954 22.126 555.602 22.49 555.122 22.742C554.646 22.994 554.024 23.12 553.256 23.12C552.48 23.12 551.852 22.992 551.372 22.736C550.896 22.48 550.548 22.106 550.328 21.614C550.112 21.122 550.004 20.522 550.004 19.814V14.324H551.33V19.976C551.33 20.664 551.498 21.176 551.834 21.512C552.174 21.844 552.648 22.01 553.256 22.01C553.66 22.01 554.008 21.938 554.3 21.794C554.596 21.646 554.822 21.422 554.978 21.122C555.134 20.818 555.212 20.436 555.212 19.976V14.324H556.514V19.916ZM557.395 23L560.527 14.324H561.943L565.069 23H563.773L562.957 20.726H559.531L558.697 23H557.395ZM559.837 19.562H562.627L561.241 15.584L559.837 19.562ZM572.279 14.324H573.569V23H572.417L567.905 16.394V23H566.621V14.324H567.863L572.279 20.792V14.324ZM574.928 15.494V14.324H581.594V15.494H578.972V23H577.676V15.494H574.928ZM582.957 14.324H584.241V23H582.957V14.324ZM585.604 15.494V14.324H592.27V15.494H589.648V23H588.352V15.494H585.604ZM600.401 14.324L597.443 19.322V23H596.159V19.316L593.183 14.324H594.587L596.807 18.182L598.997 14.324H600.401Z" fill="#475156"/>
<path d="M740.128 23.12C739.716 23.12 739.314 23.068 738.922 22.964C738.53 22.86 738.174 22.706 737.854 22.502C737.534 22.294 737.268 22.036 737.056 21.728C736.848 21.42 736.718 21.06 736.666 20.648H738.004C738.072 20.96 738.206 21.222 738.406 21.434C738.61 21.646 738.86 21.806 739.156 21.914C739.452 22.022 739.774 22.076 740.122 22.076C740.506 22.076 740.85 22.024 741.154 21.92C741.462 21.812 741.706 21.66 741.886 21.464C742.066 21.264 742.156 21.024 742.156 20.744C742.156 20.492 742.094 20.278 741.97 20.102C741.85 19.926 741.678 19.78 741.454 19.664C741.234 19.544 740.968 19.45 740.656 19.382L739.012 19.01C738.368 18.874 737.86 18.622 737.488 18.254C737.12 17.882 736.934 17.39 736.93 16.778C736.926 16.266 737.06 15.818 737.332 15.434C737.608 15.05 737.984 14.752 738.46 14.54C738.936 14.324 739.478 14.216 740.086 14.216C740.794 14.216 741.388 14.334 741.868 14.57C742.352 14.806 742.718 15.118 742.966 15.506C743.214 15.89 743.34 16.308 743.344 16.76H742.03C741.998 16.392 741.89 16.1 741.706 15.884C741.522 15.668 741.29 15.514 741.01 15.422C740.734 15.326 740.43 15.278 740.098 15.278C739.858 15.278 739.628 15.308 739.408 15.368C739.188 15.428 738.994 15.516 738.826 15.632C738.658 15.748 738.524 15.892 738.424 16.064C738.328 16.232 738.28 16.426 738.28 16.646C738.28 16.942 738.38 17.182 738.58 17.366C738.78 17.55 739.148 17.708 739.684 17.84L741.292 18.206C741.752 18.302 742.124 18.444 742.408 18.632C742.692 18.816 742.91 19.026 743.062 19.262C743.214 19.498 743.318 19.744 743.374 20C743.43 20.252 743.458 20.494 743.458 20.726C743.458 21.174 743.324 21.58 743.056 21.944C742.788 22.304 742.406 22.59 741.91 22.802C741.414 23.014 740.82 23.12 740.128 23.12ZM751.753 19.916C751.753 20.592 751.641 21.17 751.417 21.65C751.193 22.126 750.841 22.49 750.361 22.742C749.885 22.994 749.263 23.12 748.495 23.12C747.719 23.12 747.091 22.992 746.611 22.736C746.135 22.48 745.787 22.106 745.567 21.614C745.351 21.122 745.243 20.522 745.243 19.814V14.324H746.569V19.976C746.569 20.664 746.737 21.176 747.073 21.512C747.413 21.844 747.887 22.01 748.495 22.01C748.899 22.01 749.247 21.938 749.539 21.794C749.835 21.646 750.061 21.422 750.217 21.122C750.373 20.818 750.451 20.436 750.451 19.976V14.324H751.753V19.916ZM753.727 23V14.324H756.613C757.689 14.324 758.499 14.518 759.043 14.906C759.591 15.294 759.865 15.854 759.865 16.586C759.865 17.038 759.747 17.428 759.511 17.756C759.279 18.08 758.871 18.352 758.287 18.572C758.631 18.648 758.919 18.758 759.151 18.902C759.383 19.042 759.565 19.204 759.697 19.388C759.833 19.572 759.929 19.772 759.985 19.988C760.045 20.204 760.075 20.428 760.075 20.66C760.075 21.448 759.797 22.036 759.241 22.424C758.689 22.808 757.847 23 756.715 23H753.727ZM755.011 21.956H756.721C757.393 21.956 757.903 21.842 758.251 21.614C758.599 21.382 758.773 21.036 758.773 20.576C758.773 20.244 758.687 19.972 758.515 19.76C758.343 19.548 758.111 19.392 757.819 19.292C757.527 19.192 757.201 19.142 756.841 19.142H755.011V21.956ZM755.011 18.08H756.841C757.057 18.08 757.269 18.058 757.477 18.014C757.685 17.97 757.875 17.898 758.047 17.798C758.219 17.694 758.357 17.556 758.461 17.384C758.565 17.212 758.617 17.002 758.617 16.754C758.617 16.282 758.439 15.932 758.083 15.704C757.727 15.476 757.265 15.362 756.697 15.362H755.011V18.08ZM764.467 19.412V20.39L761.359 20.402V19.418L764.467 19.412ZM763.92 15.494V14.324H770.586V15.494H767.964V23H766.668V15.494H763.92ZM775.245 23.12C774.457 23.12 773.775 22.946 773.199 22.598C772.627 22.246 772.185 21.74 771.873 21.08C771.565 20.416 771.411 19.616 771.411 18.68C771.411 17.736 771.567 16.932 771.879 16.268C772.195 15.6 772.639 15.09 773.211 14.738C773.787 14.382 774.465 14.204 775.245 14.204C776.021 14.204 776.693 14.382 777.261 14.738C777.833 15.09 778.273 15.6 778.581 16.268C778.893 16.932 779.049 17.736 779.049 18.68C779.049 19.616 778.895 20.414 778.587 21.074C778.279 21.734 777.839 22.24 777.267 22.592C776.699 22.944 776.025 23.12 775.245 23.12ZM775.245 22.022C775.749 22.022 776.179 21.906 776.535 21.674C776.895 21.442 777.169 21.08 777.357 20.588C777.545 20.096 777.639 19.466 777.639 18.698C777.639 17.91 777.543 17.266 777.351 16.766C777.163 16.266 776.889 15.898 776.529 15.662C776.173 15.422 775.745 15.302 775.245 15.302C774.745 15.302 774.313 15.422 773.949 15.662C773.589 15.902 773.311 16.272 773.115 16.772C772.919 17.272 772.821 17.914 772.821 18.698C772.821 19.47 772.919 20.102 773.115 20.594C773.311 21.082 773.589 21.442 773.949 21.674C774.313 21.906 774.745 22.022 775.245 22.022ZM780.034 15.494V14.324H786.7V15.494H784.078V23H782.782V15.494H780.034ZM786.419 23L789.551 14.324H790.967L794.093 23H792.797L791.981 20.726H788.555L787.721 23H786.419ZM788.861 19.562H791.651L790.265 15.584L788.861 19.562ZM795.651 14.324H796.953V21.872H800.961V23H795.645L795.651 14.324Z" fill="#475156"/>
</svg>
