<svg width="360" height="48" viewBox="0 0 360 48" fill="none" xmlns="http://www.w3.org/2000/svg">
<rect width="360" height="48" rx="2" fill="#FA8232"/>
<path d="M144.634 18.878H146.692V27.271H151.088V29H144.634V18.878ZM156.816 29.14C155.859 29.14 155.031 28.9323 154.331 28.517C153.635 28.097 153.096 27.502 152.714 26.732C152.336 25.9573 152.147 25.0333 152.147 23.96C152.147 22.882 152.338 21.9533 152.721 21.174C153.108 20.3947 153.652 19.795 154.352 19.375C155.052 18.9503 155.873 18.738 156.816 18.738C157.754 18.738 158.57 18.948 159.266 19.368C159.961 19.788 160.498 20.3877 160.876 21.167C161.258 21.9463 161.45 22.8773 161.45 23.96C161.45 25.0287 161.261 25.9503 160.883 26.725C160.509 27.4997 159.975 28.097 159.28 28.517C158.584 28.9323 157.763 29.14 156.816 29.14ZM156.816 27.46C157.31 27.46 157.737 27.3433 158.097 27.11C158.461 26.872 158.741 26.4987 158.937 25.99C159.133 25.4767 159.231 24.8093 159.231 23.988C159.231 23.1433 159.13 22.4597 158.93 21.937C158.734 21.4143 158.454 21.0317 158.09 20.789C157.73 20.5417 157.306 20.418 156.816 20.418C156.326 20.418 155.899 20.5417 155.535 20.789C155.171 21.0317 154.888 21.4167 154.688 21.944C154.487 22.4667 154.387 23.148 154.387 23.988C154.387 24.814 154.487 25.4813 154.688 25.99C154.888 26.4987 155.171 26.872 155.535 27.11C155.899 27.3433 156.326 27.46 156.816 27.46ZM167.426 29.14C166.498 29.14 165.69 28.93 165.004 28.51C164.323 28.0853 163.796 27.4857 163.422 26.711C163.054 25.9363 162.869 25.0217 162.869 23.967C162.869 22.8937 163.063 21.9673 163.45 21.188C163.842 20.404 164.388 19.7997 165.088 19.375C165.788 18.9503 166.605 18.738 167.538 18.738C168.14 18.738 168.689 18.8337 169.183 19.025C169.678 19.2163 170.107 19.4777 170.471 19.809C170.84 20.1403 171.127 20.516 171.332 20.936C171.542 21.3513 171.657 21.783 171.675 22.231H169.519C169.459 21.909 169.337 21.615 169.155 21.349C168.978 21.083 168.749 20.8707 168.469 20.712C168.189 20.5487 167.863 20.467 167.489 20.467C167.041 20.467 166.635 20.5837 166.271 20.817C165.907 21.0457 165.62 21.412 165.41 21.916C165.2 22.42 165.095 23.085 165.095 23.911C165.095 24.5783 165.163 25.1337 165.298 25.577C165.438 26.0203 165.625 26.3727 165.858 26.634C166.092 26.8907 166.358 27.0727 166.656 27.18C166.955 27.2873 167.261 27.341 167.573 27.341C167.872 27.341 168.138 27.292 168.371 27.194C168.609 27.0913 168.812 26.9607 168.98 26.802C169.148 26.6433 169.281 26.4707 169.379 26.284C169.477 26.0927 169.54 25.906 169.568 25.724L169.645 25.108H167.552V23.694L171.787 23.715V29H170.394V27.677C170.222 27.9057 170.007 28.1343 169.75 28.363C169.498 28.587 169.183 28.7737 168.805 28.923C168.432 29.0677 167.972 29.14 167.426 29.14ZM174.122 18.878H176.159V29H174.122V18.878ZM185.24 18.878H187.284V29H185.443L180.634 22.035V29H178.597V18.878H180.62L185.24 25.577V18.878Z" fill="white"/>
<path d="M199.625 24H213.375" stroke="white" stroke-width="2" stroke-linecap="round" stroke-linejoin="round"/>
<path d="M207.75 18.375L213.375 24L207.75 29.625" stroke="white" stroke-width="2" stroke-linecap="round" stroke-linejoin="round"/>
</svg>
