<svg width="310" height="56" viewBox="0 0 310 56" fill="none" xmlns="http://www.w3.org/2000/svg">
<rect width="310" height="56" rx="3" fill="#FA8232"/>
<path d="M81.94 34L86.084 22.432H88.548L92.684 34H90.356L89.412 31.32H85.252L84.284 34H81.94ZM85.772 29.28H88.852L87.324 24.688L85.772 29.28ZM94.613 22.432C94.6717 22.432 94.8343 22.432 95.101 22.432C95.373 22.432 95.6903 22.432 96.053 22.432C96.421 22.432 96.7863 22.4347 97.149 22.44C97.517 22.44 97.8237 22.4427 98.069 22.448C99.4717 22.48 100.616 22.7307 101.501 23.2C102.386 23.6693 103.034 24.3253 103.445 25.168C103.861 26.0107 104.069 27.008 104.069 28.16C104.069 29.36 103.85 30.3973 103.413 31.272C102.976 32.1413 102.306 32.8133 101.405 33.288C100.509 33.7627 99.3703 34 97.989 34H94.613V22.432ZM96.965 24.32V32.112H98.037C98.6983 32.112 99.2983 31.984 99.837 31.728C100.381 31.472 100.816 31.0533 101.141 30.472C101.466 29.8907 101.629 29.1147 101.629 28.144C101.629 27.2427 101.485 26.512 101.197 25.952C100.909 25.3867 100.498 24.9733 99.965 24.712C99.4317 24.4507 98.7997 24.32 98.069 24.32H96.965ZM106.321 22.432C106.379 22.432 106.542 22.432 106.809 22.432C107.081 22.432 107.398 22.432 107.761 22.432C108.129 22.432 108.494 22.4347 108.857 22.44C109.225 22.44 109.531 22.4427 109.777 22.448C111.179 22.48 112.323 22.7307 113.209 23.2C114.094 23.6693 114.742 24.3253 115.153 25.168C115.569 26.0107 115.777 27.008 115.777 28.16C115.777 29.36 115.558 30.3973 115.121 31.272C114.683 32.1413 114.014 32.8133 113.113 33.288C112.217 33.7627 111.078 34 109.697 34H106.321V22.432ZM108.673 24.32V32.112H109.745C110.406 32.112 111.006 31.984 111.545 31.728C112.089 31.472 112.523 31.0533 112.849 30.472C113.174 29.8907 113.337 29.1147 113.337 28.144C113.337 27.2427 113.193 26.512 112.905 25.952C112.617 25.3867 112.206 24.9733 111.673 24.712C111.139 24.4507 110.507 24.32 109.777 24.32H108.673ZM120.619 24.512V22.432H129.875V24.512H126.459V34H124.115V24.512H120.619ZM136.423 34.16C135.33 34.16 134.383 33.9227 133.583 33.448C132.789 32.968 132.173 32.288 131.735 31.408C131.303 30.5227 131.087 29.4667 131.087 28.24C131.087 27.008 131.306 25.9467 131.743 25.056C132.186 24.1653 132.807 23.48 133.607 23C134.407 22.5147 135.346 22.272 136.423 22.272C137.495 22.272 138.429 22.512 139.223 22.992C140.018 23.472 140.631 24.1573 141.063 25.048C141.501 25.9387 141.719 27.0027 141.719 28.24C141.719 29.4613 141.503 30.5147 141.071 31.4C140.645 32.2853 140.034 32.968 139.239 33.448C138.445 33.9227 137.506 34.16 136.423 34.16ZM136.423 32.24C136.989 32.24 137.477 32.1067 137.887 31.84C138.303 31.568 138.623 31.1413 138.847 30.56C139.071 29.9733 139.183 29.2107 139.183 28.272C139.183 27.3067 139.069 26.5253 138.839 25.928C138.615 25.3307 138.295 24.8933 137.879 24.616C137.469 24.3333 136.983 24.192 136.423 24.192C135.863 24.192 135.375 24.3333 134.959 24.616C134.543 24.8933 134.221 25.3333 133.991 25.936C133.762 26.5333 133.647 27.312 133.647 28.272C133.647 29.216 133.762 29.9787 133.991 30.56C134.221 31.1413 134.543 31.568 134.959 31.84C135.375 32.1067 135.863 32.24 136.423 32.24ZM152.274 22.272C153.143 22.272 153.917 22.448 154.594 22.8C155.277 23.1467 155.826 23.6213 156.242 24.224C156.663 24.8267 156.911 25.5067 156.986 26.264H154.538C154.463 25.864 154.327 25.5093 154.13 25.2C153.933 24.8853 153.674 24.64 153.354 24.464C153.034 24.2827 152.65 24.192 152.202 24.192C151.663 24.192 151.199 24.3227 150.81 24.584C150.421 24.8453 150.122 25.2667 149.914 25.848C149.706 26.4293 149.602 27.1973 149.602 28.152C149.602 29.592 149.831 30.6347 150.29 31.28C150.754 31.92 151.391 32.24 152.202 32.24C152.65 32.24 153.034 32.1387 153.354 31.936C153.674 31.728 153.933 31.456 154.13 31.12C154.327 30.7787 154.463 30.4053 154.538 30H156.986C156.917 30.5493 156.783 31.0747 156.586 31.576C156.389 32.072 156.109 32.5147 155.746 32.904C155.383 33.2933 154.917 33.6 154.346 33.824C153.775 34.048 153.085 34.16 152.274 34.16C151.197 34.16 150.266 33.9093 149.482 33.408C148.698 32.9067 148.093 32.2027 147.666 31.296C147.245 30.3893 147.034 29.3307 147.034 28.12C147.034 26.904 147.245 25.8613 147.666 24.992C148.087 24.1173 148.69 23.4453 149.474 22.976C150.258 22.5067 151.191 22.272 152.274 22.272ZM158.023 34L162.167 22.432H164.631L168.767 34H166.439L165.495 31.32H161.335L160.367 34H158.023ZM161.855 29.28H164.935L163.407 24.688L161.855 29.28ZM179.672 34H177.248L175.368 29.544H173.024V34H170.696V22.432H175.576C176.499 22.432 177.253 22.5787 177.84 22.872C178.427 23.1653 178.859 23.5733 179.136 24.096C179.413 24.6133 179.552 25.2107 179.552 25.888C179.552 26.496 179.456 27.0107 179.264 27.432C179.077 27.848 178.829 28.1947 178.52 28.472C178.216 28.7493 177.883 28.976 177.52 29.152L179.672 34ZM175.16 27.744C175.784 27.744 176.277 27.576 176.64 27.24C177.008 26.904 177.192 26.472 177.192 25.944C177.192 25.4107 177.016 24.9893 176.664 24.68C176.312 24.3707 175.867 24.216 175.328 24.216H173.024V27.744H175.16ZM182.028 22.432C182.087 22.432 182.25 22.432 182.516 22.432C182.788 22.432 183.106 22.432 183.468 22.432C183.836 22.432 184.202 22.4347 184.564 22.44C184.932 22.44 185.239 22.4427 185.484 22.448C186.887 22.48 188.031 22.7307 188.916 23.2C189.802 23.6693 190.45 24.3253 190.86 25.168C191.276 26.0107 191.484 27.008 191.484 28.16C191.484 29.36 191.266 30.3973 190.828 31.272C190.391 32.1413 189.722 32.8133 188.82 33.288C187.924 33.7627 186.786 34 185.404 34H182.028V22.432ZM184.38 24.32V32.112H185.452C186.114 32.112 186.714 31.984 187.252 31.728C187.796 31.472 188.231 31.0533 188.556 30.472C188.882 29.8907 189.044 29.1147 189.044 28.144C189.044 27.2427 188.9 26.512 188.612 25.952C188.324 25.3867 187.914 24.9733 187.38 24.712C186.847 24.4507 186.215 24.32 185.484 24.32H184.38Z" fill="white"/>
<path d="M212 35.5C212.414 35.5 212.75 35.8358 212.75 36.25C212.75 36.6642 212.414 37 212 37C211.586 37 211.25 36.6642 211.25 36.25C211.25 35.8358 211.586 35.5 212 35.5Z" fill="white" stroke="white" stroke-width="1.5"/>
<path d="M221.75 35.5C222.164 35.5 222.5 35.8358 222.5 36.25C222.5 36.6642 222.164 37 221.75 37C221.336 37 221 36.6642 221 36.25C221 35.8358 221.336 35.5 221.75 35.5Z" fill="white" stroke="white" stroke-width="1.5"/>
<path d="M208.466 22.75H225.284L222.809 31.4125C222.721 31.7269 222.532 32.0036 222.271 32.2C222.01 32.3965 221.692 32.5019 221.366 32.5H212.384C212.058 32.5019 211.74 32.3965 211.479 32.2C211.218 32.0036 211.029 31.7269 210.941 31.4125L207.547 19.5438C207.502 19.387 207.407 19.2491 207.277 19.1509C207.147 19.0528 206.988 18.9998 206.825 19H205.25" stroke="white" stroke-width="1.5" stroke-linecap="round" stroke-linejoin="round"/>
</svg>
