<svg width="360" height="20" viewBox="0 0 360 20" fill="none" xmlns="http://www.w3.org/2000/svg">
<line y1="9.5" x2="360" y2="9.5" stroke="#E4E7E9"/>
<rect width="30" height="20" transform="translate(165)" fill="white"/>
<path d="M176.948 15.14C176.281 15.14 175.697 14.9977 175.198 14.713C174.699 14.4237 174.311 14.0013 174.036 13.446C173.761 12.8907 173.623 12.2117 173.623 11.409C173.623 10.653 173.751 9.99033 174.008 9.421C174.265 8.85167 174.64 8.41067 175.135 8.098C175.634 7.78067 176.239 7.622 176.948 7.622C177.615 7.622 178.194 7.769 178.684 8.063C179.179 8.35233 179.561 8.77933 179.832 9.344C180.103 9.90867 180.238 10.597 180.238 11.409C180.238 12.1463 180.112 12.795 179.86 13.355C179.613 13.915 179.244 14.3537 178.754 14.671C178.269 14.9837 177.667 15.14 176.948 15.14ZM176.948 14.118C177.382 14.118 177.748 14.0083 178.047 13.789C178.346 13.5697 178.572 13.2547 178.726 12.844C178.88 12.4333 178.957 11.9457 178.957 11.381C178.957 10.863 178.889 10.3987 178.754 9.988C178.619 9.57267 178.402 9.24367 178.103 9.001C177.809 8.75833 177.424 8.637 176.948 8.637C176.509 8.637 176.138 8.74667 175.835 8.966C175.532 9.18067 175.301 9.49333 175.142 9.904C174.988 10.3147 174.911 10.807 174.911 11.381C174.911 11.8897 174.981 12.3517 175.121 12.767C175.261 13.1823 175.48 13.5113 175.779 13.754C176.078 13.9967 176.467 14.118 176.948 14.118ZM181.932 15V7.762H183.164V9.155C183.286 8.80967 183.456 8.525 183.675 8.301C183.895 8.07233 184.144 7.902 184.424 7.79C184.709 7.678 185.003 7.622 185.306 7.622C185.414 7.622 185.519 7.629 185.621 7.643C185.724 7.657 185.803 7.68033 185.859 7.713V8.966C185.789 8.93333 185.698 8.91233 185.586 8.903C185.479 8.889 185.388 8.882 185.313 8.882C185.024 8.86333 184.753 8.882 184.501 8.938C184.249 8.98933 184.028 9.08033 183.836 9.211C183.645 9.34167 183.493 9.51433 183.381 9.729C183.274 9.939 183.22 10.1957 183.22 10.499V15H181.932Z" fill="#77878F"/>
</svg>
