<svg width="108" height="24" viewBox="0 0 108 24" fill="none" xmlns="http://www.w3.org/2000/svg">
<path d="M15.75 15.75H20.25V3.75H8.25V8.25" stroke="#5F6C72" stroke-width="1.5" stroke-linecap="round" stroke-linejoin="round"/>
<path d="M15.75 8.25H3.75V20.25H15.75V8.25Z" stroke="#5F6C72" stroke-width="1.5" stroke-linecap="round" stroke-linejoin="round"/>
<g clip-path="url(#clip0_399_4009)">
<path fill-rule="evenodd" clip-rule="evenodd" d="M44 4C48.4183 4 52 7.58173 52 12C52 16.4183 48.4183 20 44 20C39.5817 20 36 16.4183 36 12C36 7.58173 39.5817 4 44 4Z" fill="#FA8232"/>
<path d="M45.0414 19.933V13.7524H46.7849L47.016 11.5771H45.0414L45.0444 10.4883C45.0444 9.92091 45.0983 9.61705 45.9137 9.61705H47.0038V7.44141H45.2599C43.1652 7.44141 42.4281 8.4966 42.4281 10.2714V11.5773H41.1223V13.7527H42.4281V19.8453C42.9368 19.9466 43.4627 20.0001 44.0011 20.0001C44.349 20.0001 44.6965 19.9777 45.0414 19.933Z" fill="white"/>
</g>
<path d="M69.0318 18.5024C75.0699 18.5024 78.3718 13.4971 78.3718 9.15673C78.3718 9.01458 78.3689 8.87308 78.3625 8.73217C79.005 8.26699 79.5595 7.69103 80 7.03128C79.4118 7.29294 78.7789 7.46904 78.1149 7.54844C78.7926 7.14181 79.3129 6.49851 79.5584 5.73169C78.914 6.11419 78.2091 6.38382 77.4739 6.52898C76.8749 5.89052 76.0221 5.49121 75.0778 5.49121C73.2649 5.49121 71.7949 6.96219 71.7949 8.7754C71.7949 9.03319 71.8237 9.28385 71.8801 9.52436C69.1518 9.38699 66.7325 8.07995 65.1134 6.09252C64.8218 6.59379 64.6684 7.16349 64.6689 7.74345C64.6689 8.88304 65.2485 9.88903 66.1298 10.4776C65.6085 10.4617 65.0986 10.3208 64.6431 10.0668C64.6426 10.0806 64.6426 10.094 64.6426 10.1087C64.6426 11.6994 65.7741 13.0276 67.2761 13.3285C66.994 13.4054 66.7029 13.4443 66.4105 13.4441C66.1994 13.4441 65.9936 13.4233 65.7936 13.3849C66.2115 14.69 67.4233 15.6397 68.8601 15.6663C67.7366 16.5474 66.3213 17.0723 64.783 17.0723C64.5213 17.0725 64.2599 17.0573 64 17.0267C65.4528 17.9585 67.1779 18.5022 69.032 18.5022" fill="#5F6C72"/>
<g clip-path="url(#clip1_399_4009)">
<path d="M99.0241 4.05351C96.3652 4.35033 93.7157 6.50147 93.6064 9.57431C93.5376 11.4505 94.0703 12.858 95.8559 13.2533C96.6308 11.8864 95.606 11.5849 95.4466 10.596C94.7921 6.54365 100.121 3.78012 102.909 6.60926C104.839 8.56825 103.568 14.5952 100.457 13.9688C97.4759 13.3704 101.916 8.57294 99.5365 7.63093C97.6025 6.86546 96.5745 9.97266 97.4915 11.5161C96.9541 14.1703 95.7966 16.6714 96.2652 20.0004C97.7852 18.8975 98.2976 16.7854 98.7179 14.5827C99.4818 15.0467 99.8895 15.5294 100.864 15.6044C104.459 15.8824 106.466 12.016 105.976 8.44952C105.54 5.28764 102.384 3.67858 99.0241 4.05351Z" fill="#5F6C72"/>
</g>
<defs>
<clipPath id="clip0_399_4009">
<rect width="16" height="16" fill="white" transform="translate(36 4)"/>
</clipPath>
<clipPath id="clip1_399_4009">
<rect width="16" height="16" fill="white" transform="translate(92 4)"/>
</clipPath>
</defs>
</svg>
