<svg width="648" height="20" viewBox="0 0 648 20" fill="none" xmlns="http://www.w3.org/2000/svg">
<path d="M4.774 15.14C4.298 15.14 3.836 15.0817 3.388 14.965C2.94 14.8437 2.534 14.664 2.17 14.426C1.806 14.188 1.50267 13.894 1.26 13.544C1.022 13.1893 0.872667 12.7787 0.812 12.312H2.17C2.254 12.6947 2.41967 13.0167 2.667 13.278C2.919 13.5393 3.22467 13.7353 3.584 13.866C3.948 13.9967 4.34233 14.062 4.767 14.062C5.243 14.062 5.66767 13.9967 6.041 13.866C6.419 13.7307 6.71533 13.5393 6.93 13.292C7.14933 13.0447 7.259 12.7483 7.259 12.403C7.259 12.0997 7.189 11.836 7.049 11.612C6.91367 11.388 6.71533 11.2013 6.454 11.052C6.19267 10.9027 5.87533 10.786 5.502 10.702L3.514 10.24C2.76733 10.0767 2.18167 9.785 1.757 9.365C1.337 8.945 1.12233 8.38967 1.113 7.699C1.113 7.11567 1.267 6.60233 1.575 6.159C1.88767 5.71567 2.31467 5.37033 2.856 5.123C3.402 4.87567 4.025 4.752 4.725 4.752C5.53233 4.752 6.21133 4.88967 6.762 5.165C7.31267 5.44033 7.728 5.802 8.008 6.25C8.288 6.698 8.43033 7.17633 8.435 7.685H7.098C7.056 7.22767 6.92067 6.866 6.692 6.6C6.468 6.32933 6.18567 6.138 5.845 6.026C5.50433 5.90933 5.13333 5.851 4.732 5.851C4.44267 5.851 4.16267 5.88833 3.892 5.963C3.626 6.033 3.38567 6.14033 3.171 6.285C2.961 6.42967 2.793 6.60933 2.667 6.824C2.541 7.03867 2.478 7.28833 2.478 7.573C2.478 7.937 2.60167 8.23333 2.849 8.462C3.101 8.69067 3.556 8.88667 4.214 9.05L6.139 9.512C6.643 9.61933 7.05367 9.778 7.371 9.988C7.693 10.198 7.94033 10.436 8.113 10.702C8.29033 10.968 8.41167 11.2457 8.477 11.535C8.547 11.8243 8.582 12.109 8.582 12.389C8.582 12.8977 8.43033 13.362 8.127 13.782C7.82367 14.1973 7.38733 14.5287 6.818 14.776C6.25333 15.0187 5.572 15.14 4.774 15.14ZM16.8606 15H15.4886L13.2206 11.367L11.7926 12.844V15H10.5046V4.598H11.7926V11.381L15.1946 7.762H16.6786L14.0676 10.52L16.8606 15ZM20.9165 15.14C20.5385 15.1353 20.1815 15.0817 19.8455 14.979C19.5142 14.8717 19.2202 14.7153 18.9635 14.51C18.7069 14.3047 18.5039 14.0503 18.3545 13.747C18.2099 13.439 18.1375 13.082 18.1375 12.676V7.762H19.4325V12.543C19.4325 13.0143 19.5772 13.397 19.8665 13.691C20.1605 13.985 20.6015 14.132 21.1895 14.132C21.7215 14.132 22.1485 13.9943 22.4705 13.719C22.7972 13.439 22.9605 13.0237 22.9605 12.473V7.762H24.2485V15H23.2195L23.0865 13.614C22.9979 13.978 22.8462 14.272 22.6315 14.496C22.4215 14.72 22.1672 14.8857 21.8685 14.993C21.5745 15.0957 21.2572 15.1447 20.9165 15.14ZM27.5143 8.049V9.694H25.9673V8.049H27.5143ZM27.5143 13.327V14.958H25.9673V13.327H27.5143Z" fill="#5F6C72"/>
<path d="M31.976 15L35.616 4.878H37.457L41.09 15H39.382L38.479 12.459H34.615L33.691 15H31.976ZM35.007 10.947H38.059L36.54 6.537L35.007 10.947ZM42.3885 15V14.09V13.621C42.3885 13.103 42.4842 12.6573 42.6755 12.284C42.8668 11.906 43.1212 11.577 43.4385 11.297C43.7558 11.017 44.1035 10.7697 44.4815 10.555C44.8642 10.3357 45.2422 10.1303 45.6155 9.939C45.9935 9.743 46.3412 9.54233 46.6585 9.337C46.9758 9.127 47.2302 8.89367 47.4215 8.637C47.6175 8.38033 47.7155 8.07467 47.7155 7.72C47.7155 7.26733 47.5545 6.89867 47.2325 6.614C46.9152 6.32467 46.4835 6.18 45.9375 6.18C45.3588 6.18 44.8805 6.34567 44.5025 6.677C44.1292 7.00833 43.9075 7.475 43.8375 8.077H42.1855C42.1948 7.461 42.3418 6.901 42.6265 6.397C42.9112 5.893 43.3335 5.49167 43.8935 5.193C44.4535 4.88967 45.1512 4.738 45.9865 4.738C46.7098 4.738 47.3328 4.864 47.8555 5.116C48.3828 5.36333 48.7888 5.711 49.0735 6.159C49.3628 6.60233 49.5075 7.12033 49.5075 7.713C49.5075 8.231 49.4118 8.67433 49.2205 9.043C49.0338 9.41167 48.7842 9.73133 48.4715 10.002C48.1635 10.268 47.8228 10.5037 47.4495 10.709C47.0808 10.9143 46.7098 11.108 46.3365 11.29C45.9678 11.4673 45.6272 11.654 45.3145 11.85C45.0065 12.0413 44.7568 12.2607 44.5655 12.508C44.3788 12.7553 44.2855 13.0517 44.2855 13.397V13.544H49.5285V15H42.3885ZM54.9631 4.738C55.5605 4.738 56.1135 4.85 56.6221 5.074C57.1308 5.29333 57.5485 5.61067 57.8751 6.026C58.2018 6.44133 58.3931 6.943 58.4491 7.531H56.8741C56.7435 7.07833 56.5195 6.72833 56.2021 6.481C55.8848 6.23367 55.4835 6.11 54.9981 6.11C54.4615 6.11 54.0135 6.26167 53.6541 6.565C53.2948 6.86833 53.0358 7.30467 52.8771 7.874C52.7231 8.43867 52.6741 9.11533 52.7301 9.904C52.8748 9.62867 53.0708 9.39067 53.3181 9.19C53.5655 8.98467 53.8478 8.826 54.1651 8.714C54.4825 8.602 54.8185 8.546 55.1731 8.546C55.8498 8.546 56.4425 8.67433 56.9511 8.931C57.4598 9.18767 57.8565 9.55167 58.1411 10.023C58.4258 10.4943 58.5681 11.052 58.5681 11.696C58.5681 12.3633 58.4141 12.9583 58.1061 13.481C57.7981 13.999 57.3665 14.4073 56.8111 14.706C56.2558 15.0047 55.6071 15.154 54.8651 15.154C54.0391 15.154 53.3251 14.9487 52.7231 14.538C52.1211 14.1273 51.6568 13.5463 51.3301 12.795C51.0081 12.039 50.8471 11.1453 50.8471 10.114C50.8471 9.01733 51.0081 8.06767 51.3301 7.265C51.6521 6.45767 52.1188 5.83467 52.7301 5.396C53.3461 4.95733 54.0905 4.738 54.9631 4.738ZM54.8161 9.855C54.4941 9.855 54.1815 9.92967 53.8781 10.079C53.5795 10.2283 53.3345 10.422 53.1431 10.66C52.9565 10.898 52.8631 11.1523 52.8631 11.423C52.8585 11.9037 52.9378 12.3237 53.1011 12.683C53.2645 13.0423 53.4931 13.3223 53.7871 13.523C54.0858 13.719 54.4311 13.817 54.8231 13.817C55.1871 13.817 55.5138 13.7307 55.8031 13.558C56.0971 13.3853 56.3281 13.145 56.4961 12.837C56.6688 12.529 56.7551 12.1743 56.7551 11.773C56.7551 11.3623 56.6758 11.0147 56.5171 10.73C56.3585 10.4453 56.1321 10.2283 55.8381 10.079C55.5488 9.92967 55.2081 9.855 54.8161 9.855ZM64.4432 4.878H66.1372V11.15H67.7542V12.599H66.1372V15H64.4852L64.4922 12.599H59.7812V11.15L64.4432 4.878ZM61.3772 11.15H64.4782V6.992L61.3772 11.15ZM72.928 4.738C73.5253 4.738 74.0783 4.85 74.587 5.074C75.0956 5.29333 75.5133 5.61067 75.84 6.026C76.1666 6.44133 76.358 6.943 76.414 7.531H74.839C74.7083 7.07833 74.4843 6.72833 74.167 6.481C73.8496 6.23367 73.4483 6.11 72.963 6.11C72.4263 6.11 71.9783 6.26167 71.619 6.565C71.2596 6.86833 71.0006 7.30467 70.842 7.874C70.688 8.43867 70.639 9.11533 70.695 9.904C70.8396 9.62867 71.0356 9.39067 71.283 9.19C71.5303 8.98467 71.8126 8.826 72.13 8.714C72.4473 8.602 72.7833 8.546 73.138 8.546C73.8146 8.546 74.4073 8.67433 74.916 8.931C75.4246 9.18767 75.8213 9.55167 76.106 10.023C76.3906 10.4943 76.533 11.052 76.533 11.696C76.533 12.3633 76.379 12.9583 76.071 13.481C75.763 13.999 75.3313 14.4073 74.776 14.706C74.2206 15.0047 73.572 15.154 72.83 15.154C72.004 15.154 71.29 14.9487 70.688 14.538C70.086 14.1273 69.6216 13.5463 69.295 12.795C68.973 12.039 68.812 11.1453 68.812 10.114C68.812 9.01733 68.973 8.06767 69.295 7.265C69.617 6.45767 70.0836 5.83467 70.695 5.396C71.311 4.95733 72.0553 4.738 72.928 4.738ZM72.781 9.855C72.459 9.855 72.1463 9.92967 71.843 10.079C71.5443 10.2283 71.2993 10.422 71.108 10.66C70.9213 10.898 70.828 11.1523 70.828 11.423C70.8233 11.9037 70.9026 12.3237 71.066 12.683C71.2293 13.0423 71.458 13.3223 71.752 13.523C72.0506 13.719 72.396 13.817 72.788 13.817C73.152 13.817 73.4786 13.7307 73.768 13.558C74.062 13.3853 74.293 13.145 74.461 12.837C74.6336 12.529 74.72 12.1743 74.72 11.773C74.72 11.3623 74.6406 11.0147 74.482 10.73C74.3233 10.4453 74.097 10.2283 73.803 10.079C73.5136 9.92967 73.173 9.855 72.781 9.855ZM77.5546 4.878H84.9116V6.299C84.571 6.74233 84.2326 7.25567 83.8966 7.839C83.5606 8.41767 83.2386 9.03133 82.9306 9.68C82.6226 10.324 82.3473 10.9703 82.1046 11.619C81.862 12.263 81.6636 12.8767 81.5096 13.46C81.3556 14.0433 81.2623 14.5567 81.2296 15H79.3886C79.4446 14.566 79.5566 14.0247 79.7246 13.376C79.8973 12.7227 80.133 12.004 80.4316 11.22C80.7303 10.4313 81.1013 9.617 81.5446 8.777C81.988 7.937 82.506 7.111 83.0986 6.299H77.5546V4.878ZM88.2353 15V7.202H86.3593V6.187C86.952 6.187 87.421 6.138 87.7663 6.04C88.1163 5.93733 88.3707 5.788 88.5293 5.592C88.6927 5.396 88.786 5.158 88.8093 4.878H89.9713V15H88.2353Z" fill="#191C1F"/>
<path d="M336.581 15L340.242 4.878H341.705L345.366 15H344.043L343.049 12.228H338.912L337.897 15H336.581ZM339.241 11.038H342.706L340.984 6.159L339.241 11.038ZM351.873 7.762L349.262 15H348.086L345.468 7.762H346.686L348.611 13.376H348.73L350.662 7.762H351.873ZM355.001 15.14C354.534 15.14 354.121 15.0583 353.762 14.895C353.402 14.727 353.12 14.4867 352.915 14.174C352.714 13.8613 352.614 13.4833 352.614 13.04C352.614 12.2373 352.894 11.64 353.454 11.248C354.014 10.856 354.912 10.646 356.149 10.618L357.444 10.583V10.016C357.444 9.57267 357.311 9.22267 357.045 8.966C356.779 8.70467 356.366 8.574 355.806 8.574C355.39 8.57867 355.024 8.67667 354.707 8.868C354.394 9.05933 354.191 9.372 354.098 9.806H352.957C352.985 9.33467 353.118 8.938 353.356 8.616C353.594 8.28933 353.925 8.042 354.35 7.874C354.779 7.706 355.285 7.622 355.869 7.622C356.499 7.622 357.021 7.71067 357.437 7.888C357.857 8.06533 358.169 8.32667 358.375 8.672C358.585 9.01733 358.69 9.442 358.69 9.946V15H357.584L357.493 13.642C357.213 14.2067 356.856 14.5987 356.422 14.818C355.992 15.0327 355.519 15.14 355.001 15.14ZM355.393 14.209C355.635 14.209 355.876 14.1647 356.114 14.076C356.356 13.9873 356.578 13.8683 356.779 13.719C356.979 13.565 357.138 13.3947 357.255 13.208C357.376 13.0167 357.439 12.8207 357.444 12.62V11.381L356.366 11.402C355.815 11.4113 355.353 11.4673 354.98 11.57C354.611 11.6727 354.333 11.8337 354.147 12.053C353.965 12.2723 353.874 12.5593 353.874 12.914C353.874 13.32 354.014 13.6373 354.294 13.866C354.578 14.0947 354.945 14.209 355.393 14.209ZM362.301 7.762V15H361.048V7.762H362.301ZM362.329 4.885V6.229H361.006V4.885H362.329ZM366.488 15.091C366.096 15.091 365.779 15.0373 365.536 14.93C365.298 14.8227 365.114 14.678 364.983 14.496C364.857 14.314 364.771 14.1063 364.724 13.873C364.682 13.635 364.661 13.39 364.661 13.138V4.598H365.935V13.012C365.935 13.376 366.005 13.649 366.145 13.831C366.29 14.013 366.49 14.1133 366.747 14.132L367.139 14.139V14.979C367.032 15.0117 366.92 15.0373 366.803 15.056C366.686 15.0793 366.581 15.091 366.488 15.091ZM370.764 15.14C370.298 15.14 369.885 15.0583 369.525 14.895C369.166 14.727 368.884 14.4867 368.678 14.174C368.478 13.8613 368.377 13.4833 368.377 13.04C368.377 12.2373 368.657 11.64 369.217 11.248C369.777 10.856 370.676 10.646 371.912 10.618L373.207 10.583V10.016C373.207 9.57267 373.074 9.22267 372.808 8.966C372.542 8.70467 372.129 8.574 371.569 8.574C371.154 8.57867 370.788 8.67667 370.47 8.868C370.158 9.05933 369.955 9.372 369.861 9.806H368.72C368.748 9.33467 368.881 8.938 369.119 8.616C369.357 8.28933 369.689 8.042 370.113 7.874C370.543 7.706 371.049 7.622 371.632 7.622C372.262 7.622 372.785 7.71067 373.2 7.888C373.62 8.06533 373.933 8.32667 374.138 8.672C374.348 9.01733 374.453 9.442 374.453 9.946V15H373.347L373.256 13.642C372.976 14.2067 372.619 14.5987 372.185 14.818C371.756 15.0327 371.282 15.14 370.764 15.14ZM371.156 14.209C371.399 14.209 371.639 14.1647 371.877 14.076C372.12 13.9873 372.342 13.8683 372.542 13.719C372.743 13.565 372.902 13.3947 373.018 13.208C373.14 13.0167 373.203 12.8207 373.207 12.62V11.381L372.129 11.402C371.579 11.4113 371.117 11.4673 370.743 11.57C370.375 11.6727 370.097 11.8337 369.91 12.053C369.728 12.2723 369.637 12.5593 369.637 12.914C369.637 13.32 369.777 13.6373 370.057 13.866C370.342 14.0947 370.708 14.209 371.156 14.209ZM380.242 15.14C379.817 15.14 379.458 15.084 379.164 14.972C378.874 14.86 378.636 14.7177 378.45 14.545C378.263 14.3677 378.118 14.188 378.016 14.006C377.913 13.8193 377.838 13.656 377.792 13.516L377.652 15H376.665V4.598H377.967V8.91C378.027 8.78867 378.118 8.65567 378.24 8.511C378.366 8.36633 378.527 8.22633 378.723 8.091C378.919 7.95567 379.15 7.84367 379.416 7.755C379.686 7.66633 379.994 7.622 380.34 7.622C381.245 7.622 381.964 7.937 382.496 8.567C383.032 9.197 383.301 10.1257 383.301 11.353C383.301 12.1137 383.186 12.7787 382.958 13.348C382.729 13.9127 382.388 14.3537 381.936 14.671C381.483 14.9837 380.918 15.14 380.242 15.14ZM380.011 14.146C380.599 14.146 381.077 13.9197 381.446 13.467C381.814 13.0097 381.999 12.284 381.999 11.29C381.999 10.4453 381.826 9.792 381.481 9.33C381.14 8.86333 380.641 8.63 379.983 8.63C379.502 8.63 379.115 8.735 378.821 8.945C378.531 9.15033 378.317 9.45133 378.177 9.848C378.041 10.2447 377.971 10.7253 377.967 11.29C377.967 12.3027 378.123 13.033 378.436 13.481C378.753 13.9243 379.278 14.146 380.011 14.146ZM386.391 7.762V15H385.138V7.762H386.391ZM386.419 4.885V6.229H385.096V4.885H386.419ZM390.578 15.091C390.186 15.091 389.868 15.0373 389.626 14.93C389.388 14.8227 389.203 14.678 389.073 14.496C388.947 14.314 388.86 14.1063 388.814 13.873C388.772 13.635 388.751 13.39 388.751 13.138V4.598H390.025V13.012C390.025 13.376 390.095 13.649 390.235 13.831C390.379 14.013 390.58 14.1133 390.837 14.132L391.229 14.139V14.979C391.121 15.0117 391.009 15.0373 390.893 15.056C390.776 15.0793 390.671 15.091 390.578 15.091ZM394.293 7.762V15H393.04V7.762H394.293ZM394.321 4.885V6.229H392.998V4.885H394.321ZM400.344 8.707H398.713V13.208C398.713 13.4647 398.739 13.6537 398.79 13.775C398.846 13.8917 398.937 13.9663 399.063 13.999C399.194 14.0317 399.371 14.048 399.595 14.048H400.386V14.916C400.297 14.9487 400.162 14.9767 399.98 15C399.803 15.0233 399.581 15.035 399.315 15.035C398.816 15.035 398.428 14.9673 398.153 14.832C397.878 14.6967 397.684 14.496 397.572 14.23C397.465 13.964 397.411 13.6373 397.411 13.25V8.707H396.235V7.762H397.446L397.761 5.655H398.713V7.755H400.344V8.707ZM402.959 17.31C402.534 17.31 402.242 17.2797 402.084 17.219C401.925 17.1583 401.846 17.128 401.846 17.128V16.288L402.581 16.302C402.851 16.3113 403.075 16.2927 403.253 16.246C403.43 16.1993 403.572 16.1363 403.68 16.057C403.787 15.9777 403.869 15.889 403.925 15.791C403.985 15.693 404.034 15.5997 404.072 15.511L404.324 14.825L401.496 7.762H402.805L404.94 13.348L407.061 7.762H408.328L405.276 15.546C405.089 16.0033 404.879 16.3603 404.646 16.617C404.417 16.8737 404.16 17.0533 403.876 17.156C403.596 17.2587 403.29 17.31 402.959 17.31ZM410.956 8.049V9.694H409.409V8.049H410.956ZM410.956 13.327V14.958H409.409V13.327H410.956Z" fill="#5F6C72"/>
<path d="M416.166 4.878H417.867V15H416.166V4.878ZM420.064 15V7.762H421.73V8.798C421.842 8.61133 421.993 8.43167 422.185 8.259C422.381 8.08633 422.621 7.94633 422.906 7.839C423.19 7.73167 423.524 7.678 423.907 7.678C424.355 7.678 424.77 7.76667 425.153 7.944C425.54 8.12133 425.85 8.399 426.084 8.777C426.322 9.155 426.441 9.64267 426.441 10.24V15H424.733V10.443C424.733 9.967 424.602 9.61467 424.341 9.386C424.079 9.15267 423.75 9.036 423.354 9.036C423.083 9.036 422.826 9.08267 422.584 9.176C422.341 9.26467 422.143 9.40233 421.989 9.589C421.839 9.771 421.765 9.99967 421.765 10.275V15H420.064ZM435.256 15.14C434.766 15.14 434.287 15.0793 433.821 14.958C433.354 14.832 432.929 14.6477 432.547 14.405C432.169 14.1577 431.854 13.852 431.602 13.488C431.35 13.1193 431.196 12.69 431.14 12.2H432.904C432.978 12.5407 433.125 12.8277 433.345 13.061C433.564 13.2943 433.837 13.4717 434.164 13.593C434.495 13.7143 434.857 13.775 435.249 13.775C435.669 13.775 436.047 13.719 436.383 13.607C436.723 13.495 436.992 13.3317 437.188 13.117C437.388 12.9023 437.489 12.6387 437.489 12.326C437.489 12.0507 437.416 11.8173 437.272 11.626C437.127 11.4347 436.924 11.2783 436.663 11.157C436.406 11.031 436.105 10.9307 435.76 10.856L433.898 10.45C433.146 10.296 432.551 9.99733 432.113 9.554C431.674 9.11067 431.45 8.52033 431.441 7.783C431.436 7.17167 431.597 6.63967 431.924 6.187C432.255 5.72967 432.705 5.37733 433.275 5.13C433.844 4.878 434.488 4.752 435.207 4.752C436.047 4.752 436.754 4.88967 437.328 5.165C437.906 5.43567 438.343 5.79967 438.637 6.257C438.935 6.71433 439.087 7.216 439.092 7.762H437.37C437.328 7.36067 437.206 7.041 437.006 6.803C436.81 6.565 436.558 6.39467 436.25 6.292C435.942 6.18933 435.601 6.138 435.228 6.138C434.948 6.138 434.686 6.17067 434.444 6.236C434.201 6.30133 433.989 6.397 433.807 6.523C433.625 6.649 433.482 6.803 433.38 6.985C433.282 7.16233 433.233 7.36533 433.233 7.594C433.233 7.92067 433.34 8.18667 433.555 8.392C433.774 8.59267 434.182 8.763 434.78 8.903L436.6 9.309C437.164 9.421 437.619 9.589 437.965 9.813C438.31 10.037 438.574 10.2937 438.756 10.583C438.938 10.8677 439.059 11.1593 439.12 11.458C439.18 11.7567 439.211 12.0413 439.211 12.312C439.211 12.8393 439.047 13.3177 438.721 13.747C438.399 14.1763 437.941 14.517 437.349 14.769C436.761 15.0163 436.063 15.14 435.256 15.14ZM444.811 8.966H443.194L443.201 13.117C443.201 13.3317 443.224 13.4903 443.271 13.593C443.322 13.691 443.401 13.7563 443.509 13.789C443.621 13.817 443.77 13.831 443.957 13.831H444.846V14.909C444.752 14.9463 444.61 14.979 444.419 15.007C444.232 15.0397 443.98 15.056 443.663 15.056C443.089 15.056 442.643 14.9813 442.326 14.832C442.013 14.678 441.796 14.461 441.675 14.181C441.553 13.901 441.493 13.5673 441.493 13.18V8.966H440.317V7.762H441.542L441.969 5.613H443.194V7.755H444.811V8.966ZM449.276 15.14C448.585 15.14 447.983 14.993 447.47 14.699C446.956 14.4003 446.557 13.9733 446.273 13.418C445.993 12.8627 445.853 12.1953 445.853 11.416C445.853 10.66 445.988 9.99733 446.259 9.428C446.534 8.85867 446.928 8.41533 447.442 8.098C447.955 7.78067 448.569 7.622 449.283 7.622C449.973 7.622 450.573 7.77367 451.082 8.077C451.59 8.38033 451.982 8.81433 452.258 9.379C452.538 9.94367 452.678 10.6227 452.678 11.416C452.678 12.1487 452.545 12.795 452.279 13.355C452.017 13.9103 451.632 14.3467 451.124 14.664C450.62 14.9813 450.004 15.14 449.276 15.14ZM449.283 13.845C449.675 13.845 449.997 13.7377 450.249 13.523C450.505 13.3083 450.694 13.0143 450.816 12.641C450.942 12.2677 451.005 11.843 451.005 11.367C451.005 10.9237 450.949 10.5153 450.837 10.142C450.729 9.76867 450.547 9.47 450.291 9.246C450.039 9.01733 449.703 8.903 449.283 8.903C448.886 8.903 448.557 9.008 448.296 9.218C448.039 9.42333 447.845 9.71267 447.715 10.086C447.589 10.4547 447.526 10.8817 447.526 11.367C447.526 11.8057 447.582 12.214 447.694 12.592C447.81 12.9653 447.997 13.2687 448.254 13.502C448.51 13.7307 448.853 13.845 449.283 13.845ZM457.192 7.622C457.756 7.622 458.253 7.734 458.683 7.958C459.112 8.182 459.455 8.49233 459.712 8.889C459.973 9.28567 460.129 9.736 460.181 10.24H458.725C458.692 10.0207 458.613 9.813 458.487 9.617C458.361 9.41633 458.19 9.25533 457.976 9.134C457.761 9.008 457.502 8.945 457.199 8.945C456.657 8.945 456.216 9.14567 455.876 9.547C455.54 9.94833 455.372 10.5643 455.372 11.395C455.372 12.1603 455.533 12.7693 455.855 13.222C456.177 13.6747 456.636 13.901 457.234 13.901C457.532 13.901 457.787 13.8357 457.997 13.705C458.211 13.5697 458.379 13.404 458.501 13.208C458.627 13.0073 458.708 12.8067 458.746 12.606H460.16C460.118 13.096 459.964 13.5323 459.698 13.915C459.436 14.2977 459.091 14.5987 458.662 14.818C458.237 15.0327 457.747 15.14 457.192 15.14C456.529 15.14 455.939 14.9953 455.421 14.706C454.907 14.412 454.504 13.9873 454.21 13.432C453.916 12.872 453.769 12.1977 453.769 11.409C453.769 10.6577 453.906 9.99967 454.182 9.435C454.457 8.86567 454.851 8.42233 455.365 8.105C455.878 7.783 456.487 7.622 457.192 7.622ZM468.448 15H466.719L464.619 11.647L463.443 12.879V15H461.749V4.598H463.443V11.045L466.446 7.762H468.315L465.697 10.59L468.448 15Z" fill="#2DB324"/>
</svg>
