<svg width="157" height="48" viewBox="0 0 157 48" fill="none" xmlns="http://www.w3.org/2000/svg">
<rect x="0.5" width="156" height="48" rx="2" fill="#EBC80C"/>
<path d="M29.435 29.14C28.9357 29.14 28.4457 29.077 27.965 28.951C27.4843 28.825 27.0457 28.636 26.649 28.384C26.2523 28.132 25.9233 27.817 25.662 27.439C25.4053 27.061 25.2513 26.6177 25.2 26.109H27.293C27.363 26.417 27.496 26.676 27.692 26.886C27.888 27.096 28.1353 27.257 28.434 27.369C28.7327 27.481 29.064 27.537 29.428 27.537C29.8013 27.537 30.142 27.4903 30.45 27.397C30.758 27.3037 31.0053 27.1637 31.192 26.977C31.3787 26.7857 31.472 26.5477 31.472 26.263C31.472 26.0063 31.395 25.7963 31.241 25.633C31.0917 25.4697 30.8887 25.3367 30.632 25.234C30.3753 25.1313 30.0837 25.0473 29.757 24.982L28.007 24.625C27.2417 24.4803 26.635 24.177 26.187 23.715C25.739 23.2483 25.508 22.6277 25.494 21.853C25.4893 21.2183 25.6573 20.67 25.998 20.208C26.3433 19.7413 26.81 19.382 27.398 19.13C27.9907 18.878 28.6533 18.752 29.386 18.752C30.2587 18.752 30.9913 18.8897 31.584 19.165C32.1813 19.4357 32.634 19.8043 32.942 20.271C33.2547 20.733 33.4157 21.2487 33.425 21.818H31.374C31.3367 21.4633 31.2293 21.181 31.052 20.971C30.8747 20.761 30.646 20.6093 30.366 20.516C30.0907 20.4227 29.7757 20.376 29.421 20.376C29.1503 20.376 28.903 20.4063 28.679 20.467C28.4597 20.5277 28.273 20.614 28.119 20.726C27.965 20.8333 27.846 20.9617 27.762 21.111C27.678 21.2603 27.636 21.4283 27.636 21.615C27.636 21.909 27.734 22.147 27.93 22.329C28.126 22.511 28.4923 22.6603 29.029 22.777L30.765 23.134C31.3857 23.2553 31.878 23.435 32.242 23.673C32.6107 23.911 32.886 24.1793 33.068 24.478C33.2547 24.7767 33.376 25.0823 33.432 25.395C33.4927 25.703 33.523 25.9877 33.523 26.249C33.523 26.795 33.3503 27.2873 33.005 27.726C32.6643 28.16 32.1883 28.5053 31.577 28.762C30.9657 29.014 30.2517 29.14 29.435 29.14ZM41.9634 24.653H37.5324V29H35.4954V18.878H37.5324V22.938H41.9634V18.878H44.0074V29H41.9634V24.653ZM50.6438 29.14C49.6871 29.14 48.8588 28.9323 48.1588 28.517C47.4635 28.097 46.9245 27.502 46.5418 26.732C46.1638 25.9573 45.9748 25.0333 45.9748 23.96C45.9748 22.882 46.1661 21.9533 46.5488 21.174C46.9361 20.3947 47.4798 19.795 48.1798 19.375C48.8798 18.9503 49.7011 18.738 50.6438 18.738C51.5818 18.738 52.3985 18.948 53.0938 19.368C53.7891 19.788 54.3258 20.3877 54.7038 21.167C55.0865 21.9463 55.2778 22.8773 55.2778 23.96C55.2778 25.0287 55.0888 25.9503 54.7108 26.725C54.3375 27.4997 53.8031 28.097 53.1078 28.517C52.4125 28.9323 51.5911 29.14 50.6438 29.14ZM50.6438 27.46C51.1385 27.46 51.5655 27.3433 51.9248 27.11C52.2888 26.872 52.5688 26.4987 52.7648 25.99C52.9608 25.4767 53.0588 24.8093 53.0588 23.988C53.0588 23.1433 52.9585 22.4597 52.7578 21.937C52.5618 21.4143 52.2818 21.0317 51.9178 20.789C51.5585 20.5417 51.1338 20.418 50.6438 20.418C50.1538 20.418 49.7268 20.5417 49.3628 20.789C48.9988 21.0317 48.7165 21.4167 48.5158 21.944C48.3151 22.4667 48.2148 23.148 48.2148 23.988C48.2148 24.814 48.3151 25.4813 48.5158 25.99C48.7165 26.4987 48.9988 26.872 49.3628 27.11C49.7268 27.3433 50.1538 27.46 50.6438 27.46ZM57.2552 29V18.878H60.9792C61.7165 18.878 62.3769 19.0063 62.9602 19.263C63.5435 19.515 64.0032 19.8883 64.3392 20.383C64.6799 20.8777 64.8502 21.482 64.8502 22.196C64.8502 22.868 64.7009 23.442 64.4022 23.918C64.1035 24.394 63.6835 24.758 63.1422 25.01C62.6055 25.262 61.9732 25.388 61.2452 25.388H59.3132V29H57.2552ZM59.2922 23.806H61.1892C61.7025 23.806 62.1225 23.6427 62.4492 23.316C62.7759 22.9847 62.9392 22.5763 62.9392 22.091C62.9392 21.587 62.7665 21.188 62.4212 20.894C62.0759 20.5953 61.6559 20.446 61.1612 20.446H59.2922V23.806ZM76.3338 18.878H78.3778V29H76.5368L71.7278 22.035V29H69.6908V18.878H71.7138L76.3338 25.577V18.878ZM85.017 29.14C84.0603 29.14 83.232 28.9323 82.532 28.517C81.8366 28.097 81.2976 27.502 80.915 26.732C80.537 25.9573 80.348 25.0333 80.348 23.96C80.348 22.882 80.5393 21.9533 80.922 21.174C81.3093 20.3947 81.853 19.795 82.553 19.375C83.253 18.9503 84.0743 18.738 85.017 18.738C85.955 18.738 86.7716 18.948 87.467 19.368C88.1623 19.788 88.699 20.3877 89.077 21.167C89.4596 21.9463 89.651 22.8773 89.651 23.96C89.651 25.0287 89.462 25.9503 89.084 26.725C88.7106 27.4997 88.1763 28.097 87.481 28.517C86.7856 28.9323 85.9643 29.14 85.017 29.14ZM85.017 27.46C85.5116 27.46 85.9386 27.3433 86.298 27.11C86.662 26.872 86.942 26.4987 87.138 25.99C87.334 25.4767 87.432 24.8093 87.432 23.988C87.432 23.1433 87.3316 22.4597 87.131 21.937C86.935 21.4143 86.655 21.0317 86.291 20.789C85.9316 20.5417 85.507 20.418 85.017 20.418C84.527 20.418 84.1 20.5417 83.736 20.789C83.372 21.0317 83.0896 21.4167 82.889 21.944C82.6883 22.4667 82.588 23.148 82.588 23.988C82.588 24.814 82.6883 25.4813 82.889 25.99C83.0896 26.4987 83.372 26.872 83.736 27.11C84.1 27.3433 84.527 27.46 85.017 27.46ZM103.5 18.878L100.511 29H98.8803L96.9763 22.385L95.0583 29H93.4553L90.4733 18.878H92.4753L94.3583 25.563L96.2413 18.878H97.7183L99.6223 25.563L101.505 18.878H103.5Z" fill="#191C1F"/>
<path d="M115.625 24H129.375" stroke="#191C1F" stroke-width="1.5" stroke-linecap="round" stroke-linejoin="round"/>
<path d="M123.75 18.375L129.375 24L123.75 29.625" stroke="#191C1F" stroke-width="1.5" stroke-linecap="round" stroke-linejoin="round"/>
</svg>
