<svg width="217" height="56" viewBox="0 0 217 56" fill="none" xmlns="http://www.w3.org/2000/svg">
<rect width="217" height="56" rx="3" fill="#FA8232"/>
<path d="M32.304 24.512V22.432H41.56V24.512H38.144V34H35.8V24.512H32.304ZM52.3234 34H49.8994L48.0194 29.544H45.6754V34H43.3474V22.432H48.2274C49.15 22.432 49.9047 22.5787 50.4914 22.872C51.078 23.1653 51.51 23.5733 51.7874 24.096C52.0647 24.6133 52.2034 25.2107 52.2034 25.888C52.2034 26.496 52.1074 27.0107 51.9154 27.432C51.7287 27.848 51.4807 28.1947 51.1714 28.472C50.8674 28.7493 50.534 28.976 50.1714 29.152L52.3234 34ZM47.8114 27.744C48.4354 27.744 48.9287 27.576 49.2914 27.24C49.6594 26.904 49.8434 26.472 49.8434 25.944C49.8434 25.4107 49.6674 24.9893 49.3154 24.68C48.9634 24.3707 48.518 24.216 47.9794 24.216H45.6754V27.744H47.8114ZM53.9334 34L58.0774 22.432H60.5414L64.6774 34H62.3494L61.4054 31.32H57.2454L56.2774 34H53.9334ZM57.7654 29.28H60.8454L59.3174 24.688L57.7654 29.28ZM70.7559 22.272C71.6252 22.272 72.3985 22.448 73.0759 22.8C73.7585 23.1467 74.3079 23.6213 74.7239 24.224C75.1452 24.8267 75.3932 25.5067 75.4679 26.264H73.0199C72.9452 25.864 72.8092 25.5093 72.6119 25.2C72.4145 24.8853 72.1559 24.64 71.8359 24.464C71.5159 24.2827 71.1319 24.192 70.6839 24.192C70.1452 24.192 69.6812 24.3227 69.2919 24.584C68.9025 24.8453 68.6039 25.2667 68.3959 25.848C68.1879 26.4293 68.0839 27.1973 68.0839 28.152C68.0839 29.592 68.3132 30.6347 68.7719 31.28C69.2359 31.92 69.8732 32.24 70.6839 32.24C71.1319 32.24 71.5159 32.1387 71.8359 31.936C72.1559 31.728 72.4145 31.456 72.6119 31.12C72.8092 30.7787 72.9452 30.4053 73.0199 30H75.4679C75.3985 30.5493 75.2652 31.0747 75.0679 31.576C74.8705 32.072 74.5905 32.5147 74.2279 32.904C73.8652 33.2933 73.3985 33.6 72.8279 33.824C72.2572 34.048 71.5665 34.16 70.7559 34.16C69.6785 34.16 68.7479 33.9093 67.9639 33.408C67.1799 32.9067 66.5745 32.2027 66.1479 31.296C65.7265 30.3893 65.5159 29.3307 65.5159 28.12C65.5159 26.904 65.7265 25.8613 66.1479 24.992C66.5692 24.1173 67.1719 23.4453 67.9559 22.976C68.7399 22.5067 69.6732 22.272 70.7559 22.272ZM87.4643 34H84.9203L81.8563 28.616L80.1443 30.68V34H77.7203V22.432H80.1443V27.728L84.3603 22.432H87.0403L83.5283 26.912L87.4643 34ZM97.7716 34.16C96.6783 34.16 95.7316 33.9227 94.9316 33.448C94.137 32.968 93.521 32.288 93.0836 31.408C92.6516 30.5227 92.4356 29.4667 92.4356 28.24C92.4356 27.008 92.6543 25.9467 93.0916 25.056C93.5343 24.1653 94.1556 23.48 94.9556 23C95.7556 22.5147 96.6943 22.272 97.7716 22.272C98.8436 22.272 99.777 22.512 100.572 22.992C101.366 23.472 101.98 24.1573 102.412 25.048C102.849 25.9387 103.068 27.0027 103.068 28.24C103.068 29.4613 102.852 30.5147 102.42 31.4C101.993 32.2853 101.382 32.968 100.588 33.448C99.793 33.9227 98.8543 34.16 97.7716 34.16ZM97.7716 32.24C98.337 32.24 98.825 32.1067 99.2356 31.84C99.6516 31.568 99.9716 31.1413 100.196 30.56C100.42 29.9733 100.532 29.2107 100.532 28.272C100.532 27.3067 100.417 26.5253 100.188 25.928C99.9636 25.3307 99.6436 24.8933 99.2276 24.616C98.817 24.3333 98.3316 24.192 97.7716 24.192C97.2116 24.192 96.7236 24.3333 96.3076 24.616C95.8916 24.8933 95.569 25.3333 95.3396 25.936C95.1103 26.5333 94.9956 27.312 94.9956 28.272C94.9956 29.216 95.1103 29.9787 95.3396 30.56C95.569 31.1413 95.8916 31.568 96.3076 31.84C96.7236 32.1067 97.2116 32.24 97.7716 32.24ZM114.304 34H111.88L110 29.544H107.656V34H105.328V22.432H110.208C111.13 22.432 111.885 22.5787 112.472 22.872C113.058 23.1653 113.49 23.5733 113.768 24.096C114.045 24.6133 114.184 25.2107 114.184 25.888C114.184 26.496 114.088 27.0107 113.896 27.432C113.709 27.848 113.461 28.1947 113.152 28.472C112.848 28.7493 112.514 28.976 112.152 29.152L114.304 34ZM109.792 27.744C110.416 27.744 110.909 27.576 111.272 27.24C111.64 26.904 111.824 26.472 111.824 25.944C111.824 25.4107 111.648 24.9893 111.296 24.68C110.944 24.3707 110.498 24.216 109.96 24.216H107.656V27.744H109.792ZM116.66 22.432C116.719 22.432 116.881 22.432 117.148 22.432C117.42 22.432 117.737 22.432 118.1 22.432C118.468 22.432 118.833 22.4347 119.196 22.44C119.564 22.44 119.871 22.4427 120.116 22.448C121.519 22.48 122.663 22.7307 123.548 23.2C124.433 23.6693 125.081 24.3253 125.492 25.168C125.908 26.0107 126.116 27.008 126.116 28.16C126.116 29.36 125.897 30.3973 125.46 31.272C125.023 32.1413 124.353 32.8133 123.452 33.288C122.556 33.7627 121.417 34 120.036 34H116.66V22.432ZM119.012 24.32V32.112H120.084C120.745 32.112 121.345 31.984 121.884 31.728C122.428 31.472 122.863 31.0533 123.188 30.472C123.513 29.8907 123.676 29.1147 123.676 28.144C123.676 27.2427 123.532 26.512 123.244 25.952C122.956 25.3867 122.545 24.9733 122.012 24.712C121.479 24.4507 120.847 24.32 120.116 24.32H119.012ZM128.368 34V22.432H136.312L136.304 24.4H130.712V27.208H135.568V29.136H130.696V32.008L136.392 32.016V34H128.368ZM147.786 34H145.362L143.482 29.544H141.138V34H138.81V22.432H143.69C144.612 22.432 145.367 22.5787 145.954 22.872C146.54 23.1653 146.972 23.5733 147.25 24.096C147.527 24.6133 147.666 25.2107 147.666 25.888C147.666 26.496 147.57 27.0107 147.378 27.432C147.191 27.848 146.943 28.1947 146.634 28.472C146.33 28.7493 145.996 28.976 145.634 29.152L147.786 34ZM143.274 27.744C143.898 27.744 144.391 27.576 144.754 27.24C145.122 26.904 145.306 26.472 145.306 25.944C145.306 25.4107 145.13 24.9893 144.778 24.68C144.426 24.3707 143.98 24.216 143.442 24.216H141.138V27.744H143.274Z" fill="white"/>
<path d="M164.75 28H181.25" stroke="white" stroke-width="1.5" stroke-linecap="round" stroke-linejoin="round"/>
<path d="M174.5 21.25L181.25 28L174.5 34.75" stroke="white" stroke-width="1.5" stroke-linecap="round" stroke-linejoin="round"/>
</svg>
