<svg width="248" height="48" viewBox="0 0 248 48" fill="none" xmlns="http://www.w3.org/2000/svg">
<rect x="1" y="1" width="246" height="46" rx="1" stroke="#FA8232" stroke-width="2"/>
<path d="M69.041 18.878L65.548 29H63.231L59.766 18.878H61.719L64.393 26.627L67.088 18.878H69.041ZM70.6047 18.878H72.6417V29H70.6047V18.878ZM75.0794 29V18.878H82.0304L82.0234 20.6H77.1304V23.057H81.3794V24.744H77.1164V27.257L82.1004 27.264V29H75.0794ZM96.3888 18.878L93.3998 29H91.7688L89.8648 22.385L87.9468 29H86.3438L83.3618 18.878H85.3638L87.2468 25.563L89.1298 18.878H90.6068L92.5108 25.563L94.3938 18.878H96.3888ZM101.095 18.878C101.146 18.878 101.289 18.878 101.522 18.878C101.76 18.878 102.038 18.878 102.355 18.878C102.677 18.878 102.997 18.8803 103.314 18.885C103.636 18.885 103.904 18.8873 104.119 18.892C105.346 18.92 106.347 19.1393 107.122 19.55C107.897 19.9607 108.464 20.5347 108.823 21.272C109.187 22.0093 109.369 22.882 109.369 23.89C109.369 24.94 109.178 25.8477 108.795 26.613C108.412 27.3737 107.827 27.9617 107.038 28.377C106.254 28.7923 105.258 29 104.049 29H101.095V18.878ZM103.153 20.53V27.348H104.091C104.67 27.348 105.195 27.236 105.666 27.012C106.142 26.788 106.522 26.4217 106.807 25.913C107.092 25.4043 107.234 24.7253 107.234 23.876C107.234 23.0873 107.108 22.448 106.856 21.958C106.604 21.4633 106.245 21.1017 105.778 20.873C105.311 20.6443 104.758 20.53 104.119 20.53H103.153ZM111.339 29V18.878H118.29L118.283 20.6H113.39V23.057H117.639V24.744H113.376V27.257L118.36 27.264V29H111.339ZM119.854 20.698V18.878H127.953V20.698H124.964V29H122.913V20.698H119.854ZM127.579 29L131.205 18.878H133.361L136.98 29H134.943L134.117 26.655H130.477L129.63 29H127.579ZM130.932 24.87H133.627L132.29 20.852L130.932 24.87ZM138.667 18.878H140.704V29H138.667V18.878ZM143.142 18.878H145.2V27.271H149.596V29H143.142V18.878ZM155.574 29.14C155.075 29.14 154.585 29.077 154.104 28.951C153.623 28.825 153.185 28.636 152.788 28.384C152.391 28.132 152.062 27.817 151.801 27.439C151.544 27.061 151.39 26.6177 151.339 26.109H153.432C153.502 26.417 153.635 26.676 153.831 26.886C154.027 27.096 154.274 27.257 154.573 27.369C154.872 27.481 155.203 27.537 155.567 27.537C155.94 27.537 156.281 27.4903 156.589 27.397C156.897 27.3037 157.144 27.1637 157.331 26.977C157.518 26.7857 157.611 26.5477 157.611 26.263C157.611 26.0063 157.534 25.7963 157.38 25.633C157.231 25.4697 157.028 25.3367 156.771 25.234C156.514 25.1313 156.223 25.0473 155.896 24.982L154.146 24.625C153.381 24.4803 152.774 24.177 152.326 23.715C151.878 23.2483 151.647 22.6277 151.633 21.853C151.628 21.2183 151.796 20.67 152.137 20.208C152.482 19.7413 152.949 19.382 153.537 19.13C154.13 18.878 154.792 18.752 155.525 18.752C156.398 18.752 157.13 18.8897 157.723 19.165C158.32 19.4357 158.773 19.8043 159.081 20.271C159.394 20.733 159.555 21.2487 159.564 21.818H157.513C157.476 21.4633 157.368 21.181 157.191 20.971C157.014 20.761 156.785 20.6093 156.505 20.516C156.23 20.4227 155.915 20.376 155.56 20.376C155.289 20.376 155.042 20.4063 154.818 20.467C154.599 20.5277 154.412 20.614 154.258 20.726C154.104 20.8333 153.985 20.9617 153.901 21.111C153.817 21.2603 153.775 21.4283 153.775 21.615C153.775 21.909 153.873 22.147 154.069 22.329C154.265 22.511 154.631 22.6603 155.168 22.777L156.904 23.134C157.525 23.2553 158.017 23.435 158.381 23.673C158.75 23.911 159.025 24.1793 159.207 24.478C159.394 24.7767 159.515 25.0823 159.571 25.395C159.632 25.703 159.662 25.9877 159.662 26.249C159.662 26.795 159.489 27.2873 159.144 27.726C158.803 28.16 158.327 28.5053 157.716 28.762C157.105 29.014 156.391 29.14 155.574 29.14Z" fill="#FA8232"/>
<path d="M171.625 24H185.375" stroke="#FA8232" stroke-width="1.8" stroke-linecap="round" stroke-linejoin="round"/>
<path d="M179.75 18.375L185.375 24L179.75 29.625" stroke="#FA8232" stroke-width="1.8" stroke-linecap="round" stroke-linejoin="round"/>
</svg>
